<?xml version="1.0" encoding="utf-8" ?>
<svg baseProfile="tiny" height="100%" version="1.2" width="100%" xmlns="http://www.w3.org/2000/svg" xmlns:ev="http://www.w3.org/2001/xml-events" xmlns:xlink="http://www.w3.org/1999/xlink"><defs /><rect fill="#616161" height="555" stroke="black" stroke-width="1" width="1342" x="353" y="249" /><rect fill="#3E5F8A" height="22" stroke="black" stroke-width="1" width="1500" x="353" y="106" /><rect fill="#616161" height="20" stroke="black" stroke-width="1" width="346" x="101" y="386" /><rect fill="#616161" height="19" stroke="black" stroke-width="1" width="346" x="101" y="337" /><rect fill="#3E5F8A" height="48" stroke="black" stroke-width="1" width="1500" x="353" y="138" /><rect fill="#3E5F8A" height="43" stroke="black" stroke-width="1" width="1500" x="353" y="196" /><rect fill="#3E5F8A" height="555" stroke="black" stroke-width="1" width="158" x="1695" y="249" /><rect fill="#3E5F8A" height="16" stroke="black" stroke-width="1" width="1500" x="353" y="80" /><rect fill="#7f9f9f" height="14" stroke="black" stroke-width="1" width="168" x="8" y="32" /><rect fill="#3E5F8A" height="26" stroke="black" stroke-width="1" width="180" x="8" y="68" /><rect fill="url(#FillStyleDiagonalCrossHatch_Rect563)" height="10" stroke="black" stroke-width="1" width="217" x="1191" y="402" /><rect fill="#000000" height="0" stroke="black" stroke-width="1" width="202" x="1197" y="405" /><rect fill="url(#FillStyleDiagonalCrossHatch_Rect565)" height="10" stroke="black" stroke-width="1" width="217" x="1191" y="428" /><rect fill="#000000" height="0" stroke="black" stroke-width="1" width="202" x="1197" y="432" /><rect fill="#3E5F8A" height="8" stroke="black" stroke-width="1" width="211" x="1194" y="455" /><rect fill="url(#FillStyleDiagonalCrossHatch_Rect585)" height="10" stroke="black" stroke-width="1" width="217" x="1373" y="647" /><rect fill="#000000" height="0" stroke="black" stroke-width="1" width="202" x="1379" y="650" /><rect fill="url(#FillStyleDiagonalCrossHatch_Rect587)" height="10" stroke="black" stroke-width="1" width="217" x="1374" y="670" /><rect fill="#000000" height="0" stroke="black" stroke-width="1" width="202" x="1381" y="674" /><rect fill="#3E5F8A" height="8" stroke="black" stroke-width="1" width="211" x="1378" y="695" /><rect fill="#3E5F8A" height="98" stroke="black" stroke-width="1" width="218" x="642" y="649" /><rect fill="#616161" height="62" stroke="black" stroke-width="1" width="14" x="608" y="631" /><rect fill="#616161" height="-6" stroke="black" stroke-width="1" width="24" x="603" y="628" /><rect fill="#9a9a9a" height="89" stroke="black" stroke-width="1" width="153" x="91" y="502" /><rect fill="#c6c6c6" height="81" stroke="black" stroke-width="1" width="139" x="98" y="506" /><polygon fill="#ffff00" points="1852,338 1827,338 1839,355" /><polygon fill="#a4c4ff" points="194,243 178,233 194,222 236,222 236,243 236,243" /><polygon fill="#ffff00" points="1092,476 1092,458 1068,467" /><polygon fill="#a4c4ff" points="104,479 88,468 104,458 145,458 145,479 145,479" /><polygon fill="#7f7f7f" points="806,474 806,460 848,474 848,460 806,474" /><polygon fill="#7f7f7f" points="806,474 806,460 848,474 848,460 806,474" /><polygon fill="#7f7f7f" points="806,472 806,462 848,472 848,462 806,472" /><polygon fill="#7f7f7f" points="806,471 806,463 848,471 848,463 806,471" /><polygon fill="#7f7f7f" points="806,469 806,465 848,469 848,465 806,469" /><polygon fill="#7f7f7f" points="806,468 806,466 848,468 848,466 806,468" /><polygon fill="#7f7f7f" points="960,474 960,460 1002,474 1002,460 960,474" /><polygon fill="#7f7f7f" points="960,474 960,460 1002,474 1002,460 960,474" /><polygon fill="#7f7f7f" points="960,472 960,462 1002,472 1002,462 960,472" /><polygon fill="#7f7f7f" points="960,471 960,463 1002,471 1002,463 960,471" /><polygon fill="#7f7f7f" points="960,469 960,465 1002,469 1002,465 960,469" /><polygon fill="#7f7f7f" points="960,468 960,466 1002,468 1002,466 960,468" /><polygon fill="#7f7f7f" points="994,781 994,766 1036,781 1036,766 994,781" /><polygon fill="#7f7f7f" points="994,780 994,767 1036,780 1036,767 994,780" /><polygon fill="#7f7f7f" points="994,778 994,768 1036,778 1036,768 994,778" /><polygon fill="#7f7f7f" points="994,777 994,770 1036,777 1036,770 994,777" /><polygon fill="#7f7f7f" points="994,776 994,771 1036,776 1036,771 994,776" /><polygon fill="#7f7f7f" points="994,774 994,772 1036,774 1036,772 994,774" /><polygon fill="#7f7f7f" points="1148,781 1148,766 1190,781 1190,766 1148,781" /><polygon fill="#7f7f7f" points="1148,780 1148,767 1190,780 1190,767 1148,780" /><polygon fill="#7f7f7f" points="1148,778 1148,768 1190,778 1190,768 1148,778" /><polygon fill="#7f7f7f" points="1148,777 1148,770 1190,777 1190,770 1148,777" /><polygon fill="#7f7f7f" points="1148,776 1148,771 1190,776 1190,771 1148,776" /><polygon fill="#7f7f7f" points="1148,774 1148,772 1190,774 1190,772 1148,774" /><polygon fill="#800080" points="591,746 567,746 579,764" /><polygon fill="#000000" points="559,602 564,596 559,598 553,596" /><polygon fill="#000000" points="559,582 564,589 559,586 553,589" /><polygon fill="#ffff00" points="587,613 568,613 577,598" /><polygon fill="#ffff00" points="587,582 568,582 577,597" /><polygon fill="#000000" points="633,527 638,521 633,523 628,521" /><polygon fill="#000000" points="633,507 638,513 633,511 628,513" /><polygon fill="#ffff00" points="581,524 581,538 602,531" /><polygon fill="#ffff00" points="623,524 623,538 602,531" /><polygon fill="#000000" points="707,630 712,622 707,625 701,622" /><polygon fill="#000000" points="707,606 712,614 707,611 701,614" /><polygon fill="#ffff00" points="651,626 651,642 673,634" /><polygon fill="#ffff00" points="696,626 696,642 673,634" /><polygon fill="#000000" points="322,468 316,459 320,460 320,445 324,445 324,460 328,459 322,468" /><polygon fill="#000000" points="322,442 328,451 324,450 324,465 320,465 320,450 316,451 322,442" /><polygon fill="#000000" points="322,778 316,769 320,771 320,756 324,756 324,771 328,769 322,778" /><polygon fill="#000000" points="322,753 328,762 324,761 324,776 320,776 320,761 316,762 322,753" /><polygon fill="#7f7f7f" points="1562,351 1568,335 1607,335 1614,351 1601,351 1588,337 1575,351 1562,351" /><polygon fill="#7f7f7f" points="1619,318 1619,318 1619,318 1620,319 1620,319 1620,319 1620,320 1620,320 1620,321 1620,321 1620,321 1620,322 1620,322 1620,322 1620,323 1620,323 1620,324 1620,325 1620,326 1620,327 1620,328 1619,329 1619,330 1618,331 1618,333 1617,334 1616,335 1616,335 1615,336 1614,337 1613,338 1612,339 1611,340 1610,341 1609,341 1607,342 1606,343 1605,343 1603,344 1602,344 1600,345 1599,345 1598,346 1596,346 1594,346 1593,346 1591,347 1589,347 1588,347 1586,347 1585,347 1583,346 1581,346 1580,346 1578,346 1577,345 1575,345 1574,344 1572,344 1571,343 1570,343 1568,342 1567,341 1566,341 1565,340 1564,339 1563,338 1562,337 1561,336 1560,335 1559,335 1558,334 1558,333 1557,331 1557,330 1556,329 1556,328 1555,327 1555,326 1555,325 1555,324 1555,322 1555,321 1555,320 1556,319 1556,318 1557,317 1557,316 1558,315 1558,314 1559,313 1560,312 1561,311 1562,310 1563,309 1564,308 1565,307 1566,307 1567,306 1568,305 1570,305 1571,304 1572,303 1574,303 1575,302 1577,302 1578,302 1580,301 1581,301 1583,301 1585,301 1586,301 1588,301 1634,301 1634,318 1619,318" /><polygon fill="#7f7f7f" points="1634,305 1588,305 1588,301 1634,301 1634,305" /><polygon fill="#7f7f7f" points="1634,309 1588,309 1588,305 1634,305 1634,309" /><polygon fill="#7f7f7f" points="1634,313 1588,313 1588,309 1634,309 1634,313" /><polygon fill="#7f7f7f" points="1588,324 1565,340 1564,339 1564,339 1563,339 1563,338 1562,338 1562,337 1561,337 1561,336 1560,336 1560,335 1559,335 1559,334 1559,334 1558,333 1558,333 1558,332 1557,332 1557,331 1557,331 1557,330 1556,330 1556,329 1556,329 1556,328 1556,328 1555,327 1555,326 1555,326 1555,325 1555,325 1555,324 1555,324 1555,322 1555,321 1555,320 1556,319 1556,318 1557,317 1557,316 1558,315 1558,314 1559,313 1560,312 1561,311 1562,310 1563,309 1564,308 1565,307 1566,307 1567,306 1568,305 1570,305 1571,304 1572,303 1574,303 1575,302 1577,302 1578,302 1580,301 1581,301 1583,301 1585,301 1586,301 1588,301 1589,301 1589,301 1590,301 1591,301 1592,301 1593,301 1593,301 1594,301 1595,301 1596,301 1597,301 1597,302 1598,302 1599,302 1600,302 1600,302 1601,303 1602,303 1602,303 1603,303 1604,304 1605,304 1605,304 1606,304 1607,305 1607,305 1608,305 1609,306 1609,306 1610,307 1610,307 1611,307 1588,324" /><polygon fill="#7f7f7f" points="1588,324 1611,307 1612,308 1612,308 1613,309 1613,309 1614,309 1614,310 1614,310 1615,311 1615,311 1616,312 1616,312 1617,313 1617,313 1617,314 1618,314 1618,315 1618,315 1618,316 1619,316 1619,317 1619,317 1619,318 1620,319 1620,319 1620,320 1620,320 1620,321 1620,321 1620,322 1620,322 1620,323 1620,324 1620,325 1620,326 1620,327 1620,328 1619,329 1619,330 1618,331 1618,333 1617,334 1616,335 1616,335 1615,336 1614,337 1613,338 1612,339 1611,340 1610,341 1609,341 1607,342 1606,343 1605,343 1603,344 1602,344 1600,345 1599,345 1598,346 1596,346 1594,346 1593,346 1591,347 1589,347 1588,347 1587,347 1586,347 1585,347 1585,347 1584,346 1583,346 1582,346 1581,346 1581,346 1580,346 1579,346 1578,346 1578,345 1577,345 1576,345 1575,345 1575,345 1574,344 1573,344 1572,344 1572,344 1571,343 1570,343 1570,343 1569,342 1568,342 1568,342 1567,341 1566,341 1566,341 1565,340 1565,340 1588,324" /><polygon fill="#7f7f7f" points="1588,303 1589,303 1591,303 1592,303 1594,303 1595,304 1597,304 1598,304 1599,305 1601,305 1602,305 1603,306 1604,306 1605,307 1606,308 1608,308 1609,309 1610,310 1610,310 1611,311 1612,312 1613,313 1614,314 1614,315 1615,316 1615,316 1616,317 1616,318 1617,319 1617,320 1617,321 1617,323 1617,324 1617,325 1617,326 1617,327 1617,328 1616,329 1616,330 1615,331 1615,332 1614,333 1614,333 1613,334 1612,335 1611,336 1610,337 1610,338 1609,338 1608,339 1606,340 1605,340 1604,341 1603,341 1602,342 1601,342 1599,343 1598,343 1597,343 1595,344 1594,344 1592,344 1591,344 1589,344 1588,344 1586,344 1585,344 1583,344 1582,344 1580,344 1579,343 1578,343 1576,343 1575,342 1574,342 1573,341 1571,341 1570,340 1569,340 1568,339 1567,338 1566,338 1565,337 1564,336 1563,335 1563,334 1562,333 1561,333 1561,332 1560,331 1560,330 1559,329 1559,328 1559,327 1559,326 1558,325 1558,324 1558,323 1559,321 1559,320 1559,319 1559,318 1560,317 1560,316 1561,316 1561,315 1562,314 1563,313 1563,312 1564,311 1565,310 1566,310 1567,309 1568,308 1569,308 1570,307 1571,306 1573,306 1574,305 1575,305 1576,305 1578,304 1579,304 1580,304 1582,303 1583,303 1585,303 1586,303 1588,303" /><polygon fill="#7f7f7f" points="1588,314 1589,314 1589,315 1590,315 1590,315 1591,315 1592,315 1592,315 1593,315 1593,315 1594,316 1595,316 1595,316 1596,316 1596,317 1597,317 1597,317 1597,317 1598,318 1598,318 1599,318 1599,319 1599,319 1600,320 1600,320 1600,320 1600,321 1600,321 1601,322 1601,322 1601,323 1601,323 1601,324 1601,324 1601,325 1601,325 1601,325 1600,326 1600,326 1600,327 1600,327 1600,328 1599,328 1599,328 1599,329 1598,329 1598,329 1597,330 1597,330 1597,330 1596,331 1596,331 1595,331 1595,331 1594,332 1593,332 1593,332 1592,332 1592,332 1591,333 1590,333 1590,333 1589,333 1589,333 1588,333 1587,333 1586,333 1586,333 1585,333 1585,333 1584,332 1583,332 1583,332 1582,332 1582,332 1581,331 1580,331 1580,331 1579,331 1579,330 1579,330 1578,330 1578,329 1577,329 1577,329 1577,328 1576,328 1576,328 1576,327 1575,327 1575,326 1575,326 1575,325 1575,325 1575,325 1575,324 1575,324 1575,323 1575,323 1575,322 1575,322 1575,321 1575,321 1575,320 1576,320 1576,320 1576,319 1577,319 1577,318 1577,318 1578,318 1578,317 1579,317 1579,317 1579,317 1580,316 1580,316 1581,316 1582,316 1582,315 1583,315 1583,315 1584,315 1585,315 1585,315 1586,315 1586,315 1587,314 1588,314" /><polygon fill="#7f7f7f" points="1588,317 1588,317 1589,317 1589,317 1590,317 1590,317 1591,317 1591,317 1592,317 1592,317 1592,318 1593,318 1593,318 1594,318 1594,318 1594,318 1595,319 1595,319 1595,319 1596,319 1596,320 1596,320 1596,320 1597,321 1597,321 1597,321 1597,322 1597,322 1597,322 1598,323 1598,323 1598,323 1598,324 1598,324 1598,324 1598,325 1597,325 1597,325 1597,326 1597,326 1597,326 1597,327 1596,327 1596,327 1596,327 1596,328 1595,328 1595,328 1595,328 1594,329 1594,329 1594,329 1593,329 1593,329 1592,330 1592,330 1592,330 1591,330 1591,330 1590,330 1590,330 1589,330 1589,330 1588,330 1588,330 1587,330 1587,330 1586,330 1586,330 1585,330 1585,330 1584,330 1584,330 1584,330 1583,330 1583,329 1582,329 1582,329 1582,329 1581,329 1581,328 1581,328 1580,328 1580,328 1580,327 1579,327 1579,327 1579,327 1579,326 1579,326 1578,326 1578,325 1578,325 1578,325 1578,324 1578,324 1578,324 1578,323 1578,323 1578,323 1578,322 1578,322 1578,322 1579,321 1579,321 1579,321 1579,320 1579,320 1580,320 1580,319 1580,319 1581,319 1581,319 1581,318 1582,318 1582,318 1582,318 1583,318 1583,318 1584,317 1584,317 1584,317 1585,317 1585,317 1586,317 1586,317 1587,317 1587,317 1588,317" /><polygon fill="#7f7f7f" points="1578,323 1598,323 1598,324 1578,324 1578,323" /><polygon fill="#7f7f7f" points="1582,329 1592,317 1593,318 1584,330 1582,329" /><polygon fill="#7f7f7f" points="1584,317 1593,329 1592,330 1582,318 1584,317" /><polygon fill="#7f7f7f" points="1588,322 1588,322 1589,322 1589,322 1589,323 1590,323 1590,323 1590,323 1590,324 1590,324 1590,324 1590,324 1589,325 1589,325 1589,325 1588,325 1588,325 1587,325 1587,325 1587,325 1586,325 1586,324 1586,324 1586,324 1586,324 1586,323 1586,323 1586,323 1586,323 1587,322 1587,322 1587,322 1588,322" /><polygon fill="#7f7f7f" points="1626,298 1634,298 1634,320 1626,320 1626,298" /><polygon fill="#7f7f7f" points="1626,300 1634,300 1634,319 1626,319 1626,300" /><polygon fill="#7f7f7f" points="1626,302 1634,302 1634,317 1626,317 1626,302" /><polygon fill="#7f7f7f" points="1626,304 1634,304 1634,314 1626,314 1626,304" /><polygon fill="#7f7f7f" points="1626,306 1634,306 1634,312 1626,312 1626,306" /><polygon fill="#7f7f7f" points="1626,308 1634,308 1634,311 1626,311 1626,308" /><polygon fill="#7f7f7f" points="1555,349 1578,349 1578,351 1555,351 1555,349" /><polygon fill="#7f7f7f" points="1598,349 1620,349 1620,351 1598,351 1598,349" /><polygon fill="#787878" points="1587,338 1591,338 1595,337 1598,336 1602,334 1604,332 1606,330 1607,327 1607,324 1607,321 1606,319 1604,317 1602,314 1598,313 1595,311 1591,311 1587,310 1583,311 1579,311 1576,313 1573,314 1570,317 1568,319 1567,321 1567,324 1567,327 1568,330 1570,332 1573,334 1576,336 1579,337 1583,338 1587,338" /><polygon fill="#000000" points="331,120 325,111 329,112 329,97 333,97 333,112 337,111 331,120" /><polygon fill="#000000" points="331,94 337,103 333,102 333,117 329,117 329,102 325,103 331,94" /><polygon fill="#000000" points="331,178 325,169 329,170 329,155 333,155 333,170 337,169 331,178" /><polygon fill="#000000" points="331,152 337,161 333,160 333,175 329,175 329,160 325,161 331,152" /><polygon fill="#000000" points="331,235 325,226 329,227 329,212 333,212 333,227 337,226 331,235" /><polygon fill="#000000" points="331,209 337,218 333,217 333,232 329,232 329,217 325,218 331,209" /><polygon fill="#000000" points="1503,364 1497,356 1501,357 1501,342 1505,342 1505,357 1509,356 1503,364" /><polygon fill="#000000" points="1503,339 1509,348 1505,347 1505,362 1501,362 1501,347 1497,348 1503,339" /><polygon fill="#000000" points="1403,367 1397,358 1401,359 1401,344 1405,344 1405,359 1409,358 1403,367" /><polygon fill="#000000" points="1403,342 1409,350 1405,349 1405,364 1401,364 1401,349 1397,350 1403,342" /><polygon fill="#000000" points="1495,540 1489,531 1493,532 1493,517 1497,517 1497,532 1501,531 1495,540" /><polygon fill="#000000" points="1495,514 1501,523 1497,522 1497,537 1493,537 1493,522 1489,523 1495,514" /><polygon fill="#000000" points="1396,541 1390,532 1394,534 1394,518 1398,518 1398,534 1402,532 1396,541" /><polygon fill="#000000" points="1396,516 1402,525 1398,523 1398,539 1394,539 1394,523 1390,525 1396,516" /><polygon fill="#000000" points="1548,616 1542,607 1546,609 1546,593 1550,593 1550,609 1554,607 1548,616" /><polygon fill="#000000" points="1548,591 1554,600 1550,598 1550,614 1546,614 1546,598 1542,600 1548,591" /><polygon fill="#000000" points="1651,614 1646,605 1650,606 1650,591 1654,591 1654,606 1658,605 1651,614" /><polygon fill="#000000" points="1652,588 1658,597 1653,596 1653,611 1649,611 1649,596 1646,597 1652,588" /><polygon fill="#000000" points="1534,778 1528,769 1532,770 1532,755 1536,755 1536,770 1540,769 1534,778" /><polygon fill="#000000" points="1534,752 1540,761 1536,760 1536,775 1532,775 1532,760 1528,761 1534,752" /><polygon fill="#000000" points="1651,774 1646,765 1650,767 1650,751 1654,751 1654,767 1658,765 1651,774" /><polygon fill="#000000" points="1652,749 1658,758 1653,756 1653,771 1649,771 1649,756 1646,758 1652,749" /><polygon fill="#a4c4ff" points="120,750 105,740 120,729 162,729 162,750 162,750" /><polygon fill="#a4c4ff" points="120,819 105,808 120,796 162,796 162,819 162,819" /><line stroke="#ada110" stroke-dasharray="0 0" stroke-width="2" x1="211" x2="454" y1="773" y2="773" /><line stroke="#ada110" stroke-dasharray="0 0" stroke-width="2" x1="128" x2="453" y1="467" y2="467" /><line stroke="#ada110" stroke-dasharray="0 0" stroke-width="2" x1="1271.0" x2="1271.0" y1="773.0" y2="613.0" /><line stroke="#ada110" stroke-dasharray="0 0" stroke-width="2" x1="226" x2="1840.0" y1="233" y2="233.0" /><line stroke="#ada110" stroke-dasharray="0 0" stroke-width="2" x1="1682.0" x2="1682" y1="773.0" y2="238" /><line stroke="#ada110" stroke-dasharray="0 0" stroke-width="2" x1="1840" x2="1840.0" y1="370" y2="178.0" /><line stroke="#ada110" stroke-dasharray="0 0" stroke-width="2" x1="239" x2="1840.0" y1="178" y2="178.0" /><line stroke="#ada110" stroke-dasharray="0 0" stroke-width="2" x1="343" x2="343.0" y1="176" y2="119.0" /><line stroke="#ada110" stroke-dasharray="0 0" stroke-width="2" x1="205" x2="343.0" y1="119" y2="119.0" /><line stroke="#ada110" stroke-dasharray="0 0" stroke-width="2" x1="1130.0" x2="1682.0" y1="365.0" y2="365.0" /><line stroke="#ada110" stroke-dasharray="0 0" stroke-width="2" x1="1131" x2="1680" y1="539" y2="539" /><line stroke="#ada110" stroke-dasharray="0 0" stroke-width="2" x1="454" x2="1128" y1="467" y2="467" /><line stroke="#ada110" stroke-dasharray="0 0" stroke-width="2" x1="1130" x2="1130.0" y1="539" y2="365.0" /><line stroke="#ada110" stroke-dasharray="0 0" stroke-width="2" x1="730.0" x2="1064.0" y1="403.0" y2="403.0" /><line stroke="#ada110" stroke-dasharray="0 0" stroke-width="2" x1="1064" x2="1064.0" y1="467" y2="403.0" /><line stroke="#ada110" stroke-dasharray="0 0" stroke-width="2" x1="730" x2="730.0" y1="466" y2="403.0" /><line stroke="#ada110" stroke-dasharray="0 0" stroke-width="2" x1="1271.0" x2="1674" y1="613.0" y2="613" /><line stroke="#ada110" stroke-dasharray="0 0" stroke-width="2" x1="1271.0" x2="1682.0" y1="773.0" y2="773.0" /><line stroke="#ada110" stroke-dasharray="0 0" stroke-width="2" x1="459" x2="1271.0" y1="773" y2="773.0" /><line stroke="#ada110" stroke-dasharray="0 0" stroke-width="2" x1="918.0" x2="1252.0" y1="709.0" y2="709.0" /><line stroke="#ada110" stroke-dasharray="0 0" stroke-width="2" x1="1252" x2="1252.0" y1="773" y2="709.0" /><line stroke="#ada110" stroke-dasharray="0 0" stroke-width="2" x1="918" x2="918.0" y1="772" y2="709.0" /><line stroke="#ada110" stroke-dasharray="0 0" stroke-width="2" x1="211" x2="211.0" y1="774" y2="741.0" /><line stroke="#ada110" stroke-dasharray="0 0" stroke-width="2" x1="211" x2="211" y1="808" y2="777" /><line stroke="#ada110" stroke-dasharray="0 0" stroke-width="2" x1="211.0" x2="162" y1="741.0" y2="741" /><line stroke="#ada110" stroke-dasharray="0 0" stroke-width="2" x1="211.0" x2="162" y1="808.0" y2="808" /><line stroke="#1a001a" stroke-dasharray="0 0" stroke-width="2" x1="323" x2="729" y1="530" y2="530" /><line stroke="#1a001a" stroke-dasharray="0 0" stroke-width="2" x1="740.0" x2="740" y1="634.9652" y2="592" /><line stroke="#1a001a" stroke-dasharray="0 0" stroke-width="2" x1="579" x2="579.0" y1="772" y2="554.0" /><line stroke="#1a001a" stroke-dasharray="0 0" stroke-width="2" x1="579" x2="926" y1="554" y2="554" /><line stroke="#1a001a" stroke-dasharray="0 0" stroke-width="2" x1="621" x2="740.0" y1="636" y2="634.9652" /><line stroke="#1a001a" stroke-dasharray="0 0" stroke-width="2" x1="585" x2="607" y1="693" y2="693" /><line stroke="#000000" stroke-dasharray="10 5" stroke-width="1" x1="890" x2="890" y1="730" y2="766" /><line stroke="#000000" stroke-dasharray="10 5" stroke-width="1" x1="1281" x2="1281.0" y1="564" y2="640.1902" /><line stroke="#000000" stroke-dasharray="10 5" stroke-width="1" x1="1673.0" x2="1673" y1="564.0" y2="637" /><line stroke="#000000" stroke-dasharray="10 5" stroke-width="1" x1="1288" x2="1673" y1="564" y2="564" /><line stroke="#000000" stroke-dasharray="10 5" stroke-width="1" x1="1281.0" x2="1673" y1="637.0" y2="637" /><line stroke="#000000" stroke-dasharray="10 5" stroke-width="1" x1="1139" x2="1139" y1="482" y2="559" /><line stroke="#000000" stroke-dasharray="10 5" stroke-width="1" x1="1492" x2="1492" y1="482" y2="559" /><line stroke="#000000" stroke-dasharray="10 5" stroke-width="1" x1="1145" x2="1497.0" y1="482" y2="482.0" /><line stroke="#000000" stroke-dasharray="10 5" stroke-width="1" x1="1139.0" x2="1492" y1="559.0" y2="559" /><line stroke="#000000" stroke-dasharray="10 5" stroke-width="1" x1="1146" x2="1146" y1="317" y2="391" /><line stroke="#000000" stroke-dasharray="10 5" stroke-width="1" x1="1497.0" x2="1497" y1="317.0" y2="391" /><line stroke="#000000" stroke-dasharray="10 5" stroke-width="1" x1="1152" x2="1497" y1="317" y2="317" /><line stroke="#000000" stroke-dasharray="10 5" stroke-width="1" x1="1146.0" x2="1497" y1="391.0" y2="391" /><line stroke="#000000" stroke-dasharray="10 5" stroke-width="1" x1="1072" x2="1072.0" y1="333" y2="454.0422" /><line stroke="#000000" stroke-dasharray="10 5" stroke-width="1" x1="746.0" x2="1059" y1="452.9838" y2="454" /><line stroke="#000000" stroke-dasharray="10 5" stroke-width="1" x1="746.0" x2="746.0" y1="409.0" y2="452.0" /><line stroke="#000000" stroke-dasharray="10 5" stroke-width="1" x1="746.0" x2="874" y1="409.0" y2="409" /><line stroke="#000000" stroke-dasharray="10 5" stroke-width="1" x1="875" x2="1059" y1="333" y2="334" /><line stroke="#000000" stroke-dasharray="10 5" stroke-width="1" x1="874" x2="874" y1="333" y2="407" /><line stroke="#000000" stroke-dasharray="10 5" stroke-width="1" x1="1278" x2="1278" y1="717" y2="794" /><line stroke="#000000" stroke-dasharray="10 5" stroke-width="1" x1="1677.0" x2="1677" y1="717.0" y2="795" /><line stroke="#000000" stroke-dasharray="10 5" stroke-width="1" x1="1285" x2="1673.0" y1="717" y2="717.0" /><line stroke="#000000" stroke-dasharray="10 5" stroke-width="1" x1="1278.0" x2="1677" y1="794.0" y2="794" /><line stroke="#000000" stroke-dasharray="10 5" stroke-width="1" x1="1245" x2="1245" y1="639" y2="761" /><line stroke="#000000" stroke-dasharray="10 5" stroke-width="1" x1="933.0" x2="1245" y1="758.987" y2="760" /><line stroke="#000000" stroke-dasharray="10 5" stroke-width="1" x1="933.0" x2="933.0" y1="715.0" y2="758.0" /><line stroke="#000000" stroke-dasharray="10 5" stroke-width="1" x1="933.0" x2="1056.0" y1="715.0" y2="715.0" /><line stroke="#000000" stroke-dasharray="10 5" stroke-width="1" x1="1062" x2="1245.0" y1="639" y2="639.9946" /><line stroke="#000000" stroke-dasharray="10 5" stroke-width="1" x1="1056" x2="1056.0" y1="639" y2="715.0" /><text fill="gray" text-anchor="middle" x="572" y="438">Pmin
			</text><text fill="gray" text-anchor="middle" x="1141" y="127">Отсек управления
			</text><text fill="gray" text-anchor="middle" x="1141" y="99">Блок подготовки теплоносителя
			</text><text fill="gray" text-anchor="middle" x="1142" y="216">Блок подогрева, редуцирования и учета топливного газа
			</text><text fill="gray" text-anchor="middle" x="211" y="218">ГКС ВД
			</text><text fill="gray" text-anchor="middle" x="1142" y="160">Блок очистки и замера общего расхода газа
			</text><text fill="gray" text-anchor="middle" x="90" y="50">УПТиУГ в работе
			</text><text fill="gray" text-anchor="middle" x="99" y="85">АВАРИЙНЫЙ
			</text><text fill="gray" text-anchor="middle" x="1064" y="274">Блок редуцирования и учета топливного газа для нужд УПГ-2 и уплотнительного газа
			</text><text fill="gray" text-anchor="middle" x="210" y="161">УПГ-2
			</text><text fill="gray" text-anchor="middle" x="146" y="791">ГГУ
			</text><text fill="gray" text-anchor="middle" x="122" y="452">ГКС ВД
			</text><text fill="gray" text-anchor="middle" x="970" y="349">Замерный узел 4 
			</text><text fill="gray" text-anchor="middle" x="1578" y="398">СН4
			</text><text fill="gray" text-anchor="middle" x="1578" y="468">СН4
			</text><text fill="gray" text-anchor="middle" x="1304" y="469">УПРАВЛЕНИЕ НИТКАМИ 
				</text><text fill="gray" text-anchor="middle" x="1231" y="386">Нитка 1
			</text><text fill="gray" text-anchor="middle" x="1410" y="494">Нитка 2 
			</text><text fill="gray" text-anchor="middle" x="221" y="256">Выход 1
			</text><text fill="gray" text-anchor="middle" x="127" y="490">Выход 2
			</text><text fill="gray" text-anchor="middle" x="77" y="737">УПГ-2
			</text><text fill="gray" text-anchor="middle" x="1158" y="655">Замерный узел 5 
			</text><text fill="gray" text-anchor="middle" x="1488" y="710">УПРАВЛЕНИЕ НИТКАМИ 
				</text><text fill="gray" text-anchor="middle" x="1372" y="634">Нитка 1
			</text><text fill="gray" text-anchor="middle" x="1593" y="729">Нитка 2 
			</text><text fill="gray" text-anchor="middle" x="88" y="766">Выход 3
			</text><text fill="gray" text-anchor="middle" x="690" y="778">топливный газ
			</text><text fill="gray" text-anchor="middle" x="1165" y="600">Отсек
			</text><text fill="gray" text-anchor="middle" x="961" y="653">СН4
			</text><text fill="gray" text-anchor="middle" x="789" y="510">Е-2
			</text><text fill="gray" text-anchor="middle" x="753" y="663">Одоризатор
			</text><text fill="gray" text-anchor="middle" x="1776" y="567">газа на
				</text><text fill="gray" text-anchor="middle" x="1780" y="533">Блок
				</text><text fill="gray" text-anchor="middle" x="104" y="396">Минимальное аварийное давление на
			</text><text fill="gray" text-anchor="middle" x="572" y="392">Pmax
			</text><text fill="gray" text-anchor="middle" x="413" y="728">Pmin
			</text><text fill="gray" text-anchor="middle" x="413" y="677">Pmax
			</text><text fill="gray" text-anchor="middle" x="101" y="350">Максимальное аварийное давление на
			</text><text fill="gray" text-anchor="middle" x="101" y="616">Максимальное аварийное
			</text><text fill="gray" text-anchor="middle" x="103" y="670">Минимальное аварийное
			</text><text fill="gray" text-anchor="middle" x="959" y="608">Lmin
			</text><text fill="gray" text-anchor="middle" x="581" y="317">СН4
			</text><text fill="gray" text-anchor="middle" x="700" y="677">Автоматический/
			</text><text fill="gray" text-anchor="middle" x="704" y="733">Авария
			</text><text fill="gray" text-anchor="middle" x="1850" y="47">Перем
				</text><text fill="gray" text-anchor="middle" x="167" y="589">ТЕСТ
					</text><text fill="gray" text-anchor="middle" x="169" y="589">СЪЕМ ЗВУКА
					</text><text fill="gray" text-anchor="middle" x="1381" y="387">%
					</text><text fill="gray" text-anchor="middle" x="1374" y="561">%
					</text><text fill="gray" text-anchor="middle" x="1526" y="636">%
					</text><text fill="gray" text-anchor="middle" x="1512" y="797">%
					</text><text fill="gray" text-anchor="middle" x="226" y="801">Дежурная
			</text><text fill="gray" text-anchor="middle" x="99" y="103">ОСТАНОВ УПТиУГ </text><text fill="gray" text-anchor="middle" x="1064" y="292"> для ГКС ВД</text><text fill="gray" text-anchor="middle" x="1165" y="618">одоризации</text><text fill="gray" text-anchor="middle" x="1776" y="585">собственные</text><text fill="gray" text-anchor="middle" x="1776" y="603">нужды УПТиУГ</text><text fill="gray" text-anchor="middle" x="1780" y="551">подготовки</text><text fill="gray" text-anchor="middle" x="104" y="409">выходе 2. Закрытие BV52004</text><text fill="gray" text-anchor="middle" x="101" y="363">выходе 2. Закрытие BV52004</text><text fill="gray" text-anchor="middle" x="101" y="629">давление на выходе 3.</text><text fill="gray" text-anchor="middle" x="101" y="642">Закрытие BV52005</text><text fill="gray" text-anchor="middle" x="103" y="683">давление на выходе 3.</text><text fill="gray" text-anchor="middle" x="103" y="696">Закрытие BV52005</text><text fill="gray" text-anchor="middle" x="700" y="690">ручной режим</text><text fill="gray" text-anchor="middle" x="226" y="818">горелка</text><path d="M16 24.5L0.25 33.5933L0.25 15.4067L16 24.5Z M16 24.5L31.75 15.4067V33.5933L16 24.5Z M26.5 10.5C26.5 4.70101 21.799 0 16 0C10.201 0 5.5 4.70101 5.5 10.5L26.5 10.5Z M17 0.047V0H16C16.3373 0 16.6709 0.015903 17 0.047ZM17 10.5H16V24.5H17V10.5Z" fill="gray" stroke="black" transform="translate(242,442)" /><path d="M16 24.5L0.25 33.5933L0.25 15.4067L16 24.5Z M16 24.5L31.75 15.4067V33.5933L16 24.5Z M26.5 10.5C26.5 4.70101 21.799 0 16 0C10.201 0 5.5 4.70101 5.5 10.5L26.5 10.5Z M17 0.047V0H16C16.3373 0 16.6709 0.015903 17 0.047ZM17 10.5H16V24.5H17V10.5Z" fill="gray" stroke="black" transform="translate(242,748)" /><path d="M16 24.5L0.25 33.5933L0.25 15.4067L16 24.5Z M16 24.5L31.75 15.4067V33.5933L16 24.5Z M26.5 10.5C26.5 4.70101 21.799 0 16 0C10.201 0 5.5 4.70101 5.5 10.5L26.5 10.5Z M17 0.047V0H16C16.3373 0 16.6709 0.015903 17 0.047ZM17 10.5H16V24.5H17V10.5Z" fill="gray" stroke="black" transform="translate(251,94)" /><path d="M16 24.5L0.25 33.5933L0.25 15.4067L16 24.5Z M16 24.5L31.75 15.4067V33.5933L16 24.5Z M26.5 10.5C26.5 4.70101 21.799 0 16 0C10.201 0 5.5 4.70101 5.5 10.5L26.5 10.5Z M17 0.047V0H16C16.3373 0 16.6709 0.015903 17 0.047ZM17 10.5H16V24.5H17V10.5Z" fill="gray" stroke="black" transform="translate(251,153)" /><path d="M16 24.5L0.25 33.5933L0.25 15.4067L16 24.5Z M16 24.5L31.75 15.4067V33.5933L16 24.5Z M26.5 10.5C26.5 4.70101 21.799 0 16 0C10.201 0 5.5 4.70101 5.5 10.5L26.5 10.5Z M17 0.047V0H16C16.3373 0 16.6709 0.015903 17 0.047ZM17 10.5H16V24.5H17V10.5Z" fill="gray" stroke="black" transform="translate(251,208)" /><path d="M16 24.5L0.25 33.5933L0.25 15.4067L16 24.5Z M16 24.5L31.75 15.4067V33.5933L16 24.5Z M26.5 10.5C26.5 4.70101 21.799 0 16 0C10.201 0 5.5 4.70101 5.5 10.5L26.5 10.5Z M17 0.047V0H16C16.3373 0 16.6709 0.015903 17 0.047ZM17 10.5H16V24.5H17V10.5Z" fill="gray" stroke="black" transform="translate(1422,340)" /><path d="M16 24.5L0.25 33.5933L0.25 15.4067L16 24.5Z M16 24.5L31.75 15.4067V33.5933L16 24.5Z M26.5 10.5C26.5 4.70101 21.799 0 16 0C10.201 0 5.5 4.70101 5.5 10.5L26.5 10.5Z M17 0.047V0H16C16.3373 0 16.6709 0.015903 17 0.047ZM17 10.5H16V24.5H17V10.5Z" fill="gray" stroke="black" transform="translate(1350,340)" /><path d="M16 24.5L0.25 33.5933L0.25 15.4067L16 24.5Z M16 24.5L31.75 15.4067V33.5933L16 24.5Z M26.5 10.5C26.5 4.70101 21.799 0 16 0C10.201 0 5.5 4.70101 5.5 10.5L26.5 10.5Z M17 0.047V0H16C16.3373 0 16.6709 0.015903 17 0.047ZM17 10.5H16V24.5H17V10.5Z" fill="gray" stroke="black" transform="translate(1415,534)" /><path d="M16 24.5L0.25 33.5933L0.25 15.4067L16 24.5Z M16 24.5L31.75 15.4067V33.5933L16 24.5Z M26.5 10.5C26.5 4.70101 21.799 0 16 0C10.201 0 5.5 4.70101 5.5 10.5L26.5 10.5Z M17 0.047V0H16C16.3373 0 16.6709 0.015903 17 0.047ZM17 10.5H16V24.5H17V10.5Z" fill="gray" stroke="black" transform="translate(1342,534)" /><path d="M16 24.5L0.25 33.5933L0.25 15.4067L16 24.5Z M16 24.5L31.75 15.4067V33.5933L16 24.5Z M26.5 10.5C26.5 4.70101 21.799 0 16 0C10.201 0 5.5 4.70101 5.5 10.5L26.5 10.5Z M17 0.047V0H16C16.3373 0 16.6709 0.015903 17 0.047ZM17 10.5H16V24.5H17V10.5Z" fill="gray" stroke="black" transform="translate(1494,588)" /><path d="M16 24.5L0.25 33.5933L0.25 15.4067L16 24.5Z M16 24.5L31.75 15.4067V33.5933L16 24.5Z M26.5 10.5C26.5 4.70101 21.799 0 16 0C10.201 0 5.5 4.70101 5.5 10.5L26.5 10.5Z M17 0.047V0H16C16.3373 0 16.6709 0.015903 17 0.047ZM17 10.5H16V24.5H17V10.5Z" fill="gray" stroke="black" transform="translate(1571,588)" /><path d="M16 24.5L0.25 33.5933L0.25 15.4067L16 24.5Z M16 24.5L31.75 15.4067V33.5933L16 24.5Z M26.5 10.5C26.5 4.70101 21.799 0 16 0C10.201 0 5.5 4.70101 5.5 10.5L26.5 10.5Z M17 0.047V0H16C16.3373 0 16.6709 0.015903 17 0.047ZM17 10.5H16V24.5H17V10.5Z" fill="gray" stroke="black" transform="translate(1481,769)" /><path d="M16 24.5L0.25 33.5933L0.25 15.4067L16 24.5Z M16 24.5L31.75 15.4067V33.5933L16 24.5Z M26.5 10.5C26.5 4.70101 21.799 0 16 0C10.201 0 5.5 4.70101 5.5 10.5L26.5 10.5Z M17 0.047V0H16C16.3373 0 16.6709 0.015903 17 0.047ZM17 10.5H16V24.5H17V10.5Z" fill="gray" stroke="black" transform="translate(1571,769)" /></svg>