<?xml version="1.0" encoding="utf-8" ?>
<svg baseProfile="tiny" height="100%" version="1.2" width="100%" xmlns="http://www.w3.org/2000/svg" xmlns:ev="http://www.w3.org/2001/xml-events" xmlns:xlink="http://www.w3.org/1999/xlink"><defs /><rect fill="#e1e1e1" height="94" stroke="black" stroke-width="1" width="299" x="0" y="569" /><rect fill="#3E5F8A" height="45" stroke="black" stroke-width="1" width="99" x="22" y="667" /><rect fill="#95ef08" height="16" stroke="black" stroke-width="1" width="116" x="321" y="91" /><rect fill="#95ef08" height="16" stroke="black" stroke-width="1" width="116" x="320" y="114" /><rect fill="#9a9a9a" height="96" stroke="black" stroke-width="1" width="99" x="1729" y="710" /><rect fill="#c6c6c6" height="88" stroke="black" stroke-width="1" width="89" x="1733" y="713" /><rect fill="#e1e1e1" height="94" stroke="black" stroke-width="1" width="299" x="0" y="470" /><rect fill="#e1e1e1" height="94" stroke="black" stroke-width="1" width="299" x="0" y="371" /><rect fill="#e1e1e1" height="94" stroke="black" stroke-width="1" width="299" x="0" y="272" /><rect fill="#e1e1e1" height="94" stroke="black" stroke-width="1" width="299" x="0" y="172" /><rect fill="#3E5F8A" height="27" stroke="black" stroke-width="1" width="93" x="1661" y="323" /><rect fill="#3E5F8A" height="27" stroke="black" stroke-width="1" width="93" x="1661" y="354" /><rect fill="#3E5F8A" height="27" stroke="black" stroke-width="1" width="93" x="1548" y="354" /><rect fill="#3E5F8A" height="27" stroke="black" stroke-width="1" width="93" x="1549" y="323" /><rect fill="#ffffff" height="21" stroke="black" stroke-width="1" width="67" x="1803" y="130" /><rect fill="#95ef08" height="16" stroke="black" stroke-width="1" width="21" x="1772" y="162" /><rect fill="#95ef08" height="16" stroke="black" stroke-width="1" width="21" x="1809" y="162" /><rect fill="#95ef08" height="16" stroke="black" stroke-width="1" width="21" x="1847" y="162" /><rect fill="#95ef08" height="16" stroke="black" stroke-width="1" width="21" x="1772" y="185" /><polygon fill="#a4c4ff" points="1805,683 1834,693 1805,704 1728,704 1728,683 1728,683" /><polygon fill="#c0c0c0" points="627,637 629,638 631,639 631,639 632,640 634,640 637,641 639,641 641,642 643,642 645,642 647,641 649,641 651,640 653,640 654,639 655,639 657,638 659,637 660,636 662,634 662,634 663,633 663,632 664,632 664,632 665,630 665,629 666,627 666,626 666,624 665,623 665,621 664,620 664,620 663,619 663,619 662,618 662,617 660,616 659,615 658,614 657,614 655,613 653,612 651,611 649,611 647,611 645,610 643,610 641,610 639,611 638,611 637,611 634,611 632,612 631,613 629,614 628,614 627,615 626,616 624,617 623,619 622,620 622,621 622,621 621,623 621,624 621,626 621,627 621,629 622,630 622,631 622,632 623,633 624,634 626,636 627,637" /><polygon fill="#c0c0c0" points="627,553 629,555 631,556 631,556 632,556 634,557 637,558 639,558 641,558 643,558 645,558 647,558 649,558 651,557 653,556 654,556 655,556 657,555 659,553 660,552 662,551 662,550 663,550 663,549 664,549 664,548 665,547 665,545 666,544 666,542 666,541 665,539 665,538 664,536 664,536 663,536 663,535 662,534 662,534 660,532 659,531 658,531 657,530 655,529 653,529 651,528 649,528 647,527 645,527 643,527 641,527 639,527 638,527 637,528 634,528 632,529 631,529 629,530 628,531 627,531 626,532 624,534 623,535 622,536 622,537 622,538 621,539 621,541 621,542 621,544 621,545 622,547 622,547 622,548 623,550 624,551 626,552 627,553" /><polygon fill="#c0c0c0" points="627,470 629,471 631,472 631,472 632,473 634,474 637,474 639,474 641,475 643,475 645,475 647,474 649,474 651,474 653,473 654,472 655,472 657,471 659,470 660,469 662,467 662,467 663,466 663,465 664,465 664,465 665,463 665,462 666,460 666,459 666,457 665,456 665,454 664,453 664,453 663,452 663,452 662,451 662,450 660,449 659,448 658,447 657,447 655,446 653,445 651,445 649,444 647,444 645,444 643,444 641,444 639,444 638,444 637,444 634,445 632,445 631,446 629,447 628,447 627,448 626,449 624,450 623,452 622,453 622,454 622,454 621,456 621,457 621,459 621,460 621,462 622,463 622,464 622,465 623,466 624,467 626,469 627,470" /><polygon fill="#c0c0c0" points="627,387 629,388 631,389 631,389 632,389 634,390 637,391 639,391 641,391 643,391 645,391 647,391 649,391 651,390 653,389 654,389 655,389 657,388 659,387 660,385 662,384 662,383 663,383 663,382 664,382 664,381 665,380 665,378 666,377 666,375 666,374 665,372 665,371 664,370 664,369 663,369 663,368 662,367 662,367 660,366 659,364 658,364 657,363 655,362 653,362 651,361 649,361 647,360 645,360 643,360 641,360 639,360 638,361 637,361 634,361 632,362 631,362 629,363 628,364 627,364 626,366 624,367 623,368 622,370 622,370 622,371 621,372 621,374 621,375 621,377 621,378 622,380 622,381 622,381 623,383 624,384 626,385 627,387" /><polygon fill="#c0c0c0" points="889,115 890,116 892,117 893,118 894,118 896,119 898,119 900,120 902,120 905,120 907,120 909,120 911,119 913,119 915,118 916,118 917,117 919,116 921,115 922,114 924,113 924,112 925,111 925,111 926,110 926,110 927,109 927,107 927,106 927,104 927,103 927,101 927,100 926,98 926,98 925,98 925,97 924,96 924,96 922,94 921,93 920,93 919,92 917,91 915,91 913,90 911,89 909,89 907,89 905,89 902,89 900,89 899,89 898,89 896,90 894,91 892,91 890,92 890,93 889,93 887,94 886,96 885,97 884,98 884,99 884,100 883,101 883,103 883,104 883,106 883,107 884,109 884,109 884,110 885,111 886,113 887,114 889,115" /><polygon fill="#7f7f7f" points="1107,701 1107,686 1149,701 1149,686 1107,701" /><polygon fill="#7f7f7f" points="1107,700 1107,687 1149,700 1149,687 1107,700" /><polygon fill="#7f7f7f" points="1107,698 1107,688 1149,698 1149,688 1107,698" /><polygon fill="#7f7f7f" points="1107,697 1107,690 1149,697 1149,690 1107,697" /><polygon fill="#7f7f7f" points="1107,696 1107,691 1149,696 1149,691 1107,696" /><polygon fill="#7f7f7f" points="1107,694 1107,693 1149,694 1149,693 1107,694" /><polygon fill="#7f7f7f" points="1107,661 1107,647 1149,661 1149,647 1107,661" /><polygon fill="#7f7f7f" points="1107,660 1107,647 1149,660 1149,647 1107,660" /><polygon fill="#7f7f7f" points="1107,659 1107,649 1149,659 1149,649 1107,659" /><polygon fill="#7f7f7f" points="1107,657 1107,650 1149,657 1149,650 1107,657" /><polygon fill="#7f7f7f" points="1107,656 1107,651 1149,656 1149,651 1107,656" /><polygon fill="#7f7f7f" points="1107,655 1107,653 1149,655 1149,653 1107,655" /><polygon fill="#7f7f7f" points="1249,701 1249,686 1291,701 1291,686 1249,701" /><polygon fill="#7f7f7f" points="1249,700 1249,687 1291,700 1291,687 1249,700" /><polygon fill="#7f7f7f" points="1249,698 1249,688 1291,698 1291,688 1249,698" /><polygon fill="#7f7f7f" points="1249,697 1249,690 1291,697 1291,690 1249,697" /><polygon fill="#7f7f7f" points="1249,696 1249,691 1291,696 1291,691 1249,696" /><polygon fill="#7f7f7f" points="1249,694 1249,693 1291,694 1291,693 1249,694" /><polygon fill="#00ffff" points="1403,443 1427,443 1415,460" /><polygon fill="#00ffff" points="1566,615 1590,615 1578,632" /><polygon fill="#a4c4ff" points="1805,631 1834,641 1805,652 1728,652 1728,631 1728,631" /><polygon fill="#000000" points="1703,695 1697,687 1701,688 1701,673 1705,673 1705,688 1709,687 1703,695" /><polygon fill="#000000" points="1703,670 1709,679 1705,678 1705,693 1701,693 1701,678 1697,679 1703,670" /><polygon fill="#000000" points="1703,640 1697,631 1701,633 1701,618 1705,618 1705,633 1709,631 1703,640" /><polygon fill="#000000" points="1703,615 1709,624 1705,623 1705,638 1701,638 1701,623 1697,624 1703,615" /><polygon fill="#a4c4ff" points="1757,578 1729,589 1757,599 1833,599 1833,578 1833,578" /><polygon fill="#a4c4ff" points="1757,552 1729,563 1757,573 1833,573 1833,552 1833,552" /><polygon fill="#000000" points="551,628 545,619 549,620 549,605 553,605 553,620 557,619 551,628" /><polygon fill="#000000" points="551,602 557,611 553,610 553,625 549,625 549,610 545,611 551,602" /><polygon fill="#000000" points="551,544 545,535 549,537 549,522 553,522 553,537 557,535 551,544" /><polygon fill="#000000" points="551,519 557,528 553,527 553,542 549,542 549,527 545,528 551,519" /><polygon fill="#000000" points="551,461 545,452 549,453 549,438 553,438 553,453 557,452 551,461" /><polygon fill="#000000" points="551,436 557,444 553,443 553,458 549,458 549,443 545,444 551,436" /><polygon fill="#000000" points="551,377 545,369 549,370 549,355 553,355 553,370 557,369 551,377" /><polygon fill="#000000" points="551,352 557,361 553,360 553,375 549,375 549,360 545,361 551,352" /><polygon fill="#000000" points="558,106 552,97 556,99 556,84 560,84 560,99 564,97 558,106" /><polygon fill="#000000" points="558,81 564,90 560,88 560,103 556,103 556,88 552,90 558,81" /><polygon fill="#000000" points="1437,587 1431,579 1435,580 1435,565 1439,565 1439,580 1443,579 1437,587" /><polygon fill="#000000" points="1437,562 1443,571 1439,570 1439,585 1435,585 1435,570 1431,571 1437,562" /><polygon fill="#000000" points="603,695 597,687 601,688 601,673 605,673 605,688 609,687 603,695" /><polygon fill="#000000" points="603,670 609,679 605,678 605,693 601,693 601,678 597,679 603,670" /><polygon fill="#000000" points="835,695 829,687 833,688 833,673 837,673 837,688 841,687 835,695" /><polygon fill="#000000" points="835,670 841,679 837,678 837,693 833,693 833,678 829,679 835,670" /><polygon fill="#000000" points="1085,681 1079,672 1083,674 1083,659 1087,659 1087,674 1091,672 1085,681" /><polygon fill="#000000" points="1085,656 1091,665 1087,664 1087,679 1083,679 1083,664 1079,665 1085,656" /><polygon fill="#000000" points="479,676 473,667 477,669 477,654 481,654 481,669 485,667 479,676" /><polygon fill="#000000" points="479,651 485,660 481,658 481,673 477,673 477,658 473,660 479,651" /><polygon fill="#000000" points="917,508 911,499 915,501 915,486 919,486 919,501 923,499 917,508" /><polygon fill="#000000" points="917,483 923,492 919,491 919,506 915,506 915,491 911,492 917,483" /><polygon fill="#000000" points="917,424 911,415 915,417 915,402 919,402 919,417 923,415 917,424" /><polygon fill="#000000" points="917,399 923,408 919,407 919,422 915,422 915,407 911,408 917,399" /><polygon fill="#000000" points="917,341 911,332 915,333 915,318 919,318 919,333 923,332 917,341" /><polygon fill="#000000" points="917,316 923,324 919,323 919,338 915,338 915,323 911,324 917,316" /><polygon fill="#000000" points="917,591 911,582 915,584 915,569 919,569 919,584 923,582 917,591" /><polygon fill="#000000" points="917,566 923,575 919,573 919,588 915,588 915,573 911,575 917,566" /><polygon fill="#000000" points="846,269 840,260 844,262 844,247 848,247 848,262 852,260 846,269" /><polygon fill="#000000" points="846,244 852,253 848,252 848,267 844,267 844,252 840,253 846,244" /><polygon fill="#000000" points="1029,628 1023,619 1027,620 1027,605 1031,605 1031,620 1035,619 1029,628" /><polygon fill="#000000" points="1029,602 1035,611 1031,610 1031,625 1027,625 1027,610 1023,611 1029,602" /><polygon fill="#000000" points="1029,544 1023,535 1027,537 1027,522 1031,522 1031,537 1035,535 1029,544" /><polygon fill="#000000" points="1029,519 1035,528 1031,527 1031,542 1027,542 1027,527 1023,528 1029,519" /><polygon fill="#000000" points="1029,461 1023,452 1027,453 1027,438 1031,438 1031,453 1035,452 1029,461" /><polygon fill="#000000" points="1029,436 1035,444 1031,443 1031,458 1027,458 1027,443 1023,444 1029,436" /><polygon fill="#000000" points="1029,377 1023,369 1027,370 1027,355 1031,355 1031,370 1035,369 1029,377" /><polygon fill="#000000" points="1029,352 1035,361 1031,360 1031,375 1027,375 1027,360 1023,361 1029,352" /><polygon fill="#000000" points="1022,106 1016,97 1020,99 1020,84 1024,84 1024,99 1028,97 1022,106" /><polygon fill="#000000" points="1022,81 1028,90 1024,88 1024,103 1020,103 1020,88 1016,90 1022,81" /><polygon fill="#000000" points="386,695 380,687 384,688 384,673 388,673 388,688 392,687 386,695" /><polygon fill="#000000" points="386,670 392,679 388,678 388,693 384,693 384,678 380,679 386,670" /><polygon fill="#000000" points="1236,669 1241,677 1238,676 1238,690 1235,690 1235,676 1231,677 1236,669" /><polygon fill="#000000" points="1236,692 1231,684 1235,685 1235,671 1238,671 1238,685 1241,684 1236,692" /><polygon fill="#000000" points="1388,695 1382,687 1386,688 1386,673 1390,673 1390,688 1394,687 1388,695" /><polygon fill="#000000" points="1388,670 1394,679 1390,678 1390,693 1386,693 1386,678 1382,679 1388,670" /><polygon fill="#9a9a9a" points="1766,780 1765,780 1764,780 1763,780 1762,780 1761,780 1760,780 1759,779 1759,779 1758,779 1757,779 1756,778 1755,778 1755,778 1754,778 1753,777 1752,777 1751,776 1750,775 1749,774 1748,772 1747,771 1746,770 1745,769 1744,767 1744,766 1743,765 1743,764 1742,762 1742,761 1742,760 1741,759 1741,758 1741,756 1742,755 1742,754 1742,753 1742,752 1743,751 1743,750 1743,749 1744,748 1744,747 1744,746 1744,745 1745,744 1745,743 1745,742 1746,741 1746,742 1747,743 1747,744 1748,745 1748,746 1749,747 1749,748 1750,749 1750,750 1751,750 1752,751 1752,752 1753,752 1753,753 1754,753 1755,753 1755,753 1756,753 1756,752 1757,752 1758,751 1758,750 1759,750 1759,749 1760,748 1761,747 1761,746 1762,745 1762,744 1763,743 1763,742 1764,741 1764,740 1764,739 1764,738 1764,737 1764,737 1764,736 1764,735 1764,734 1764,733 1765,732 1765,731 1765,730 1766,729 1766,728 1767,727 1768,726 1768,729 1768,731 1768,733 1769,735 1769,737 1769,739 1769,740 1770,741 1770,742 1771,743 1771,744 1771,744 1772,745 1772,745 1772,745 1773,744 1773,744 1774,743 1774,742 1775,740 1775,740 1776,739 1777,739 1777,740 1777,740 1777,741 1778,742 1778,743 1778,744 1778,745 1778,745 1779,746 1779,747 1779,748 1779,748 1780,749 1780,749 1780,749 1781,750 1782,749 1782,749 1783,748 1783,747 1784,747 1784,746 1784,745 1784,745 1784,744 1784,743 1784,742 1784,742 1784,741 1784,740 1784,739 1784,739 1784,738 1784,736 1784,735 1785,734 1786,733 1786,732 1787,731 1788,731 1789,730 1789,729 1790,729 1791,728 1792,727 1792,726 1792,725 1793,724 1793,723 1794,724 1796,726 1797,727 1798,728 1799,730 1800,731 1800,732 1801,734 1801,735 1801,737 1801,738 1801,739 1801,741 1800,742 1800,743 1800,744 1800,746 1800,747 1800,749 1800,750 1799,752 1799,753 1799,754 1799,755 1798,756 1798,757 1798,758 1798,759 1798,760 1799,761 1799,761 1800,762 1801,762 1802,762 1803,762 1804,761 1805,761 1806,760 1806,760 1807,759 1807,758 1808,757 1809,756 1809,755 1810,754 1811,753 1812,752 1813,751 1813,753 1814,754 1814,755 1814,756 1814,757 1814,757 1814,757 1814,758 1814,758 1814,758 1814,759 1814,759 1814,760 1813,760 1813,761 1813,762 1813,765 1812,767 1812,769 1811,771 1811,773 1810,774 1809,775 1808,776 1807,777 1806,778 1806,779 1805,779 1804,780 1803,780 1802,780 1802,780 1801,780 1800,780 1799,780 1798,780 1797,780 1796,780 1795,780 1794,780 1793,780 1792,779 1791,779 1790,779 1789,779 1788,779 1787,779 1786,779 1785,779 1783,779 1782,779 1780,779 1779,779 1778,779 1777,779 1775,779 1774,780 1773,780 1772,780 1771,780 1769,780 1768,780 1767,780 1766,780" /><polygon fill="#9a9a9a" points="1766,780 1765,780 1764,780 1763,779 1762,779 1761,779 1761,779 1760,779 1759,779 1759,778 1758,778 1757,778 1756,778 1756,777 1755,777 1754,777 1754,777 1753,776 1752,775 1751,774 1750,772 1749,771 1748,770 1747,769 1747,768 1746,767 1746,766 1745,765 1745,764 1744,763 1744,762 1744,761 1744,759 1744,759 1744,758 1744,757 1745,756 1745,755 1745,754 1745,753 1746,752 1746,751 1746,750 1746,749 1747,749 1747,748 1747,747 1747,746 1748,745 1748,746 1749,746 1749,747 1750,748 1750,749 1751,750 1751,751 1752,752 1752,752 1752,753 1753,754 1753,754 1754,755 1755,755 1755,755 1756,755 1756,755 1757,755 1757,755 1758,754 1758,754 1759,753 1759,752 1760,752 1760,751 1761,750 1761,749 1762,748 1762,747 1763,746 1763,746 1764,745 1764,744 1764,743 1764,743 1764,742 1764,741 1764,740 1764,739 1764,738 1764,738 1764,737 1765,736 1765,735 1765,734 1766,734 1767,733 1768,732 1768,734 1768,736 1768,738 1768,740 1769,741 1769,743 1770,744 1770,745 1771,746 1771,747 1772,747 1772,748 1773,748 1773,748 1773,748 1773,748 1774,747 1774,746 1775,745 1776,744 1776,744 1777,743 1777,743 1777,744 1778,744 1778,745 1778,746 1778,746 1779,747 1779,748 1779,749 1780,749 1780,750 1780,751 1781,751 1781,752 1782,752 1782,752 1783,752 1783,752 1784,752 1784,751 1785,750 1785,750 1785,749 1785,749 1785,748 1785,747 1785,747 1785,746 1785,745 1785,745 1785,744 1785,743 1785,743 1785,742 1785,741 1786,740 1786,739 1787,738 1787,737 1788,736 1789,736 1789,735 1790,734 1791,734 1791,733 1792,732 1792,732 1793,731 1793,730 1793,729 1795,730 1796,731 1797,732 1798,734 1799,735 1799,736 1800,737 1800,738 1800,740 1800,741 1800,742 1800,743 1800,744 1800,746 1799,747 1799,748 1799,749 1799,750 1799,752 1799,753 1799,754 1799,755 1799,756 1798,757 1798,758 1798,759 1798,760 1798,761 1798,761 1798,762 1799,763 1799,763 1800,763 1801,763 1802,763 1803,763 1804,762 1804,762 1805,761 1806,761 1806,760 1807,759 1807,758 1808,757 1809,756 1809,755 1810,754 1811,754 1811,755 1812,756 1812,757 1812,758 1812,759 1812,759 1812,759 1812,760 1812,760 1812,760 1812,760 1812,761 1812,761 1811,762 1811,763 1811,764 1811,766 1810,768 1810,770 1809,771 1809,773 1808,774 1807,775 1807,776 1806,777 1805,778 1804,778 1804,779 1803,779 1802,779 1802,779 1801,780 1800,780 1799,779 1798,779 1798,779 1797,779 1796,779 1795,779 1794,779 1793,779 1792,779 1792,779 1791,779 1790,779 1789,778 1788,778 1787,778 1786,778 1784,778 1783,778 1782,778 1780,778 1779,779 1777,779 1776,779 1775,779 1773,779 1772,779 1770,779 1769,779 1768,779 1767,780 1766,780" /><polygon fill="#9a9a9a" points="1753,776 1753,775 1752,774 1752,774 1752,773 1751,773 1751,772 1751,771 1750,771 1750,770 1750,769 1750,769 1750,768 1750,768 1750,767 1750,766 1750,766 1750,765 1750,764 1750,764 1749,763 1749,762 1749,761 1748,760 1748,759 1748,759 1748,758 1748,757 1748,757 1748,756 1748,756 1749,756 1750,756 1751,756 1752,757 1753,757 1754,758 1755,758 1756,758 1757,759 1758,759 1758,759 1759,758 1759,757 1760,756 1760,755 1760,754 1761,753 1761,753 1762,752 1763,751 1764,750 1765,749 1766,748 1766,748 1767,747 1768,746 1768,746 1769,747 1769,747 1769,747 1769,748 1769,749 1769,749 1770,750 1770,750 1770,751 1770,752 1771,752 1771,753 1771,754 1772,754 1773,755 1773,755 1773,755 1773,754 1773,753 1773,753 1774,752 1774,751 1774,750 1774,749 1774,748 1775,747 1775,747 1775,746 1776,746 1776,745 1777,745 1778,746 1778,747 1778,749 1778,750 1778,751 1777,753 1777,754 1776,755 1775,757 1775,758 1774,759 1774,760 1774,761 1774,762 1774,763 1775,763 1777,763 1778,763 1779,762 1779,761 1779,760 1779,759 1779,758 1779,756 1779,755 1778,754 1778,753 1778,752 1779,752 1779,752 1780,752 1782,753 1782,753 1782,753 1783,753 1783,753 1784,753 1785,753 1785,752 1786,750 1786,750 1786,749 1787,748 1787,748 1787,747 1787,747 1787,746 1787,745 1787,745 1788,744 1788,743 1788,742 1788,742 1789,741 1789,740 1789,739 1790,738 1790,738 1791,737 1792,737 1793,736 1794,735 1795,735 1795,735 1795,736 1795,736 1795,737 1796,738 1796,739 1796,739 1796,740 1797,740 1797,741 1797,741 1797,742 1798,743 1798,743 1798,744 1798,745 1798,746 1798,747 1798,747 1798,748 1798,749 1798,750 1797,751 1797,752 1796,753 1796,754 1796,756 1796,757 1796,758 1795,759 1796,760 1796,761 1796,762 1797,763 1798,763 1798,764 1799,764 1800,764 1801,765 1802,765 1803,765 1804,764 1805,764 1806,763 1807,762 1807,762 1808,761 1809,760 1810,759 1809,760 1809,761 1809,762 1809,762 1809,763 1809,764 1809,765 1809,765 1809,766 1809,767 1809,768 1809,769 1808,770 1808,771 1808,772 1807,773 1807,774 1806,775 1805,775 1804,776 1804,777 1803,777 1802,778 1801,779 1800,779 1798,779 1797,779 1796,779 1795,779 1794,778 1793,778 1792,778 1791,778 1790,778 1789,778 1788,778 1787,778 1786,778 1785,778 1784,778 1782,778 1781,778 1779,778 1778,778 1777,778 1775,778 1774,778 1773,778 1772,778 1771,778 1770,778 1769,779 1768,779 1767,779 1766,779 1765,779 1763,778 1762,778 1761,778 1759,778 1758,777 1756,777 1755,776 1753,776" /><polygon fill="#9a9a9a" points="1755,776 1754,775 1753,774 1753,773 1753,772 1753,772 1753,771 1752,770 1752,769 1752,768 1752,768 1752,767 1752,766 1751,765 1751,764 1750,763 1750,762 1750,761 1750,760 1749,759 1749,758 1750,758 1750,757 1750,757 1751,758 1752,758 1752,758 1753,759 1754,760 1755,760 1756,761 1756,761 1757,762 1757,762 1758,762 1759,763 1759,763 1760,763 1760,763 1761,763 1761,762 1761,762 1761,761 1761,761 1762,760 1762,759 1762,758 1762,757 1762,757 1762,756 1763,755 1763,755 1763,754 1764,754 1764,754 1764,753 1765,753 1765,754 1766,755 1766,756 1767,756 1767,757 1768,757 1770,757 1771,757 1772,757 1772,757 1772,757 1772,757 1773,758 1773,759 1773,759 1773,760 1772,761 1772,762 1772,762 1772,763 1772,764 1772,765 1772,765 1773,766 1773,766 1774,766 1775,766 1775,766 1776,766 1777,766 1777,766 1778,767 1779,766 1780,766 1780,766 1781,765 1781,765 1782,764 1782,764 1783,763 1782,762 1782,761 1781,760 1781,758 1780,757 1780,756 1781,756 1782,756 1783,756 1784,755 1785,754 1786,753 1787,751 1788,750 1789,749 1789,748 1790,747 1790,746 1791,745 1791,744 1792,743 1792,742 1793,742 1794,742 1794,743 1794,744 1794,745 1794,746 1794,748 1794,749 1794,751 1794,752 1793,754 1793,755 1793,757 1793,758 1793,759 1794,761 1794,762 1794,762 1794,763 1795,764 1795,764 1796,765 1796,766 1797,766 1798,766 1798,767 1799,766 1800,767 1801,767 1802,767 1803,767 1803,767 1804,766 1805,766 1805,766 1805,767 1806,768 1806,768 1806,769 1806,769 1806,770 1806,771 1806,771 1805,772 1805,773 1805,773 1804,774 1804,774 1803,775 1803,776 1802,776 1802,776 1801,776 1801,777 1800,777 1799,777 1799,778 1798,778 1797,778 1796,778 1795,778 1793,778 1792,778 1791,778 1789,778 1788,778 1787,778 1786,778 1784,777 1783,777 1782,777 1781,777 1779,777 1778,777 1777,777 1776,777 1775,778 1774,778 1773,778 1772,778 1771,778 1770,778 1769,778 1768,778 1767,778 1766,778 1765,778 1765,778 1765,778 1765,778 1763,778 1762,778 1761,778 1760,778 1758,777 1757,777 1756,777 1755,776" /><polygon fill="#9a9a9a" points="1756,772 1756,773 1756,773 1756,773 1757,774 1757,774 1757,774 1758,775 1758,776 1758,776 1758,776 1759,776 1759,776 1759,776 1760,776 1760,776 1761,776 1762,776 1764,777 1765,777 1766,777 1767,777 1768,777 1769,777 1770,777 1771,777 1772,777 1773,777 1774,777 1775,776 1775,776 1776,776 1777,776 1777,776 1778,776 1779,775 1780,775 1781,775 1782,775 1783,775 1785,776 1786,776 1787,776 1788,776 1789,776 1790,776 1791,776 1792,776 1792,776 1793,776 1794,776 1794,776 1795,776 1796,776 1796,776 1797,776 1797,776 1798,775 1798,774 1799,773 1800,773 1801,772 1801,771 1801,770 1801,770 1799,770 1799,770 1798,770 1797,770 1797,769 1796,769 1796,769 1795,769 1794,769 1793,768 1792,767 1792,766 1791,765 1791,763 1791,762 1792,760 1792,759 1792,757 1792,755 1792,754 1792,753 1792,752 1791,751 1791,750 1789,751 1789,752 1788,753 1787,754 1787,755 1786,756 1786,758 1786,759 1786,760 1785,761 1785,762 1785,763 1785,764 1784,764 1784,765 1784,765 1783,765 1782,766 1782,767 1781,767 1780,768 1780,768 1779,769 1778,769 1777,769 1776,769 1775,769 1774,768 1773,768 1772,768 1771,768 1770,767 1770,767 1770,767 1770,766 1769,765 1769,765 1769,764 1769,763 1769,762 1769,762 1769,761 1769,760 1769,760 1769,760 1768,760 1768,760 1767,760 1766,761 1766,761 1765,763 1764,764 1763,765 1762,766 1762,767 1761,767 1760,767 1759,767 1758,767 1758,767 1757,767 1757,766 1756,766 1756,766 1756,767 1756,768 1756,768 1755,769 1755,770 1755,771 1755,772 1756,772" /><polygon fill="#9a9a9a" points="1766,776 1766,776 1766,776 1767,776 1767,776 1767,776 1767,776 1768,776 1768,776 1769,776 1770,776 1772,775 1774,775 1775,774 1777,774 1778,773 1778,772 1777,772 1775,772 1774,772 1773,772 1772,771 1771,771 1770,770 1770,769 1769,769 1769,768 1768,767 1768,766 1767,766 1767,765 1766,765 1766,764 1765,765 1765,765 1765,767 1764,768 1763,769 1763,770 1762,771 1761,771 1761,772 1760,772 1760,772 1760,772 1759,772 1759,771 1758,771 1757,771 1757,772 1757,773 1758,773 1758,774 1759,774 1759,775 1760,775 1760,776 1761,776 1762,776 1762,776 1763,776 1764,776 1764,776 1765,776 1766,776" /><polygon fill="#9a9a9a" points="1786,775 1785,774 1784,774 1784,774 1783,774 1782,774 1782,774 1782,773 1782,772 1782,772 1783,772 1783,771 1784,770 1784,770 1785,768 1785,767 1786,766 1786,765 1787,764 1787,762 1788,761 1788,760 1789,759 1789,758 1789,758 1789,758 1789,758 1790,759 1790,760 1790,761 1790,762 1790,763 1789,764 1789,766 1790,767 1790,768 1790,769 1790,770 1790,771 1790,771 1791,771 1791,772 1792,772 1793,772 1793,772 1794,772 1795,772 1797,772 1798,771 1798,773 1797,773 1797,774 1796,774 1795,774 1795,774 1794,774 1794,775 1793,775 1792,775 1791,775 1790,775 1789,775 1788,775 1787,775 1786,775" /><polygon fill="#ff0000" points="1766,780 1765,780 1764,780 1763,780 1762,780 1761,780 1760,780 1759,779 1759,779 1758,779 1757,779 1756,778 1755,778 1755,778 1754,778 1753,777 1752,777 1751,776 1750,775 1749,774 1748,772 1747,771 1746,770 1745,769 1744,767 1744,766 1743,765 1743,764 1742,762 1742,761 1742,760 1741,759 1741,758 1741,756 1742,755 1742,754 1742,753 1742,752 1743,751 1743,750 1743,749 1744,748 1744,747 1744,746 1744,745 1745,744 1745,743 1745,742 1746,741 1746,742 1747,743 1747,744 1748,745 1748,746 1749,747 1749,748 1750,749 1750,750 1751,750 1752,751 1752,752 1753,752 1753,753 1754,753 1755,753 1755,753 1756,753 1756,752 1757,752 1758,751 1758,750 1759,750 1759,749 1760,748 1761,747 1761,746 1762,745 1762,744 1763,743 1763,742 1764,741 1764,740 1764,739 1764,738 1764,737 1764,737 1764,736 1764,735 1764,734 1764,733 1765,732 1765,731 1765,730 1766,729 1766,728 1767,727 1768,726 1768,729 1768,731 1768,733 1769,735 1769,737 1769,739 1769,740 1770,741 1770,742 1771,743 1771,744 1771,744 1772,745 1772,745 1772,745 1773,744 1773,744 1774,743 1774,742 1775,740 1775,740 1776,739 1777,739 1777,740 1777,740 1777,741 1778,742 1778,743 1778,744 1778,745 1778,745 1779,746 1779,747 1779,748 1779,748 1780,749 1780,749 1780,749 1781,750 1782,749 1782,749 1783,748 1783,747 1784,747 1784,746 1784,745 1784,745 1784,744 1784,743 1784,742 1784,742 1784,741 1784,740 1784,739 1784,739 1784,738 1784,736 1784,735 1785,734 1786,733 1786,732 1787,731 1788,731 1789,730 1789,729 1790,729 1791,728 1792,727 1792,726 1792,725 1793,724 1793,723 1794,724 1796,726 1797,727 1798,728 1799,730 1800,731 1800,732 1801,734 1801,735 1801,737 1801,738 1801,739 1801,741 1800,742 1800,743 1800,744 1800,746 1800,747 1800,749 1800,750 1799,752 1799,753 1799,754 1799,755 1798,756 1798,757 1798,758 1798,759 1798,760 1799,761 1799,761 1800,762 1801,762 1802,762 1803,762 1804,761 1805,761 1806,760 1806,760 1807,759 1807,758 1808,757 1809,756 1809,755 1810,754 1811,753 1812,752 1813,751 1813,753 1814,754 1814,755 1814,756 1814,757 1814,757 1814,757 1814,758 1814,758 1814,758 1814,759 1814,759 1814,760 1813,760 1813,761 1813,762 1813,765 1812,767 1812,769 1811,771 1811,773 1810,774 1809,775 1808,776 1807,777 1806,778 1806,779 1805,779 1804,780 1803,780 1802,780 1802,780 1801,780 1800,780 1799,780 1798,780 1797,780 1796,780 1795,780 1794,780 1793,780 1792,779 1791,779 1790,779 1789,779 1788,779 1787,779 1786,779 1785,779 1783,779 1782,779 1780,779 1779,779 1778,779 1777,779 1775,779 1774,780 1773,780 1772,780 1771,780 1769,780 1768,780 1767,780 1766,780" /><polygon fill="#cc3300" points="1766,780 1765,780 1764,780 1763,779 1762,779 1761,779 1761,779 1760,779 1759,779 1759,778 1758,778 1757,778 1756,778 1756,777 1755,777 1754,777 1754,777 1753,776 1752,775 1751,774 1750,772 1749,771 1748,770 1747,769 1747,768 1746,767 1746,766 1745,765 1745,764 1744,763 1744,762 1744,761 1744,759 1744,759 1744,758 1744,757 1745,756 1745,755 1745,754 1745,753 1746,752 1746,751 1746,750 1746,749 1747,749 1747,748 1747,747 1747,746 1748,745 1748,746 1749,746 1749,747 1750,748 1750,749 1751,750 1751,751 1752,752 1752,752 1752,753 1753,754 1753,754 1754,755 1755,755 1755,755 1756,755 1756,755 1757,755 1757,755 1758,754 1758,754 1759,753 1759,752 1760,752 1760,751 1761,750 1761,749 1762,748 1762,747 1763,746 1763,746 1764,745 1764,744 1764,743 1764,743 1764,742 1764,741 1764,740 1764,739 1764,738 1764,738 1764,737 1765,736 1765,735 1765,734 1766,734 1767,733 1768,732 1768,734 1768,736 1768,738 1768,740 1769,741 1769,743 1770,744 1770,745 1771,746 1771,747 1772,747 1772,748 1773,748 1773,748 1773,748 1773,748 1774,747 1774,746 1775,745 1776,744 1776,744 1777,743 1777,743 1777,744 1778,744 1778,745 1778,746 1778,746 1779,747 1779,748 1779,749 1780,749 1780,750 1780,751 1781,751 1781,752 1782,752 1782,752 1783,752 1783,752 1784,752 1784,751 1785,750 1785,750 1785,749 1785,749 1785,748 1785,747 1785,747 1785,746 1785,745 1785,745 1785,744 1785,743 1785,743 1785,742 1785,741 1786,740 1786,739 1787,738 1787,737 1788,736 1789,736 1789,735 1790,734 1791,734 1791,733 1792,732 1792,732 1793,731 1793,730 1793,729 1795,730 1796,731 1797,732 1798,734 1799,735 1799,736 1800,737 1800,738 1800,740 1800,741 1800,742 1800,743 1800,744 1800,746 1799,747 1799,748 1799,749 1799,750 1799,752 1799,753 1799,754 1799,755 1799,756 1798,757 1798,758 1798,759 1798,760 1798,761 1798,761 1798,762 1799,763 1799,763 1800,763 1801,763 1802,763 1803,763 1804,762 1804,762 1805,761 1806,761 1806,760 1807,759 1807,758 1808,757 1809,756 1809,755 1810,754 1811,754 1811,755 1812,756 1812,757 1812,758 1812,759 1812,759 1812,759 1812,760 1812,760 1812,760 1812,760 1812,761 1812,761 1811,762 1811,763 1811,764 1811,766 1810,768 1810,770 1809,771 1809,773 1808,774 1807,775 1807,776 1806,777 1805,778 1804,778 1804,779 1803,779 1802,779 1802,779 1801,780 1800,780 1799,779 1798,779 1798,779 1797,779 1796,779 1795,779 1794,779 1793,779 1792,779 1792,779 1791,779 1790,779 1789,778 1788,778 1787,778 1786,778 1784,778 1783,778 1782,778 1780,778 1779,779 1777,779 1776,779 1775,779 1773,779 1772,779 1770,779 1769,779 1768,779 1767,780 1766,780" /><polygon fill="#ff6600" points="1753,776 1753,775 1752,774 1752,774 1752,773 1751,773 1751,772 1751,771 1750,771 1750,770 1750,769 1750,769 1750,768 1750,768 1750,767 1750,766 1750,766 1750,765 1750,764 1750,764 1749,763 1749,762 1749,761 1748,760 1748,759 1748,759 1748,758 1748,757 1748,757 1748,756 1748,756 1749,756 1750,756 1751,756 1752,757 1753,757 1754,758 1755,758 1756,758 1757,759 1758,759 1758,759 1759,758 1759,757 1760,756 1760,755 1760,754 1761,753 1761,753 1762,752 1763,751 1764,750 1765,749 1766,748 1766,748 1767,747 1768,746 1768,746 1769,747 1769,747 1769,747 1769,748 1769,749 1769,749 1770,750 1770,750 1770,751 1770,752 1771,752 1771,753 1771,754 1772,754 1773,755 1773,755 1773,755 1773,754 1773,753 1773,753 1774,752 1774,751 1774,750 1774,749 1774,748 1775,747 1775,747 1775,746 1776,746 1776,745 1777,745 1778,746 1778,747 1778,749 1778,750 1778,751 1777,753 1777,754 1776,755 1775,757 1775,758 1774,759 1774,760 1774,761 1774,762 1774,763 1775,763 1777,763 1778,763 1779,762 1779,761 1779,760 1779,759 1779,758 1779,756 1779,755 1778,754 1778,753 1778,752 1779,752 1779,752 1780,752 1782,753 1782,753 1782,753 1783,753 1783,753 1784,753 1785,753 1785,752 1786,750 1786,750 1786,749 1787,748 1787,748 1787,747 1787,747 1787,746 1787,745 1787,745 1788,744 1788,743 1788,742 1788,742 1789,741 1789,740 1789,739 1790,738 1790,738 1791,737 1792,737 1793,736 1794,735 1795,735 1795,735 1795,736 1795,736 1795,737 1796,738 1796,739 1796,739 1796,740 1797,740 1797,741 1797,741 1797,742 1798,743 1798,743 1798,744 1798,745 1798,746 1798,747 1798,747 1798,748 1798,749 1798,750 1797,751 1797,752 1796,753 1796,754 1796,756 1796,757 1796,758 1795,759 1796,760 1796,761 1796,762 1797,763 1798,763 1798,764 1799,764 1800,764 1801,765 1802,765 1803,765 1804,764 1805,764 1806,763 1807,762 1807,762 1808,761 1809,760 1810,759 1809,760 1809,761 1809,762 1809,762 1809,763 1809,764 1809,765 1809,765 1809,766 1809,767 1809,768 1809,769 1808,770 1808,771 1808,772 1807,773 1807,774 1806,775 1805,775 1804,776 1804,777 1803,777 1802,778 1801,779 1800,779 1798,779 1797,779 1796,779 1795,779 1794,778 1793,778 1792,778 1791,778 1790,778 1789,778 1788,778 1787,778 1786,778 1785,778 1784,778 1782,778 1781,778 1779,778 1778,778 1777,778 1775,778 1774,778 1773,778 1772,778 1771,778 1770,778 1769,779 1768,779 1767,779 1766,779 1765,779 1763,778 1762,778 1761,778 1759,778 1758,777 1756,777 1755,776 1753,776" /><polygon fill="#ffcc00" points="1755,776 1754,775 1753,774 1753,773 1753,772 1753,772 1753,771 1752,770 1752,769 1752,768 1752,768 1752,767 1752,766 1751,765 1751,764 1750,763 1750,762 1750,761 1750,760 1749,759 1749,758 1750,758 1750,757 1750,757 1751,758 1752,758 1752,758 1753,759 1754,760 1755,760 1756,761 1756,761 1757,762 1757,762 1758,762 1759,763 1759,763 1760,763 1760,763 1761,763 1761,762 1761,762 1761,761 1761,761 1762,760 1762,759 1762,758 1762,757 1762,757 1762,756 1763,755 1763,755 1763,754 1764,754 1764,754 1764,753 1765,753 1765,754 1766,755 1766,756 1767,756 1767,757 1768,757 1770,757 1771,757 1772,757 1772,757 1772,757 1772,757 1773,758 1773,759 1773,759 1773,760 1772,761 1772,762 1772,762 1772,763 1772,764 1772,765 1772,765 1773,766 1773,766 1774,766 1775,766 1775,766 1776,766 1777,766 1777,766 1778,767 1779,766 1780,766 1780,766 1781,765 1781,765 1782,764 1782,764 1783,763 1782,762 1782,761 1781,760 1781,758 1780,757 1780,756 1781,756 1782,756 1783,756 1784,755 1785,754 1786,753 1787,751 1788,750 1789,749 1789,748 1790,747 1790,746 1791,745 1791,744 1792,743 1792,742 1793,742 1794,742 1794,743 1794,744 1794,745 1794,746 1794,748 1794,749 1794,751 1794,752 1793,754 1793,755 1793,757 1793,758 1793,759 1794,761 1794,762 1794,762 1794,763 1795,764 1795,764 1796,765 1796,766 1797,766 1798,766 1798,767 1799,766 1800,767 1801,767 1802,767 1803,767 1803,767 1804,766 1805,766 1805,766 1805,767 1806,768 1806,768 1806,769 1806,769 1806,770 1806,771 1806,771 1805,772 1805,773 1805,773 1804,774 1804,774 1803,775 1803,776 1802,776 1802,776 1801,776 1801,777 1800,777 1799,777 1799,778 1798,778 1797,778 1796,778 1795,778 1793,778 1792,778 1791,778 1789,778 1788,778 1787,778 1786,778 1784,777 1783,777 1782,777 1781,777 1779,777 1778,777 1777,777 1776,777 1775,778 1774,778 1773,778 1772,778 1771,778 1770,778 1769,778 1768,778 1767,778 1766,778 1765,778 1765,778 1765,778 1765,778 1763,778 1762,778 1761,778 1760,778 1758,777 1757,777 1756,777 1755,776" /><polygon fill="#ffff00" points="1756,772 1756,773 1756,773 1756,773 1757,774 1757,774 1757,774 1758,775 1758,776 1758,776 1758,776 1759,776 1759,776 1759,776 1760,776 1760,776 1761,776 1762,776 1764,777 1765,777 1766,777 1767,777 1768,777 1769,777 1770,777 1771,777 1772,777 1773,777 1774,777 1775,776 1775,776 1776,776 1777,776 1777,776 1778,776 1779,775 1780,775 1781,775 1782,775 1783,775 1785,776 1786,776 1787,776 1788,776 1789,776 1790,776 1791,776 1792,776 1792,776 1793,776 1794,776 1794,776 1795,776 1796,776 1796,776 1797,776 1797,776 1798,775 1798,774 1799,773 1800,773 1801,772 1801,771 1801,770 1801,770 1799,770 1799,770 1798,770 1797,770 1797,769 1796,769 1796,769 1795,769 1794,769 1793,768 1792,767 1792,766 1791,765 1791,763 1791,762 1792,760 1792,759 1792,757 1792,755 1792,754 1792,753 1792,752 1791,751 1791,750 1789,751 1789,752 1788,753 1787,754 1787,755 1786,756 1786,758 1786,759 1786,760 1785,761 1785,762 1785,763 1785,764 1784,764 1784,765 1784,765 1783,765 1782,766 1782,767 1781,767 1780,768 1780,768 1779,769 1778,769 1777,769 1776,769 1775,769 1774,768 1773,768 1772,768 1771,768 1770,767 1770,767 1770,767 1770,766 1769,765 1769,765 1769,764 1769,763 1769,762 1769,762 1769,761 1769,760 1769,760 1769,760 1768,760 1768,760 1767,760 1766,761 1766,761 1765,763 1764,764 1763,765 1762,766 1762,767 1761,767 1760,767 1759,767 1758,767 1758,767 1757,767 1757,766 1756,766 1756,766 1756,767 1756,768 1756,768 1755,769 1755,770 1755,771 1755,772 1756,772" /><polygon fill="#ffff66" points="1766,776 1766,776 1766,776 1767,776 1767,776 1767,776 1767,776 1768,776 1768,776 1769,776 1770,776 1772,775 1774,775 1775,774 1777,774 1778,773 1778,772 1777,772 1775,772 1774,772 1773,772 1772,771 1771,771 1770,770 1770,769 1769,769 1769,768 1768,767 1768,766 1767,766 1767,765 1766,765 1766,764 1765,765 1765,765 1765,767 1764,768 1763,769 1763,770 1762,771 1761,771 1761,772 1760,772 1760,772 1760,772 1759,772 1759,771 1758,771 1757,771 1757,772 1757,773 1758,773 1758,774 1759,774 1759,775 1760,775 1760,776 1761,776 1762,776 1762,776 1763,776 1764,776 1764,776 1765,776 1766,776" /><polygon fill="#ffff66" points="1786,775 1785,774 1784,774 1784,774 1783,774 1782,774 1782,774 1782,773 1782,772 1782,772 1783,772 1783,771 1784,770 1784,770 1785,768 1785,767 1786,766 1786,765 1787,764 1787,762 1788,761 1788,760 1789,759 1789,758 1789,758 1789,758 1789,758 1790,759 1790,760 1790,761 1790,762 1790,763 1789,764 1789,766 1790,767 1790,768 1790,769 1790,770 1790,771 1790,771 1791,771 1791,772 1792,772 1793,772 1793,772 1794,772 1795,772 1797,772 1798,771 1798,773 1797,773 1797,774 1796,774 1795,774 1795,774 1794,774 1794,775 1793,775 1792,775 1791,775 1790,775 1789,775 1788,775 1787,775 1786,775" /><line stroke="#006666" stroke-dasharray="0 0" stroke-width="2" x1="1728" x2="1602.0" y1="640" y2="640.0" /><line stroke="#006666" stroke-dasharray="0 0" stroke-width="2" x1="1100" x2="1302" y1="652" y2="652" /><line stroke="#006666" stroke-dasharray="0 0" stroke-width="2" x1="1070" x2="1070" y1="694" y2="104" /><line stroke="#006666" stroke-dasharray="0 0" stroke-width="2" x1="60" x2="1780" y1="694" y2="694" /><line stroke="#006666" stroke-dasharray="0 0" stroke-width="2" x1="830" x2="830" y1="589" y2="553" /><line stroke="#006666" stroke-dasharray="0 0" stroke-width="2" x1="830" x2="943" y1="589" y2="589" /><line stroke="#006666" stroke-dasharray="0 0" stroke-width="2" x1="943" x2="943" y1="627" y2="589" /><line stroke="#006666" stroke-dasharray="0 0" stroke-width="2" x1="456" x2="1062" y1="626" y2="626" /><line stroke="#006666" stroke-dasharray="0 0" stroke-width="2" x1="456" x2="456" y1="694" y2="104" /><line stroke="#006666" stroke-dasharray="0 0" stroke-width="2" x1="456" x2="1062" y1="542" y2="542" /><line stroke="#006666" stroke-dasharray="0 0" stroke-width="2" x1="456" x2="1062" y1="459" y2="459" /><line stroke="#006666" stroke-dasharray="0 0" stroke-width="2" x1="456" x2="1062" y1="376" y2="376" /><line stroke="#006666" stroke-dasharray="0 0" stroke-width="2" x1="830" x2="830" y1="449" y2="386" /><line stroke="#006666" stroke-dasharray="0 0" stroke-width="2" x1="830" x2="830" y1="366" y2="303" /><line stroke="#006666" stroke-dasharray="0 0" stroke-width="2" x1="830" x2="830" y1="303" y2="104" /><line stroke="#006666" stroke-dasharray="0 0" stroke-width="2" x1="830" x2="943" y1="506" y2="506" /><line stroke="#006666" stroke-dasharray="0 0" stroke-width="2" x1="943" x2="943" y1="544" y2="506" /><line stroke="#006666" stroke-dasharray="0 0" stroke-width="2" x1="830" x2="943" y1="422" y2="422" /><line stroke="#006666" stroke-dasharray="0 0" stroke-width="2" x1="943" x2="943" y1="460" y2="422" /><line stroke="#006666" stroke-dasharray="0 0" stroke-width="2" x1="830" x2="943" y1="339" y2="339" /><line stroke="#006666" stroke-dasharray="0 0" stroke-width="2" x1="943" x2="943" y1="377" y2="339" /><line stroke="#006666" stroke-dasharray="0 0" stroke-width="2" x1="830" x2="830" y1="532" y2="469" /><line stroke="#006666" stroke-dasharray="0 0" stroke-width="2" x1="456" x2="1062" y1="104" y2="104" /><line stroke="#006666" stroke-dasharray="0 0" stroke-width="2" x1="1415" x2="1415" y1="41" y2="693" /><line stroke="#006666" stroke-dasharray="0 0" stroke-width="2" x1="1100" x2="1100" y1="652" y2="693" /><line stroke="#006666" stroke-dasharray="0 0" stroke-width="2" x1="1415" x2="307.0" y1="41" y2="41.0" /><line stroke="#006666" stroke-dasharray="0 0" stroke-width="2" x1="1302" x2="1302" y1="652" y2="693" /><line stroke="#006666" stroke-dasharray="0 0" stroke-width="2" x1="307" x2="307" y1="41" y2="693" /><line stroke="#006666" stroke-dasharray="0 0" stroke-width="2" x1="1602" x2="1602" y1="640" y2="693" /><line stroke="#006666" stroke-dasharray="0 0" stroke-width="2" x1="1578" x2="1578" y1="589" y2="693" /><line stroke="#006666" stroke-dasharray="0 0" stroke-width="2" x1="1732" x2="1578.0" y1="589" y2="589.0" /><line stroke="#008000" stroke-dasharray="0 0" stroke-width="2" x1="1541" x2="1541" y1="563" y2="694" /><line stroke="#008000" stroke-dasharray="0 0" stroke-width="2" x1="1732" x2="1541.0" y1="563" y2="564.0106" /><text fill="gray" text-anchor="middle" x="1" y="746">Var
				</text><text fill="gray" text-anchor="middle" x="15" y="584">Линия 1. Расход воды, м3
			</text><text fill="gray" text-anchor="middle" x="7" y="596">За 2 часа
			</text><text fill="gray" text-anchor="middle" x="7" y="612">За предыдущие 2 часа
			</text><text fill="gray" text-anchor="middle" x="7" y="627">За текущие сутки
			</text><text fill="gray" text-anchor="middle" x="7" y="643">За предыдущие сутки
			</text><text fill="gray" text-anchor="middle" x="7" y="659">Накопительный
			</text><text fill="gray" text-anchor="middle" x="385" y="70">Контрольная
			</text><text fill="gray" text-anchor="middle" x="667" y="33"> Блок замера воды. УУВ-1
			</text><text fill="gray" text-anchor="middle" x="69" y="694"> Цех 1/2
			</text><text fill="gray" text-anchor="middle" x="404" y="623">Линия 1
			</text><text fill="gray" text-anchor="middle" x="404" y="539">Линия 2
			</text><text fill="gray" text-anchor="middle" x="404" y="456">Линия 3
			</text><text fill="gray" text-anchor="middle" x="404" y="372">Линия 4
			</text><text fill="gray" text-anchor="middle" x="370" y="85">линия
			</text><text fill="gray" text-anchor="middle" x="1731" y="648"> Р8 , Р9
			</text><text fill="gray" text-anchor="middle" x="1765" y="701">Р4 - Р7
			</text><text fill="gray" text-anchor="middle" x="1790" y="594">ЕШ4
			</text><text fill="gray" text-anchor="middle" x="1790" y="569">УУВ1
			</text><text fill="gray" text-anchor="middle" x="379" y="104">В учете
				</text><text fill="gray" text-anchor="middle" x="378" y="127">Не в учете
				</text><text fill="gray" text-anchor="middle" x="1214" y="714">%
					</text><text fill="gray" text-anchor="middle" x="1778" y="798">Блокирован
					</text><text fill="gray" text-anchor="middle" x="1779" y="798">В работе
					</text><text fill="gray" text-anchor="middle" x="1779" y="726">Сброс
					</text><text fill="gray" text-anchor="middle" x="15" y="485">Линия 2. Расход воды, м3
			</text><text fill="gray" text-anchor="middle" x="7" y="497">За 2 часа
			</text><text fill="gray" text-anchor="middle" x="7" y="512">За предыдущие 2 часа
			</text><text fill="gray" text-anchor="middle" x="7" y="528">За текущие сутки
			</text><text fill="gray" text-anchor="middle" x="7" y="544">За предыдущие сутки
			</text><text fill="gray" text-anchor="middle" x="7" y="560">Накопительный
			</text><text fill="gray" text-anchor="middle" x="15" y="386">Линия 3. Расход воды, м3
			</text><text fill="gray" text-anchor="middle" x="7" y="398">За 2 часа
			</text><text fill="gray" text-anchor="middle" x="7" y="413">За предыдущие 2 часа
			</text><text fill="gray" text-anchor="middle" x="7" y="429">За текущие сутки
			</text><text fill="gray" text-anchor="middle" x="7" y="445">За предыдущие сутки
			</text><text fill="gray" text-anchor="middle" x="7" y="461">Накопительный
			</text><text fill="gray" text-anchor="middle" x="15" y="287">Линия 4. Расход воды, м3
			</text><text fill="gray" text-anchor="middle" x="7" y="298">За 2 часа
			</text><text fill="gray" text-anchor="middle" x="7" y="314">За предыдущие 2 часа
			</text><text fill="gray" text-anchor="middle" x="7" y="330">За текущие сутки
			</text><text fill="gray" text-anchor="middle" x="7" y="346">За предыдущие сутки
			</text><text fill="gray" text-anchor="middle" x="7" y="362">Накопительный
			</text><text fill="gray" text-anchor="middle" x="15" y="187">КРЛ. Расход воды, м3
			</text><text fill="gray" text-anchor="middle" x="7" y="199">За 2 часа
			</text><text fill="gray" text-anchor="middle" x="7" y="215">За предыдущие 2 часа
			</text><text fill="gray" text-anchor="middle" x="7" y="231">За текущие сутки
			</text><text fill="gray" text-anchor="middle" x="7" y="247">За предыдущие сутки
			</text><text fill="gray" text-anchor="middle" x="7" y="263">Накопительный
			</text><text fill="gray" text-anchor="middle" x="1663" y="315">Журнал КМХ
			</text><text fill="gray" text-anchor="middle" x="1704" y="341">Линия 3
			</text><text fill="gray" text-anchor="middle" x="1704" y="372">Линия 4
			</text><text fill="gray" text-anchor="middle" x="1592" y="372">Линия 2
			</text><text fill="gray" text-anchor="middle" x="1592" y="341">Линия 1
			</text><text fill="gray" text-anchor="middle" x="1491" y="88">Старт
				</text><text fill="gray" text-anchor="middle" x="1523" y="146">Время замера, сек
			</text><text fill="gray" text-anchor="middle" x="1575" y="246">Объем контрольной линии,м3
			</text><text fill="gray" text-anchor="middle" x="1551" y="266">Объем рабочей линии,м3
			</text><text fill="gray" text-anchor="middle" x="1587" y="288">Погрешность,%
			</text><text fill="gray" text-anchor="middle" x="1645" y="120">Идет замер
			</text><text fill="gray" text-anchor="middle" x="1491" y="115">Сброс
				</text><text fill="gray" text-anchor="middle" x="1781" y="175">1
				</text><text fill="gray" text-anchor="middle" x="1434" y="172">Линия на КМХ
			</text><text fill="gray" text-anchor="middle" x="1818" y="175">2
				</text><text fill="gray" text-anchor="middle" x="1856" y="175">3
				</text><text fill="gray" text-anchor="middle" x="1781" y="198">4
				</text><text fill="gray" text-anchor="middle" x="1433" y="223">Процесс КМХ, сек
			</text><path d="M16 24.5L0.25 33.5933L0.25 15.4067L16 24.5Z M16 24.5L31.75 15.4067V33.5933L16 24.5Z M26.5 10.5C26.5 4.70101 21.799 0 16 0C10.201 0 5.5 4.70101 5.5 10.5L26.5 10.5Z M17 0.047V0H16C16.3373 0 16.6709 0.015903 17 0.047ZM17 10.5H16V24.5H17V10.5Z" fill="gray" stroke="black" transform="translate(1623,669)" /><path d="M16 24.5L0.25 33.5933L0.25 15.4067L16 24.5Z M16 24.5L31.75 15.4067V33.5933L16 24.5Z M26.5 10.5C26.5 4.70101 21.799 0 16 0C10.201 0 5.5 4.70101 5.5 10.5L26.5 10.5Z M17 0.047V0H16C16.3373 0 16.6709 0.015903 17 0.047ZM17 10.5H16V24.5H17V10.5Z" fill="gray" stroke="black" transform="translate(1623,601)" /><path d="M16 24.5L0.25 33.5933L0.25 15.4067L16 24.5Z M16 24.5L31.75 15.4067V33.5933L16 24.5Z M26.5 10.5C26.5 4.70101 21.799 0 16 0C10.201 0 5.5 4.70101 5.5 10.5L26.5 10.5Z M17 0.047V0H16C16.3373 0 16.6709 0.015903 17 0.047ZM17 10.5H16V24.5H17V10.5Z" fill="gray" stroke="black" transform="translate(471,601)" /><path d="M16 24.5L0.25 33.5933L0.25 15.4067L16 24.5Z M16 24.5L31.75 15.4067V33.5933L16 24.5Z M26.5 10.5C26.5 4.70101 21.799 0 16 0C10.201 0 5.5 4.70101 5.5 10.5L26.5 10.5Z M17 0.047V0H16C16.3373 0 16.6709 0.015903 17 0.047ZM17 10.5H16V24.5H17V10.5Z" fill="gray" stroke="black" transform="translate(471,517)" /><path d="M16 24.5L0.25 33.5933L0.25 15.4067L16 24.5Z M16 24.5L31.75 15.4067V33.5933L16 24.5Z M26.5 10.5C26.5 4.70101 21.799 0 16 0C10.201 0 5.5 4.70101 5.5 10.5L26.5 10.5Z M17 0.047V0H16C16.3373 0 16.6709 0.015903 17 0.047ZM17 10.5H16V24.5H17V10.5Z" fill="gray" stroke="black" transform="translate(471,434)" /><path d="M16 24.5L0.25 33.5933L0.25 15.4067L16 24.5Z M16 24.5L31.75 15.4067V33.5933L16 24.5Z M26.5 10.5C26.5 4.70101 21.799 0 16 0C10.201 0 5.5 4.70101 5.5 10.5L26.5 10.5Z M17 0.047V0H16C16.3373 0 16.6709 0.015903 17 0.047ZM17 10.5H16V24.5H17V10.5Z" fill="gray" stroke="black" transform="translate(471,351)" /><path d="M16 24.5L0.25 33.5933L0.25 15.4067L16 24.5Z M16 24.5L31.75 15.4067V33.5933L16 24.5Z M26.5 10.5C26.5 4.70101 21.799 0 16 0C10.201 0 5.5 4.70101 5.5 10.5L26.5 10.5Z M17 0.047V0H16C16.3373 0 16.6709 0.015903 17 0.047ZM17 10.5H16V24.5H17V10.5Z" fill="gray" stroke="black" transform="translate(478,79)" /><path d="M16 24.5L0.25 33.5933L0.25 15.4067L16 24.5Z M16 24.5L31.75 15.4067V33.5933L16 24.5Z M26.5 10.5C26.5 4.70101 21.799 0 16 0C10.201 0 5.5 4.70101 5.5 10.5L26.5 10.5Z M17 0.047V0H16C16.3373 0 16.6709 0.015903 17 0.047ZM17 10.5H16V24.5H17V10.5Z" fill="gray" stroke="black" transform="translate(523,669)" /><path d="M16 24.5L0.25 33.5933L0.25 15.4067L16 24.5Z M16 24.5L31.75 15.4067V33.5933L16 24.5Z M26.5 10.5C26.5 4.70101 21.799 0 16 0C10.201 0 5.5 4.70101 5.5 10.5L26.5 10.5Z M17 0.047V0H16C16.3373 0 16.6709 0.015903 17 0.047ZM17 10.5H16V24.5H17V10.5Z" fill="gray" stroke="black" transform="translate(755,669)" /><path d="M16 24.5L0.25 33.5933L0.25 15.4067L16 24.5Z M16 24.5L31.75 15.4067V33.5933L16 24.5Z M26.5 10.5C26.5 4.70101 21.799 0 16 0C10.201 0 5.5 4.70101 5.5 10.5L26.5 10.5Z M17 0.047V0H16C16.3373 0 16.6709 0.015903 17 0.047ZM17 10.5H16V24.5H17V10.5Z" fill="gray" stroke="black" transform="translate(838,481)" /><path d="M16 24.5L0.25 33.5933L0.25 15.4067L16 24.5Z M16 24.5L31.75 15.4067V33.5933L16 24.5Z M26.5 10.5C26.5 4.70101 21.799 0 16 0C10.201 0 5.5 4.70101 5.5 10.5L26.5 10.5Z M17 0.047V0H16C16.3373 0 16.6709 0.015903 17 0.047ZM17 10.5H16V24.5H17V10.5Z" fill="gray" stroke="black" transform="translate(838,397)" /><path d="M16 24.5L0.25 33.5933L0.25 15.4067L16 24.5Z M16 24.5L31.75 15.4067V33.5933L16 24.5Z M26.5 10.5C26.5 4.70101 21.799 0 16 0C10.201 0 5.5 4.70101 5.5 10.5L26.5 10.5Z M17 0.047V0H16C16.3373 0 16.6709 0.015903 17 0.047ZM17 10.5H16V24.5H17V10.5Z" fill="gray" stroke="black" transform="translate(838,314)" /><path d="M16 24.5L0.25 33.5933L0.25 15.4067L16 24.5Z M16 24.5L31.75 15.4067V33.5933L16 24.5Z M26.5 10.5C26.5 4.70101 21.799 0 16 0C10.201 0 5.5 4.70101 5.5 10.5L26.5 10.5Z M17 0.047V0H16C16.3373 0 16.6709 0.015903 17 0.047ZM17 10.5H16V24.5H17V10.5Z" fill="gray" stroke="black" transform="translate(838,564)" /><path d="M16 24.5L0.25 33.5933L0.25 15.4067L16 24.5Z M16 24.5L31.75 15.4067V33.5933L16 24.5Z M26.5 10.5C26.5 4.70101 21.799 0 16 0C10.201 0 5.5 4.70101 5.5 10.5L26.5 10.5Z M17 0.047V0H16C16.3373 0 16.6709 0.015903 17 0.047ZM17 10.5H16V24.5H17V10.5Z" fill="gray" stroke="black" transform="translate(950,601)" /><path d="M16 24.5L0.25 33.5933L0.25 15.4067L16 24.5Z M16 24.5L31.75 15.4067V33.5933L16 24.5Z M26.5 10.5C26.5 4.70101 21.799 0 16 0C10.201 0 5.5 4.70101 5.5 10.5L26.5 10.5Z M17 0.047V0H16C16.3373 0 16.6709 0.015903 17 0.047ZM17 10.5H16V24.5H17V10.5Z" fill="gray" stroke="black" transform="translate(950,517)" /><path d="M16 24.5L0.25 33.5933L0.25 15.4067L16 24.5Z M16 24.5L31.75 15.4067V33.5933L16 24.5Z M26.5 10.5C26.5 4.70101 21.799 0 16 0C10.201 0 5.5 4.70101 5.5 10.5L26.5 10.5Z M17 0.047V0H16C16.3373 0 16.6709 0.015903 17 0.047ZM17 10.5H16V24.5H17V10.5Z" fill="gray" stroke="black" transform="translate(950,434)" /><path d="M16 24.5L0.25 33.5933L0.25 15.4067L16 24.5Z M16 24.5L31.75 15.4067V33.5933L16 24.5Z M26.5 10.5C26.5 4.70101 21.799 0 16 0C10.201 0 5.5 4.70101 5.5 10.5L26.5 10.5Z M17 0.047V0H16C16.3373 0 16.6709 0.015903 17 0.047ZM17 10.5H16V24.5H17V10.5Z" fill="gray" stroke="black" transform="translate(950,351)" /><path d="M16 24.5L0.25 33.5933L0.25 15.4067L16 24.5Z M16 24.5L31.75 15.4067V33.5933L16 24.5Z M26.5 10.5C26.5 4.70101 21.799 0 16 0C10.201 0 5.5 4.70101 5.5 10.5L26.5 10.5Z M17 0.047V0H16C16.3373 0 16.6709 0.015903 17 0.047ZM17 10.5H16V24.5H17V10.5Z" fill="gray" stroke="black" transform="translate(942,79)" /><path d="M16 24.5L0.25 33.5933L0.25 15.4067L16 24.5Z M16 24.5L31.75 15.4067V33.5933L16 24.5Z M26.5 10.5C26.5 4.70101 21.799 0 16 0C10.201 0 5.5 4.70101 5.5 10.5L26.5 10.5Z M17 0.047V0H16C16.3373 0 16.6709 0.015903 17 0.047ZM17 10.5H16V24.5H17V10.5Z" fill="gray" stroke="black" transform="translate(306,669)" /><path d="M16 24.5L0.25 33.5933L0.25 15.4067L16 24.5Z M16 24.5L31.75 15.4067V33.5933L16 24.5Z M26.5 10.5C26.5 4.70101 21.799 0 16 0C10.201 0 5.5 4.70101 5.5 10.5L26.5 10.5Z M17 0.047V0H16C16.3373 0 16.6709 0.015903 17 0.047ZM17 10.5H16V24.5H17V10.5Z" fill="gray" stroke="black" transform="translate(1309,669)" /></svg>