<?xml version="1.0" encoding="utf-8" ?>
<svg baseProfile="tiny" height="100%" version="1.2" width="100%" xmlns="http://www.w3.org/2000/svg" xmlns:ev="http://www.w3.org/2001/xml-events" xmlns:xlink="http://www.w3.org/1999/xlink"><defs /><rect fill="#3E5F8A" height="143" stroke="black" stroke-width="1" width="168" x="1686" y="84" /><rect fill="#008000" height="108" stroke="black" stroke-width="1" width="29" x="885" y="86" /><rect fill="#3E5F8A" height="35" stroke="black" stroke-width="1" width="111" x="376" y="258" /><rect fill="#008000" height="108" stroke="black" stroke-width="1" width="29" x="885" y="238" /><rect fill="#008000" height="108" stroke="black" stroke-width="1" width="29" x="883" y="389" /><rect fill="#008000" height="108" stroke="black" stroke-width="1" width="29" x="883" y="543" /><rect fill="#008000" height="108" stroke="black" stroke-width="1" width="29" x="886" y="695" /><rect fill="#9a9a9a" height="100" stroke="black" stroke-width="1" width="153" x="1691" y="546" /><rect fill="#c6c6c6" height="92" stroke="black" stroke-width="1" width="139" x="1698" y="550" /><rect fill="#9a9a9a" height="123" stroke="black" stroke-width="1" width="122" x="1711" y="653" /><rect fill="#c6c6c6" height="113" stroke="black" stroke-width="1" width="110" x="1717" y="658" /><polygon fill="#800080" points="453,236 476,236 465,218" /><polygon fill="#00ffff" points="489,135 489,153 513,144" /><polygon fill="#00ffff" points="761,135 761,153 785,144" /><polygon fill="#00ffff" points="756,284 756,302 780,293" /><polygon fill="#00ffff" points="759,440 759,458 783,449" /><polygon fill="#00ffff" points="762,590 762,608 786,599" /><polygon fill="#00ffff" points="762,745 762,763 786,754" /><polygon fill="#008000" points="1415,136 1415,154 1439,145" /><polygon fill="#008000" points="1417,285 1417,303 1441,294" /><polygon fill="#008000" points="1420,439 1420,457 1444,448" /><polygon fill="#008000" points="1423,593 1423,611 1447,602" /><polygon fill="#008000" points="1423,741 1423,759 1447,750" /><polygon fill="#ffff00" points="1289,59 1289,76 1313,68" /><polygon fill="#ffff00" points="1294,212 1294,224 1318,218" /><polygon fill="#00ffff" points="1630,283 1654,283 1642,266" /><polygon fill="#99cc00" points="734,206 734,224 758,215" /><polygon fill="#99cc00" points="732,358 732,376 756,367" /><polygon fill="#99cc00" points="735,666 735,684 759,675" /><polygon fill="#99cc00" points="731,817 731,835 755,826" /><polygon fill="#808000" points="1302,819 1302,831 1326,825" /><polygon fill="#008000" points="490,309 514,309 502,291" /><polygon fill="#008000" points="490,438 514,438 502,456" /><polygon fill="#e1e1e1" points="73,597 88,608 73,618 31,618 31,597 31,597" /><polygon fill="#808000" points="1252,202 1252,216 1276,209" /><polygon fill="#a4c4ff" points="1861,445 1877,455 1861,466 1819,466 1819,445 1819,445" /><polygon fill="#99cc00" points="731,510 731,527 755,519" /><polygon fill="#008000" points="765,27 765,45 789,36" /><polygon fill="#7f7f7f" points="261,259 261,244 303,259 303,244 261,259" /><polygon fill="#7f7f7f" points="261,258 261,245 303,258 303,245 261,258" /><polygon fill="#7f7f7f" points="261,257 261,247 303,257 303,247 261,257" /><polygon fill="#7f7f7f" points="261,255 261,248 303,255 303,248 261,255" /><polygon fill="#7f7f7f" points="261,254 261,249 303,254 303,249 261,254" /><polygon fill="#7f7f7f" points="261,253 261,251 303,253 303,251 261,253" /><polygon fill="#7f7f7f" points="394,614 414,614 394,645 414,645 394,614" /><polygon fill="#7f7f7f" points="395,614 413,614 395,645 413,645 395,614" /><polygon fill="#7f7f7f" points="397,614 411,614 397,645 411,645 397,614" /><polygon fill="#7f7f7f" points="399,614 409,614 399,645 409,645 399,614" /><polygon fill="#7f7f7f" points="401,614 407,614 401,645 407,645 401,614" /><polygon fill="#7f7f7f" points="403,614 405,614 403,645 405,645 403,614" /><polygon fill="#800080" points="424,308 447,308 435,326" /><polygon fill="#008000" points="320,243 320,261 344,252" /><polygon fill="#800080" points="399,236 422,236 410,218" /><polygon fill="#a4c4ff" points="85,334 114,345 85,355 7,355 7,334 7,334" /><polygon fill="#800080" points="425,236 447,236 436,218" /><polygon fill="#800080" points="451,309 474,309 462,327" /><polygon fill="#a4c4ff" points="88,475 117,486 88,497 10,497 10,475 10,475" /><polygon fill="#a4c4ff" points="329,692 368,708 329,725 224,725 224,692 224,692" /><polygon fill="#a4c4ff" points="330,636 368,653 330,670 225,670 225,636 225,636" /><polygon fill="#a4c4ff" points="1843,238 1872,249 1843,260 1765,260 1765,238 1765,238" /><polygon fill="#a4c4ff" points="1852,379 1881,389 1852,400 1774,400 1774,379 1774,379" /><polygon fill="#000000" points="236,342 241,335 236,338 230,335" /><polygon fill="#000000" points="236,321 241,328 236,326 230,328" /><polygon fill="#ffff00" points="182,338 182,352 203,345" /><polygon fill="#ffff00" points="224,338 224,352 203,345" /><polygon fill="#000000" points="287,482 292,476 287,478 282,476" /><polygon fill="#000000" points="287,462 292,468 287,466 282,468" /><polygon fill="#ffff00" points="233,478 233,492 254,485" /><polygon fill="#ffff00" points="275,478 275,492 254,485" /><polygon fill="#000000" points="287,605 292,598 287,601 282,598" /><polygon fill="#000000" points="287,584 292,591 287,589 282,591" /><polygon fill="#ffff00" points="233,601 233,615 254,608" /><polygon fill="#ffff00" points="275,601 275,615 254,608" /><polygon fill="#000000" points="1827,161 1831,169 1828,168 1828,182 1825,182 1825,168 1822,169 1827,161" /><polygon fill="#000000" points="1826,184 1822,176 1825,177 1825,163 1828,163 1828,177 1831,176 1826,184" /><polygon fill="#000000" points="1830,100 1834,108 1831,107 1831,121 1828,121 1828,107 1825,108 1830,100" /><polygon fill="#000000" points="1829,123 1825,115 1828,116 1828,102 1831,102 1831,116 1834,115 1829,123" /><polygon fill="#000000" points="388,609 382,600 386,601 386,586 390,586 390,601 394,600 388,609" /><polygon fill="#000000" points="388,583 394,592 390,591 390,606 386,606 386,591 382,592 388,583" /><polygon fill="#000000" points="388,486 382,477 386,479 386,463 390,463 390,479 394,477 388,486" /><polygon fill="#000000" points="388,461 394,470 390,468 390,484 386,484 386,468 382,470 388,461" /><polygon fill="#000000" points="477,708 471,699 475,700 475,685 479,685 479,700 483,699 477,708" /><polygon fill="#000000" points="477,682 483,691 479,690 479,705 475,705 475,690 471,691 477,682" /><polygon fill="#000000" points="630,188 624,179 628,180 628,165 632,165 632,180 636,179 630,188" /><polygon fill="#000000" points="630,162 636,171 632,170 632,185 628,185 628,170 624,171 630,162" /><polygon fill="#000000" points="833,216 827,207 831,208 831,193 835,193 835,208 839,207 833,216" /><polygon fill="#000000" points="833,190 839,199 835,198 835,213 831,213 831,198 827,199 833,190" /><polygon fill="#000000" points="692,292 686,283 690,284 690,269 694,269 694,284 698,283 692,292" /><polygon fill="#000000" points="692,266 698,275 694,274 694,289 690,289 690,274 686,275 692,266" /><polygon fill="#000000" points="630,337 624,328 628,330 628,314 632,314 632,330 636,328 630,337" /><polygon fill="#000000" points="630,312 636,320 632,319 632,335 628,335 628,319 624,320 630,312" /><polygon fill="#000000" points="833,367 827,358 831,359 831,344 835,344 835,359 839,358 833,367" /><polygon fill="#000000" points="833,341 839,350 835,349 835,364 831,364 831,349 827,350 833,341" /><polygon fill="#000000" points="692,453 686,444 690,446 690,430 694,430 694,446 698,444 692,453" /><polygon fill="#000000" points="692,428 698,437 694,435 694,451 690,451 690,435 686,437 692,428" /><polygon fill="#000000" points="630,495 624,486 628,487 628,472 632,472 632,487 636,486 630,495" /><polygon fill="#000000" points="630,469 636,478 632,477 632,492 628,492 628,477 624,478 630,469" /><polygon fill="#000000" points="833,519 827,510 831,512 831,496 835,496 835,512 839,510 833,519" /><polygon fill="#000000" points="833,494 839,503 835,501 835,517 831,517 831,501 827,503 833,494" /><polygon fill="#000000" points="692,601 686,592 690,594 690,578 694,578 694,594 698,592 692,601" /><polygon fill="#000000" points="692,576 698,585 694,583 694,599 690,599 690,583 686,585 692,576" /><polygon fill="#000000" points="630,646 624,637 628,638 628,623 632,623 632,638 636,637 630,646" /><polygon fill="#000000" points="630,620 636,629 632,628 632,643 628,643 628,628 624,629 630,620" /><polygon fill="#000000" points="833,677 827,668 831,669 831,654 835,654 835,669 839,668 833,677" /><polygon fill="#000000" points="833,651 839,660 835,659 835,674 831,674 831,659 827,660 833,651" /><polygon fill="#000000" points="833,828 827,819 831,820 831,805 835,805 835,820 839,819 833,828" /><polygon fill="#000000" points="833,802 839,811 835,810 835,825 831,825 831,810 827,811 833,802" /><polygon fill="#000000" points="692,753 686,744 690,745 690,730 694,730 694,745 698,744 692,753" /><polygon fill="#000000" points="692,727 698,736 694,735 694,750 690,750 690,735 686,736 692,727" /><polygon fill="#000000" points="630,800 624,791 628,793 628,777 632,777 632,793 636,791 630,800" /><polygon fill="#000000" points="630,775 636,784 632,782 632,798 628,798 628,782 624,784 630,775" /><polygon fill="#000000" points="1636,192 1630,183 1634,185 1634,169 1638,169 1638,185 1642,183 1636,192" /><polygon fill="#000000" points="1636,167 1642,176 1638,174 1638,190 1634,190 1634,174 1630,176 1636,167" /><polygon fill="#000000" points="1533,145 1527,136 1531,137 1531,122 1535,122 1535,137 1539,136 1533,145" /><polygon fill="#000000" points="1533,119 1539,128 1535,127 1535,142 1531,142 1531,127 1527,128 1533,119" /><polygon fill="#000000" points="1533,294 1527,285 1531,286 1531,271 1535,271 1535,286 1539,285 1533,294" /><polygon fill="#000000" points="1533,268 1539,277 1535,276 1535,291 1531,291 1531,276 1527,277 1533,268" /><polygon fill="#000000" points="1636,346 1630,337 1634,338 1634,323 1638,323 1638,338 1642,337 1636,346" /><polygon fill="#000000" points="1636,320 1642,329 1638,328 1638,343 1634,343 1634,328 1630,329 1636,320" /><polygon fill="#000000" points="1533,448 1527,439 1531,440 1531,425 1535,425 1535,440 1539,439 1533,448" /><polygon fill="#000000" points="1533,422 1539,431 1535,430 1535,445 1531,445 1531,430 1527,431 1533,422" /><polygon fill="#000000" points="1635,495 1629,486 1633,487 1633,472 1637,472 1637,487 1641,486 1635,495" /><polygon fill="#000000" points="1635,469 1641,478 1637,477 1637,492 1633,492 1633,477 1629,478 1635,469" /><polygon fill="#000000" points="1533,601 1527,592 1531,594 1531,578 1535,578 1535,594 1539,592 1533,601" /><polygon fill="#000000" points="1533,576 1539,585 1535,583 1535,599 1531,599 1531,583 1527,585 1533,576" /><polygon fill="#000000" points="1636,652 1630,643 1634,644 1634,629 1638,629 1638,644 1642,643 1636,652" /><polygon fill="#000000" points="1636,626 1642,635 1638,634 1638,649 1634,649 1634,634 1630,635 1636,626" /><polygon fill="#000000" points="1533,751 1527,743 1531,744 1531,728 1535,728 1535,744 1539,743 1533,751" /><polygon fill="#000000" points="1533,726 1539,735 1535,733 1535,749 1531,749 1531,733 1527,735 1533,726" /><polygon fill="#000000" points="1612,801 1606,792 1610,793 1610,778 1614,778 1614,793 1618,792 1612,801" /><polygon fill="#000000" points="1612,775 1618,784 1614,783 1614,798 1610,798 1610,783 1606,784 1612,775" /><polygon fill="#000000" points="1778,456 1772,447 1776,448 1776,433 1780,433 1780,448 1784,447 1778,456" /><polygon fill="#000000" points="1778,430 1784,439 1780,438 1780,453 1776,453 1776,438 1772,439 1778,430" /><polygon fill="#000000" points="1778,392 1772,383 1776,384 1776,369 1780,369 1780,384 1784,383 1778,392" /><polygon fill="#000000" points="1778,366 1784,375 1780,374 1780,389 1776,389 1776,374 1772,375 1778,366" /><polygon fill="#ffff00" points="1293,672 1293,685 1317,679" /><polygon fill="#808000" points="1251,663 1251,677 1275,670" /><polygon fill="#ffff00" points="1293,517 1293,530 1317,523" /><polygon fill="#808000" points="1251,507 1251,521 1275,514" /><polygon fill="#ffff00" points="1294,367 1294,380 1318,374" /><polygon fill="#808000" points="1252,358 1252,371 1276,365" /><polygon fill="#e1e1e1" points="84,134 112,144 84,155 6,155 6,134 6,134" /><polygon fill="#000000" points="191,143 185,134 189,136 189,120 193,120 193,136 197,134 191,143" /><polygon fill="#000000" points="191,118 197,127 193,125 193,141 189,141 189,125 185,127 191,118" /><polygon fill="#a4c4ff" points="429,47 445,58 429,68 388,68 388,47 388,47" /><polygon fill="#000000" points="191,193 185,185 189,186 189,170 193,170 193,186 197,185 191,193" /><polygon fill="#000000" points="191,168 197,177 193,175 193,191 189,191 189,175 185,177 191,168" /><polygon fill="#e1e1e1" points="84,183 112,193 84,204 6,204 6,183 6,183" /><polygon fill="#9a9a9a" points="1756,744 1755,744 1754,744 1753,744 1752,744 1751,744 1750,743 1748,743 1748,743 1747,742 1746,742 1745,742 1744,741 1743,741 1742,741 1741,740 1740,740 1738,739 1737,737 1735,735 1734,734 1733,732 1732,731 1731,729 1730,727 1729,726 1729,724 1728,723 1727,721 1727,720 1727,718 1726,716 1726,715 1726,713 1727,712 1727,711 1727,710 1728,708 1728,707 1728,706 1729,704 1729,703 1729,702 1730,700 1730,699 1730,698 1731,696 1731,695 1732,694 1732,695 1733,696 1734,697 1734,698 1735,700 1736,701 1736,702 1737,703 1738,705 1738,706 1739,707 1740,707 1740,708 1741,708 1742,709 1743,709 1743,709 1744,708 1745,708 1746,707 1746,707 1747,706 1748,705 1749,703 1749,702 1750,701 1751,700 1751,698 1752,697 1752,696 1753,695 1754,694 1754,693 1754,691 1754,690 1754,689 1754,688 1754,687 1754,685 1755,684 1755,683 1755,682 1755,681 1756,679 1756,678 1757,677 1758,676 1759,675 1759,678 1759,681 1759,684 1760,686 1760,688 1761,690 1761,692 1761,694 1762,695 1762,696 1763,697 1763,698 1764,698 1764,698 1764,698 1765,698 1765,697 1766,696 1767,694 1768,693 1768,692 1769,691 1770,691 1770,692 1771,693 1771,693 1771,695 1771,696 1771,697 1772,698 1772,699 1772,700 1772,701 1773,702 1773,703 1773,704 1774,704 1775,704 1775,705 1776,704 1777,703 1778,703 1778,702 1778,701 1779,700 1779,699 1779,698 1779,697 1779,696 1779,695 1779,694 1779,693 1778,692 1778,691 1779,690 1779,689 1779,688 1779,686 1780,685 1781,683 1782,682 1783,681 1784,680 1785,679 1786,678 1786,677 1787,677 1788,676 1789,674 1789,673 1790,672 1790,671 1792,672 1794,674 1795,675 1797,677 1798,679 1798,681 1799,682 1800,684 1800,686 1800,688 1800,690 1800,691 1799,693 1799,695 1799,696 1798,698 1798,700 1798,702 1798,704 1798,705 1798,707 1798,709 1797,710 1797,712 1797,713 1797,715 1796,716 1796,717 1797,718 1797,719 1797,719 1798,720 1800,720 1801,720 1803,720 1804,720 1805,719 1806,718 1806,717 1807,716 1808,715 1809,714 1809,713 1810,711 1811,710 1812,709 1813,708 1815,706 1815,709 1816,710 1816,712 1816,713 1816,714 1816,714 1816,715 1816,715 1816,715 1816,716 1816,716 1816,717 1815,717 1815,718 1815,720 1815,721 1814,724 1814,727 1813,730 1812,732 1812,734 1811,736 1810,738 1809,739 1808,740 1807,741 1806,742 1805,743 1803,743 1803,744 1802,744 1801,744 1800,744 1798,744 1797,744 1796,744 1795,744 1794,744 1792,743 1791,743 1790,743 1789,743 1787,743 1786,743 1785,743 1784,743 1783,742 1781,742 1780,742 1778,742 1776,742 1775,742 1773,743 1771,743 1770,743 1768,743 1767,743 1765,743 1764,744 1762,744 1761,744 1759,744 1758,744 1756,744" /><polygon fill="#9a9a9a" points="1756,743 1755,743 1754,743 1753,743 1752,743 1751,743 1750,742 1749,742 1748,742 1748,742 1747,741 1746,741 1745,741 1744,740 1743,740 1742,740 1741,740 1740,738 1739,737 1738,735 1737,734 1736,733 1735,731 1734,730 1733,728 1732,727 1732,726 1731,724 1731,723 1730,721 1730,720 1729,719 1729,717 1730,716 1730,715 1730,714 1730,713 1731,711 1731,710 1731,709 1732,708 1732,707 1732,706 1733,704 1733,703 1733,702 1733,701 1734,700 1734,699 1735,700 1735,700 1736,702 1736,703 1737,704 1738,705 1738,706 1739,707 1740,708 1740,709 1741,710 1741,711 1742,711 1743,712 1743,712 1744,712 1745,712 1745,712 1746,711 1747,711 1747,710 1748,709 1749,708 1749,707 1750,706 1750,705 1751,704 1752,703 1752,702 1753,701 1753,700 1754,699 1754,698 1754,697 1754,696 1754,694 1754,693 1754,692 1754,691 1754,690 1755,689 1755,688 1755,687 1755,686 1756,685 1757,684 1758,683 1759,682 1759,685 1759,687 1759,690 1760,692 1760,694 1761,696 1761,697 1762,699 1762,700 1763,701 1764,702 1764,702 1765,702 1765,703 1766,703 1766,702 1767,701 1767,700 1768,699 1768,698 1769,697 1770,696 1770,696 1771,697 1771,698 1771,698 1772,699 1772,700 1772,701 1773,702 1773,703 1774,704 1774,705 1775,706 1775,707 1776,708 1776,708 1777,708 1777,708 1778,708 1779,707 1779,706 1780,706 1780,705 1780,704 1781,703 1781,703 1781,702 1781,701 1780,700 1780,699 1780,698 1780,697 1780,697 1780,696 1780,695 1781,693 1781,692 1782,691 1782,689 1783,688 1784,688 1785,687 1786,686 1787,685 1787,684 1788,683 1789,683 1789,682 1790,681 1790,679 1790,678 1792,680 1794,681 1795,683 1796,684 1797,686 1798,687 1798,689 1799,690 1799,692 1799,693 1799,695 1799,697 1799,698 1798,699 1798,701 1798,702 1798,704 1798,706 1798,707 1798,709 1797,710 1797,712 1797,713 1797,715 1796,716 1796,717 1796,718 1796,719 1796,720 1797,721 1797,721 1798,722 1799,722 1800,722 1802,722 1802,722 1803,721 1804,720 1805,720 1806,719 1806,718 1807,717 1808,715 1808,714 1809,713 1810,712 1811,711 1812,710 1813,712 1813,713 1813,714 1813,715 1814,716 1814,717 1814,717 1814,717 1814,718 1813,718 1813,718 1813,719 1813,719 1813,720 1813,721 1812,723 1812,726 1811,728 1811,731 1810,733 1810,734 1809,736 1808,737 1807,739 1806,740 1805,741 1804,741 1803,742 1802,742 1801,743 1801,743 1800,743 1799,743 1798,743 1797,743 1796,743 1795,743 1794,743 1792,743 1791,742 1790,742 1789,742 1788,742 1787,742 1786,742 1785,742 1784,742 1783,741 1781,741 1779,742 1778,742 1776,742 1774,742 1773,742 1771,742 1769,742 1767,742 1766,742 1764,743 1762,743 1761,743 1759,743 1758,743 1756,743" /><polygon fill="#9a9a9a" points="1741,738 1741,737 1740,736 1740,736 1739,735 1739,734 1738,733 1738,732 1737,732 1737,731 1737,730 1737,729 1737,729 1737,728 1737,727 1737,726 1737,725 1737,725 1737,724 1736,723 1736,721 1736,720 1735,719 1735,718 1734,717 1734,716 1734,715 1734,714 1734,714 1734,713 1735,713 1736,713 1737,713 1738,713 1739,714 1741,714 1742,715 1743,715 1744,716 1745,716 1747,717 1747,716 1748,715 1748,714 1749,713 1749,711 1750,710 1750,709 1751,709 1752,708 1753,707 1754,705 1755,704 1756,703 1757,702 1758,701 1759,700 1759,700 1760,701 1760,701 1760,702 1761,703 1761,703 1761,704 1761,705 1761,706 1762,706 1762,707 1762,708 1763,709 1763,710 1764,711 1765,712 1765,711 1765,711 1765,710 1766,709 1766,708 1766,707 1766,706 1766,705 1767,704 1767,703 1767,702 1768,701 1768,700 1769,700 1770,699 1770,699 1771,700 1771,702 1772,703 1771,705 1771,707 1770,709 1770,710 1769,712 1768,714 1767,716 1767,717 1766,719 1766,720 1766,721 1767,722 1767,722 1770,722 1771,722 1772,721 1773,720 1773,718 1773,717 1773,715 1773,713 1772,712 1772,710 1772,709 1772,708 1772,708 1773,707 1774,708 1776,709 1776,709 1776,709 1777,709 1778,709 1779,709 1780,709 1781,707 1781,705 1782,705 1782,704 1782,703 1782,702 1782,702 1783,701 1783,700 1783,699 1783,698 1783,697 1784,696 1784,695 1784,694 1785,693 1785,692 1786,691 1786,690 1787,690 1788,689 1789,688 1790,687 1791,686 1792,686 1792,685 1793,687 1793,688 1793,689 1793,690 1794,690 1794,691 1794,692 1795,693 1795,693 1795,694 1795,695 1796,696 1796,697 1796,698 1796,699 1797,700 1797,701 1797,702 1796,703 1796,704 1796,705 1795,706 1795,708 1794,709 1794,711 1794,712 1793,714 1793,715 1793,717 1793,718 1793,720 1794,721 1795,722 1796,722 1797,723 1798,723 1799,724 1800,724 1801,724 1802,724 1804,724 1805,723 1806,722 1807,721 1808,720 1809,719 1810,718 1810,717 1810,718 1810,719 1810,720 1810,721 1810,722 1810,723 1810,724 1810,725 1810,726 1810,727 1809,728 1809,729 1809,731 1809,732 1808,733 1808,735 1807,736 1806,737 1805,738 1804,739 1803,740 1802,741 1801,741 1799,742 1798,742 1797,742 1795,742 1794,742 1793,742 1792,742 1790,742 1789,742 1788,742 1786,742 1785,741 1784,741 1783,741 1781,741 1780,741 1779,741 1777,741 1775,741 1773,741 1771,741 1770,741 1768,741 1767,741 1766,742 1764,742 1763,742 1762,742 1760,742 1759,742 1758,742 1756,742 1755,742 1753,742 1752,741 1750,741 1748,741 1747,740 1745,740 1743,739 1741,738" /><polygon fill="#9a9a9a" points="1743,739 1742,738 1741,736 1741,735 1740,734 1740,733 1740,732 1740,731 1740,730 1740,729 1740,728 1739,727 1739,726 1738,724 1738,723 1738,722 1737,720 1737,719 1736,718 1736,717 1736,716 1736,715 1737,715 1737,715 1738,715 1739,715 1740,716 1741,717 1742,717 1743,718 1744,719 1745,720 1745,720 1746,720 1747,721 1748,721 1748,722 1749,722 1750,722 1750,722 1751,721 1751,720 1751,720 1751,719 1751,718 1751,717 1752,716 1752,715 1752,714 1752,713 1753,712 1753,711 1753,710 1754,710 1754,710 1755,710 1755,710 1756,710 1757,711 1757,712 1758,713 1758,714 1759,715 1761,715 1763,714 1764,714 1764,714 1764,714 1765,715 1765,715 1765,716 1765,717 1765,718 1765,719 1765,720 1765,721 1764,722 1764,723 1764,724 1765,725 1765,725 1766,726 1767,726 1767,726 1768,726 1769,726 1770,726 1771,726 1772,726 1773,726 1774,726 1774,725 1775,725 1776,724 1776,724 1777,723 1777,722 1777,721 1776,719 1775,718 1775,716 1774,714 1774,713 1775,713 1776,713 1777,712 1779,711 1780,710 1782,709 1783,707 1784,705 1785,704 1785,702 1786,701 1787,700 1787,699 1788,697 1789,696 1789,695 1790,695 1791,695 1791,696 1791,697 1791,699 1791,701 1791,702 1791,704 1791,706 1791,708 1791,710 1791,712 1790,714 1790,716 1791,717 1791,719 1791,720 1791,721 1792,722 1792,723 1793,724 1794,724 1794,725 1795,726 1796,726 1797,726 1798,726 1799,726 1800,726 1801,727 1802,727 1803,726 1804,726 1805,725 1805,726 1805,727 1806,728 1806,729 1806,729 1806,730 1806,731 1806,732 1806,732 1805,733 1805,734 1804,735 1804,736 1803,736 1803,737 1802,738 1801,738 1801,739 1800,739 1799,740 1799,740 1798,740 1797,741 1797,741 1795,741 1794,741 1792,741 1790,741 1789,741 1787,741 1786,741 1784,741 1783,741 1781,741 1779,740 1778,740 1776,740 1775,740 1773,740 1772,740 1771,740 1769,740 1768,741 1767,741 1765,741 1764,741 1763,741 1761,741 1760,742 1759,742 1758,742 1757,742 1756,742 1755,741 1755,741 1755,741 1753,741 1752,741 1750,741 1749,741 1747,740 1746,740 1744,740 1743,739" /><polygon fill="#9a9a9a" points="1744,734 1744,734 1745,735 1745,735 1745,735 1746,736 1746,737 1746,737 1747,738 1747,738 1747,738 1748,738 1748,739 1749,739 1749,739 1750,739 1751,739 1752,739 1754,739 1755,740 1757,740 1758,740 1760,740 1761,740 1762,740 1763,740 1764,740 1765,739 1766,739 1767,739 1768,739 1769,738 1770,738 1771,738 1772,738 1773,738 1774,738 1775,738 1777,738 1778,738 1780,738 1781,738 1783,738 1784,738 1785,739 1786,739 1787,739 1788,739 1789,739 1790,739 1791,739 1792,739 1793,739 1793,738 1794,738 1795,738 1795,738 1796,737 1797,736 1798,735 1799,734 1800,733 1800,732 1800,731 1799,731 1798,731 1797,731 1796,731 1795,731 1795,730 1794,730 1793,730 1792,730 1791,729 1790,728 1789,727 1788,726 1788,724 1788,722 1788,720 1788,718 1788,716 1789,714 1789,712 1789,710 1789,709 1788,707 1788,706 1787,705 1786,706 1785,708 1784,709 1783,710 1783,712 1782,713 1782,715 1781,716 1781,718 1781,719 1780,720 1780,722 1780,723 1779,723 1779,724 1779,724 1778,725 1777,726 1776,727 1775,727 1774,728 1774,729 1773,729 1772,730 1770,730 1769,729 1768,729 1767,729 1765,729 1764,728 1763,728 1762,727 1762,727 1761,726 1761,726 1761,725 1761,724 1761,723 1761,722 1761,721 1761,720 1761,719 1761,718 1760,718 1760,718 1759,717 1759,718 1758,718 1757,719 1756,720 1755,721 1754,723 1753,724 1752,726 1751,727 1751,727 1749,727 1748,727 1747,727 1747,727 1746,726 1745,726 1745,726 1744,725 1744,727 1744,728 1744,729 1743,730 1743,731 1743,732 1743,733 1744,734" /><polygon fill="#9a9a9a" points="1756,739 1757,739 1757,739 1757,739 1758,739 1758,739 1758,739 1759,739 1759,739 1760,738 1762,738 1764,737 1766,737 1768,736 1770,736 1771,735 1772,734 1770,734 1768,734 1767,733 1765,733 1764,732 1763,732 1762,731 1761,730 1761,729 1760,728 1760,727 1759,726 1758,725 1758,725 1757,724 1756,723 1756,724 1755,725 1755,726 1754,728 1754,730 1753,731 1752,732 1751,733 1750,733 1750,733 1749,733 1749,733 1748,733 1748,733 1747,732 1745,732 1745,733 1746,734 1746,735 1747,736 1748,737 1748,737 1749,738 1749,738 1750,738 1751,738 1752,738 1753,739 1754,739 1755,739 1755,739 1756,739" /><polygon fill="#9a9a9a" points="1781,737 1780,736 1779,736 1778,736 1778,736 1777,736 1776,735 1776,735 1776,734 1777,734 1777,733 1778,732 1779,731 1779,730 1780,729 1781,727 1781,726 1782,724 1782,723 1783,721 1783,720 1784,718 1785,717 1785,716 1786,715 1786,715 1786,716 1786,717 1786,718 1786,719 1786,721 1786,722 1786,724 1786,725 1786,727 1786,728 1786,730 1786,731 1786,732 1787,732 1787,733 1788,733 1789,733 1790,733 1790,733 1792,733 1793,733 1795,733 1797,733 1796,734 1795,735 1794,736 1794,736 1793,736 1792,736 1792,737 1791,737 1790,737 1789,737 1787,737 1786,737 1785,737 1784,737 1783,737 1781,737" /><polygon fill="#ff0000" points="1756,744 1755,744 1754,744 1753,744 1752,744 1751,744 1750,743 1748,743 1748,743 1747,742 1746,742 1745,742 1744,741 1743,741 1742,741 1741,740 1740,740 1738,739 1737,737 1735,735 1734,734 1733,732 1732,731 1731,729 1730,727 1729,726 1729,724 1728,723 1727,721 1727,720 1727,718 1726,716 1726,715 1726,713 1727,712 1727,711 1727,710 1728,708 1728,707 1728,706 1729,704 1729,703 1729,702 1730,700 1730,699 1730,698 1731,696 1731,695 1732,694 1732,695 1733,696 1734,697 1734,698 1735,700 1736,701 1736,702 1737,703 1738,705 1738,706 1739,707 1740,707 1740,708 1741,708 1742,709 1743,709 1743,709 1744,708 1745,708 1746,707 1746,707 1747,706 1748,705 1749,703 1749,702 1750,701 1751,700 1751,698 1752,697 1752,696 1753,695 1754,694 1754,693 1754,691 1754,690 1754,689 1754,688 1754,687 1754,685 1755,684 1755,683 1755,682 1755,681 1756,679 1756,678 1757,677 1758,676 1759,675 1759,678 1759,681 1759,684 1760,686 1760,688 1761,690 1761,692 1761,694 1762,695 1762,696 1763,697 1763,698 1764,698 1764,698 1764,698 1765,698 1765,697 1766,696 1767,694 1768,693 1768,692 1769,691 1770,691 1770,692 1771,693 1771,693 1771,695 1771,696 1771,697 1772,698 1772,699 1772,700 1772,701 1773,702 1773,703 1773,704 1774,704 1775,704 1775,705 1776,704 1777,703 1778,703 1778,702 1778,701 1779,700 1779,699 1779,698 1779,697 1779,696 1779,695 1779,694 1779,693 1778,692 1778,691 1779,690 1779,689 1779,688 1779,686 1780,685 1781,683 1782,682 1783,681 1784,680 1785,679 1786,678 1786,677 1787,677 1788,676 1789,674 1789,673 1790,672 1790,671 1792,672 1794,674 1795,675 1797,677 1798,679 1798,681 1799,682 1800,684 1800,686 1800,688 1800,690 1800,691 1799,693 1799,695 1799,696 1798,698 1798,700 1798,702 1798,704 1798,705 1798,707 1798,709 1797,710 1797,712 1797,713 1797,715 1796,716 1796,717 1797,718 1797,719 1797,719 1798,720 1800,720 1801,720 1803,720 1804,720 1805,719 1806,718 1806,717 1807,716 1808,715 1809,714 1809,713 1810,711 1811,710 1812,709 1813,708 1815,706 1815,709 1816,710 1816,712 1816,713 1816,714 1816,714 1816,715 1816,715 1816,715 1816,716 1816,716 1816,717 1815,717 1815,718 1815,720 1815,721 1814,724 1814,727 1813,730 1812,732 1812,734 1811,736 1810,738 1809,739 1808,740 1807,741 1806,742 1805,743 1803,743 1803,744 1802,744 1801,744 1800,744 1798,744 1797,744 1796,744 1795,744 1794,744 1792,743 1791,743 1790,743 1789,743 1787,743 1786,743 1785,743 1784,743 1783,742 1781,742 1780,742 1778,742 1776,742 1775,742 1773,743 1771,743 1770,743 1768,743 1767,743 1765,743 1764,744 1762,744 1761,744 1759,744 1758,744 1756,744" /><polygon fill="#cc3300" points="1756,743 1755,743 1754,743 1753,743 1752,743 1751,743 1750,742 1749,742 1748,742 1748,742 1747,741 1746,741 1745,741 1744,740 1743,740 1742,740 1741,740 1740,738 1739,737 1738,735 1737,734 1736,733 1735,731 1734,730 1733,728 1732,727 1732,726 1731,724 1731,723 1730,721 1730,720 1729,719 1729,717 1730,716 1730,715 1730,714 1730,713 1731,711 1731,710 1731,709 1732,708 1732,707 1732,706 1733,704 1733,703 1733,702 1733,701 1734,700 1734,699 1735,700 1735,700 1736,702 1736,703 1737,704 1738,705 1738,706 1739,707 1740,708 1740,709 1741,710 1741,711 1742,711 1743,712 1743,712 1744,712 1745,712 1745,712 1746,711 1747,711 1747,710 1748,709 1749,708 1749,707 1750,706 1750,705 1751,704 1752,703 1752,702 1753,701 1753,700 1754,699 1754,698 1754,697 1754,696 1754,694 1754,693 1754,692 1754,691 1754,690 1755,689 1755,688 1755,687 1755,686 1756,685 1757,684 1758,683 1759,682 1759,685 1759,687 1759,690 1760,692 1760,694 1761,696 1761,697 1762,699 1762,700 1763,701 1764,702 1764,702 1765,702 1765,703 1766,703 1766,702 1767,701 1767,700 1768,699 1768,698 1769,697 1770,696 1770,696 1771,697 1771,698 1771,698 1772,699 1772,700 1772,701 1773,702 1773,703 1774,704 1774,705 1775,706 1775,707 1776,708 1776,708 1777,708 1777,708 1778,708 1779,707 1779,706 1780,706 1780,705 1780,704 1781,703 1781,703 1781,702 1781,701 1780,700 1780,699 1780,698 1780,697 1780,697 1780,696 1780,695 1781,693 1781,692 1782,691 1782,689 1783,688 1784,688 1785,687 1786,686 1787,685 1787,684 1788,683 1789,683 1789,682 1790,681 1790,679 1790,678 1792,680 1794,681 1795,683 1796,684 1797,686 1798,687 1798,689 1799,690 1799,692 1799,693 1799,695 1799,697 1799,698 1798,699 1798,701 1798,702 1798,704 1798,706 1798,707 1798,709 1797,710 1797,712 1797,713 1797,715 1796,716 1796,717 1796,718 1796,719 1796,720 1797,721 1797,721 1798,722 1799,722 1800,722 1802,722 1802,722 1803,721 1804,720 1805,720 1806,719 1806,718 1807,717 1808,715 1808,714 1809,713 1810,712 1811,711 1812,710 1813,712 1813,713 1813,714 1813,715 1814,716 1814,717 1814,717 1814,717 1814,718 1813,718 1813,718 1813,719 1813,719 1813,720 1813,721 1812,723 1812,726 1811,728 1811,731 1810,733 1810,734 1809,736 1808,737 1807,739 1806,740 1805,741 1804,741 1803,742 1802,742 1801,743 1801,743 1800,743 1799,743 1798,743 1797,743 1796,743 1795,743 1794,743 1792,743 1791,742 1790,742 1789,742 1788,742 1787,742 1786,742 1785,742 1784,742 1783,741 1781,741 1779,742 1778,742 1776,742 1774,742 1773,742 1771,742 1769,742 1767,742 1766,742 1764,743 1762,743 1761,743 1759,743 1758,743 1756,743" /><polygon fill="#ff6600" points="1741,738 1741,737 1740,736 1740,736 1739,735 1739,734 1738,733 1738,732 1737,732 1737,731 1737,730 1737,729 1737,729 1737,728 1737,727 1737,726 1737,725 1737,725 1737,724 1736,723 1736,721 1736,720 1735,719 1735,718 1734,717 1734,716 1734,715 1734,714 1734,714 1734,713 1735,713 1736,713 1737,713 1738,713 1739,714 1741,714 1742,715 1743,715 1744,716 1745,716 1747,717 1747,716 1748,715 1748,714 1749,713 1749,711 1750,710 1750,709 1751,709 1752,708 1753,707 1754,705 1755,704 1756,703 1757,702 1758,701 1759,700 1759,700 1760,701 1760,701 1760,702 1761,703 1761,703 1761,704 1761,705 1761,706 1762,706 1762,707 1762,708 1763,709 1763,710 1764,711 1765,712 1765,711 1765,711 1765,710 1766,709 1766,708 1766,707 1766,706 1766,705 1767,704 1767,703 1767,702 1768,701 1768,700 1769,700 1770,699 1770,699 1771,700 1771,702 1772,703 1771,705 1771,707 1770,709 1770,710 1769,712 1768,714 1767,716 1767,717 1766,719 1766,720 1766,721 1767,722 1767,722 1770,722 1771,722 1772,721 1773,720 1773,718 1773,717 1773,715 1773,713 1772,712 1772,710 1772,709 1772,708 1772,708 1773,707 1774,708 1776,709 1776,709 1776,709 1777,709 1778,709 1779,709 1780,709 1781,707 1781,705 1782,705 1782,704 1782,703 1782,702 1782,702 1783,701 1783,700 1783,699 1783,698 1783,697 1784,696 1784,695 1784,694 1785,693 1785,692 1786,691 1786,690 1787,690 1788,689 1789,688 1790,687 1791,686 1792,686 1792,685 1793,687 1793,688 1793,689 1793,690 1794,690 1794,691 1794,692 1795,693 1795,693 1795,694 1795,695 1796,696 1796,697 1796,698 1796,699 1797,700 1797,701 1797,702 1796,703 1796,704 1796,705 1795,706 1795,708 1794,709 1794,711 1794,712 1793,714 1793,715 1793,717 1793,718 1793,720 1794,721 1795,722 1796,722 1797,723 1798,723 1799,724 1800,724 1801,724 1802,724 1804,724 1805,723 1806,722 1807,721 1808,720 1809,719 1810,718 1810,717 1810,718 1810,719 1810,720 1810,721 1810,722 1810,723 1810,724 1810,725 1810,726 1810,727 1809,728 1809,729 1809,731 1809,732 1808,733 1808,735 1807,736 1806,737 1805,738 1804,739 1803,740 1802,741 1801,741 1799,742 1798,742 1797,742 1795,742 1794,742 1793,742 1792,742 1790,742 1789,742 1788,742 1786,742 1785,741 1784,741 1783,741 1781,741 1780,741 1779,741 1777,741 1775,741 1773,741 1771,741 1770,741 1768,741 1767,741 1766,742 1764,742 1763,742 1762,742 1760,742 1759,742 1758,742 1756,742 1755,742 1753,742 1752,741 1750,741 1748,741 1747,740 1745,740 1743,739 1741,738" /><polygon fill="#ffcc00" points="1743,739 1742,738 1741,736 1741,735 1740,734 1740,733 1740,732 1740,731 1740,730 1740,729 1740,728 1739,727 1739,726 1738,724 1738,723 1738,722 1737,720 1737,719 1736,718 1736,717 1736,716 1736,715 1737,715 1737,715 1738,715 1739,715 1740,716 1741,717 1742,717 1743,718 1744,719 1745,720 1745,720 1746,720 1747,721 1748,721 1748,722 1749,722 1750,722 1750,722 1751,721 1751,720 1751,720 1751,719 1751,718 1751,717 1752,716 1752,715 1752,714 1752,713 1753,712 1753,711 1753,710 1754,710 1754,710 1755,710 1755,710 1756,710 1757,711 1757,712 1758,713 1758,714 1759,715 1761,715 1763,714 1764,714 1764,714 1764,714 1765,715 1765,715 1765,716 1765,717 1765,718 1765,719 1765,720 1765,721 1764,722 1764,723 1764,724 1765,725 1765,725 1766,726 1767,726 1767,726 1768,726 1769,726 1770,726 1771,726 1772,726 1773,726 1774,726 1774,725 1775,725 1776,724 1776,724 1777,723 1777,722 1777,721 1776,719 1775,718 1775,716 1774,714 1774,713 1775,713 1776,713 1777,712 1779,711 1780,710 1782,709 1783,707 1784,705 1785,704 1785,702 1786,701 1787,700 1787,699 1788,697 1789,696 1789,695 1790,695 1791,695 1791,696 1791,697 1791,699 1791,701 1791,702 1791,704 1791,706 1791,708 1791,710 1791,712 1790,714 1790,716 1791,717 1791,719 1791,720 1791,721 1792,722 1792,723 1793,724 1794,724 1794,725 1795,726 1796,726 1797,726 1798,726 1799,726 1800,726 1801,727 1802,727 1803,726 1804,726 1805,725 1805,726 1805,727 1806,728 1806,729 1806,729 1806,730 1806,731 1806,732 1806,732 1805,733 1805,734 1804,735 1804,736 1803,736 1803,737 1802,738 1801,738 1801,739 1800,739 1799,740 1799,740 1798,740 1797,741 1797,741 1795,741 1794,741 1792,741 1790,741 1789,741 1787,741 1786,741 1784,741 1783,741 1781,741 1779,740 1778,740 1776,740 1775,740 1773,740 1772,740 1771,740 1769,740 1768,741 1767,741 1765,741 1764,741 1763,741 1761,741 1760,742 1759,742 1758,742 1757,742 1756,742 1755,741 1755,741 1755,741 1753,741 1752,741 1750,741 1749,741 1747,740 1746,740 1744,740 1743,739" /><polygon fill="#ffff00" points="1744,734 1744,734 1745,735 1745,735 1745,735 1746,736 1746,737 1746,737 1747,738 1747,738 1747,738 1748,738 1748,739 1749,739 1749,739 1750,739 1751,739 1752,739 1754,739 1755,740 1757,740 1758,740 1760,740 1761,740 1762,740 1763,740 1764,740 1765,739 1766,739 1767,739 1768,739 1769,738 1770,738 1771,738 1772,738 1773,738 1774,738 1775,738 1777,738 1778,738 1780,738 1781,738 1783,738 1784,738 1785,739 1786,739 1787,739 1788,739 1789,739 1790,739 1791,739 1792,739 1793,739 1793,738 1794,738 1795,738 1795,738 1796,737 1797,736 1798,735 1799,734 1800,733 1800,732 1800,731 1799,731 1798,731 1797,731 1796,731 1795,731 1795,730 1794,730 1793,730 1792,730 1791,729 1790,728 1789,727 1788,726 1788,724 1788,722 1788,720 1788,718 1788,716 1789,714 1789,712 1789,710 1789,709 1788,707 1788,706 1787,705 1786,706 1785,708 1784,709 1783,710 1783,712 1782,713 1782,715 1781,716 1781,718 1781,719 1780,720 1780,722 1780,723 1779,723 1779,724 1779,724 1778,725 1777,726 1776,727 1775,727 1774,728 1774,729 1773,729 1772,730 1770,730 1769,729 1768,729 1767,729 1765,729 1764,728 1763,728 1762,727 1762,727 1761,726 1761,726 1761,725 1761,724 1761,723 1761,722 1761,721 1761,720 1761,719 1761,718 1760,718 1760,718 1759,717 1759,718 1758,718 1757,719 1756,720 1755,721 1754,723 1753,724 1752,726 1751,727 1751,727 1749,727 1748,727 1747,727 1747,727 1746,726 1745,726 1745,726 1744,725 1744,727 1744,728 1744,729 1743,730 1743,731 1743,732 1743,733 1744,734" /><polygon fill="#ffff66" points="1756,739 1757,739 1757,739 1757,739 1758,739 1758,739 1758,739 1759,739 1759,739 1760,738 1762,738 1764,737 1766,737 1768,736 1770,736 1771,735 1772,734 1770,734 1768,734 1767,733 1765,733 1764,732 1763,732 1762,731 1761,730 1761,729 1760,728 1760,727 1759,726 1758,725 1758,725 1757,724 1756,723 1756,724 1755,725 1755,726 1754,728 1754,730 1753,731 1752,732 1751,733 1750,733 1750,733 1749,733 1749,733 1748,733 1748,733 1747,732 1745,732 1745,733 1746,734 1746,735 1747,736 1748,737 1748,737 1749,738 1749,738 1750,738 1751,738 1752,738 1753,739 1754,739 1755,739 1755,739 1756,739" /><polygon fill="#ffff66" points="1781,737 1780,736 1779,736 1778,736 1778,736 1777,736 1776,735 1776,735 1776,734 1777,734 1777,733 1778,732 1779,731 1779,730 1780,729 1781,727 1781,726 1782,724 1782,723 1783,721 1783,720 1784,718 1785,717 1785,716 1786,715 1786,715 1786,716 1786,717 1786,718 1786,719 1786,721 1786,722 1786,724 1786,725 1786,727 1786,728 1786,730 1786,731 1786,732 1787,732 1787,733 1788,733 1789,733 1790,733 1790,733 1792,733 1793,733 1795,733 1797,733 1796,734 1795,735 1794,736 1794,736 1793,736 1792,736 1792,737 1791,737 1790,737 1789,737 1787,737 1786,737 1785,737 1784,737 1783,737 1781,737" /><polygon fill="#000000" points="330,141 336,134 330,136 325,134" /><polygon fill="#000000" points="330,120 336,127 330,124 325,127" /><polygon fill="#ffff00" points="277,137 277,150 298,143" /><polygon fill="#ffff00" points="319,137 319,150 298,143" /><polygon fill="#000000" points="693,142 687,133 691,135 691,119 695,119 695,135 699,133 693,142" /><polygon fill="#000000" points="693,117 699,126 695,124 695,140 691,140 691,124 687,126 693,117" /><polygon fill="#000000" points="247,61 234,65 236,62 215,62 215,59 236,59 234,56 247,61" /><polygon fill="#000000" points="212,61 224,56 222,59 243,59 243,62 222,62 224,65 212,61" /><polygon fill="#000000" points="376,345 370,336 374,337 374,322 378,322 378,337 382,336 376,345" /><polygon fill="#000000" points="376,319 382,328 378,327 378,342 374,342 374,327 370,328 376,319" /><line stroke="#ada110" stroke-dasharray="0 0" stroke-width="2" x1="1820" x2="1347" y1="248" y2="248" /><line stroke="#ada110" stroke-dasharray="0 0" stroke-width="2" x1="1192" x2="1192.0" y1="259" y2="218.0" /><line stroke="#ada110" stroke-dasharray="0 0" stroke-width="2" x1="1342" x2="1192.0" y1="218" y2="218.0" /><line stroke="#ada110" stroke-dasharray="0 0" stroke-width="2" x1="1191" x2="1189.9444" y1="105" y2="67.0" /><line stroke="#ada110" stroke-dasharray="0 0" stroke-width="2" x1="1343" x2="1343.0" y1="679" y2="67.0" /><line stroke="#ada110" stroke-dasharray="0 0" stroke-width="2" x1="1343.0" x2="1189.0" y1="67.0" y2="67.0" /><line stroke="#ada110" stroke-dasharray="0 0" stroke-width="2" x1="1193" x2="1193" y1="690" y2="679" /><line stroke="#ada110" stroke-dasharray="0 0" stroke-width="2" x1="1342" x2="1193.0" y1="679" y2="679.0" /><line stroke="#ada110" stroke-dasharray="0 0" stroke-width="2" x1="1193" x2="1193.0" y1="534" y2="523.0" /><line stroke="#ada110" stroke-dasharray="0 0" stroke-width="2" x1="1342" x2="1193.0" y1="523" y2="523.0" /><line stroke="#ada110" stroke-dasharray="0 0" stroke-width="2" x1="1194" x2="1194" y1="385" y2="374" /><line stroke="#ada110" stroke-dasharray="0 0" stroke-width="2" x1="1342" x2="1192.0" y1="374" y2="374.0" /><line stroke="#1a001a" stroke-dasharray="0 0" stroke-width="2" x1="462" x2="462" y1="345" y2="285" /><line stroke="#1a001a" stroke-dasharray="0 0" stroke-width="2" x1="436" x2="436" y1="270" y2="147" /><line stroke="#1a001a" stroke-dasharray="0 0" stroke-width="2" x1="465" x2="465" y1="270" y2="147" /><line stroke="#1a001a" stroke-dasharray="0 0" stroke-width="2" x1="411" x2="411" y1="270" y2="147" /><line stroke="#1a001a" stroke-dasharray="0 0" stroke-width="2" x1="435" x2="435" y1="344" y2="284" /><line stroke="#006666" stroke-dasharray="0 0" stroke-width="2" x1="230" x2="72" y1="144" y2="144" /><line stroke="#006666" stroke-dasharray="0 0" stroke-width="2" x1="534.0" x2="534" y1="753.0" y2="620" /><line stroke="#006666" stroke-dasharray="0 0" stroke-width="2" x1="1457.0" x2="1457" y1="193.0" y2="146" /><line stroke="#006666" stroke-dasharray="0 0" stroke-width="2" x1="1457.0" x2="1724" y1="193.0" y2="193" /><line stroke="#006666" stroke-dasharray="0 0" stroke-width="2" x1="1457" x2="1457" y1="345" y2="295" /><line stroke="#006666" stroke-dasharray="0 0" stroke-width="2" x1="1456" x2="1456" y1="494" y2="449" /><line stroke="#006666" stroke-dasharray="0 0" stroke-width="2" x1="1456" x2="1456" y1="651" y2="605" /><line stroke="#006666" stroke-dasharray="0 0" stroke-width="2" x1="1454.0" x2="1454" y1="802.0" y2="751" /><line stroke="#006666" stroke-dasharray="0 0" stroke-width="2" x1="1642" x2="1642.0" y1="802" y2="193.0" /><line stroke="#006666" stroke-dasharray="0 0" stroke-width="2" x1="859" x2="534.0" y1="600" y2="600.0" /><line stroke="#006666" stroke-dasharray="0 0" stroke-width="2" x1="859" x2="534.0" y1="753" y2="753.0" /><line stroke="#006666" stroke-dasharray="0 0" stroke-width="2" x1="857" x2="534.0" y1="450" y2="450.0" /><line stroke="#006666" stroke-dasharray="0 0" stroke-width="2" x1="858" x2="534.0" y1="293" y2="293.0" /><line stroke="#006666" stroke-dasharray="0 0" stroke-width="2" x1="866" x2="263" y1="144" y2="144" /><line stroke="#006666" stroke-dasharray="0 0" stroke-width="2" x1="217" x2="217.0" y1="194" y2="144.0" /><line stroke="#006666" stroke-dasharray="0 0" stroke-width="2" x1="534" x2="534" y1="272" y2="240" /><line stroke="#006666" stroke-dasharray="0 0" stroke-width="2" x1="534" x2="534" y1="328" y2="145" /><line stroke="#006666" stroke-dasharray="0 0" stroke-width="2" x1="534" x2="534" y1="483" y2="349" /><line stroke="#006666" stroke-dasharray="0 0" stroke-width="2" x1="534" x2="534" y1="634" y2="508" /><line stroke="#006666" stroke-dasharray="0 0" stroke-width="2" x1="1454.0" x2="1642.0" y1="802.0" y2="802.0" /><line stroke="#006666" stroke-dasharray="0 0" stroke-width="2" x1="1456.0" x2="1642.0" y1="346.0" y2="346.0" /><line stroke="#006666" stroke-dasharray="0 0" stroke-width="2" x1="1456" x2="1641" y1="496" y2="495" /><line stroke="#006666" stroke-dasharray="0 0" stroke-width="2" x1="1454.0" x2="1642.0" y1="652.0" y2="652.0" /><line stroke="#006666" stroke-dasharray="0 0" stroke-width="2" x1="401" x2="335.0" y1="60" y2="60.0" /><line stroke="#006666" stroke-dasharray="0 0" stroke-width="2" x1="335.0" x2="335.0" y1="144.0" y2="60.0" /><line stroke="#006666" stroke-dasharray="0 0" stroke-width="2" x1="217" x2="99" y1="194" y2="194" /><line stroke="#008000" stroke-dasharray="0 0" stroke-width="2" x1="502" x2="503.0049" y1="799" y2="187.0" /><line stroke="#008000" stroke-dasharray="0 0" stroke-width="2" x1="1686" x2="1254" y1="145" y2="145" /><line stroke="#008000" stroke-dasharray="0 0" stroke-width="2" x1="390" x2="390" y1="251" y2="144" /><line stroke="#008000" stroke-dasharray="0 0" stroke-width="2" x1="693" x2="693" y1="336" y2="294" /><line stroke="#008000" stroke-dasharray="0 0" stroke-width="2" x1="695" x2="695" y1="494" y2="451" /><line stroke="#008000" stroke-dasharray="0 0" stroke-width="2" x1="695" x2="695" y1="644" y2="601" /><line stroke="#008000" stroke-dasharray="0 0" stroke-width="2" x1="695" x2="695" y1="799" y2="754" /><line stroke="#008000" stroke-dasharray="0 0" stroke-width="2" x1="405" x2="405" y1="653" y2="570" /><line stroke="#008000" stroke-dasharray="0 0" stroke-width="2" x1="405.0" x2="81" y1="488.0" y2="488" /><line stroke="#008000" stroke-dasharray="0 0" stroke-width="2" x1="1531" x2="1257" y1="751" y2="751" /><line stroke="#008000" stroke-dasharray="0 0" stroke-width="2" x1="1531" x2="1257" y1="602" y2="602" /><line stroke="#008000" stroke-dasharray="0 0" stroke-width="2" x1="1528" x2="1254" y1="448" y2="448" /><line stroke="#008000" stroke-dasharray="0 0" stroke-width="2" x1="1531" x2="1257" y1="294" y2="294" /><line stroke="#008000" stroke-dasharray="0 0" stroke-width="2" x1="692" x2="692" y1="187" y2="145" /><line stroke="#008000" stroke-dasharray="0 0" stroke-width="2" x1="501" x2="89" y1="345" y2="345" /><line stroke="#008000" stroke-dasharray="0 0" stroke-width="2" x1="695" x2="502.0" y1="799" y2="799.0" /><line stroke="#008000" stroke-dasharray="0 0" stroke-width="2" x1="405.0" x2="89" y1="609.0" y2="609" /><line stroke="#008000" stroke-dasharray="0 0" stroke-width="2" x1="403.0" x2="403" y1="609.0" y2="347" /><line stroke="#008000" stroke-dasharray="0 0" stroke-width="2" x1="693.0" x2="502.9984" y1="187.0" y2="187.0" /><line stroke="#008000" stroke-dasharray="0 0" stroke-width="2" x1="695.0" x2="504" y1="337.0" y2="337" /><line stroke="#008000" stroke-dasharray="0 0" stroke-width="2" x1="695" x2="504" y1="494" y2="494" /><line stroke="#008000" stroke-dasharray="0 0" stroke-width="2" x1="695" x2="504" y1="644" y2="644" /><line stroke="#008000" stroke-dasharray="0 0" stroke-width="2" x1="1531" x2="1531" y1="749" y2="146" /><line stroke="#008000" stroke-dasharray="0 0" stroke-width="2" x1="1972" x2="1972" y1="689" y2="733" /><line stroke="#008000" stroke-dasharray="0 0" stroke-width="2" x1="247" x2="247.0" y1="345" y2="36.0" /><line stroke="#008000" stroke-dasharray="0 0" stroke-width="2" x1="1662.0" x2="247.0" y1="36.0" y2="36.0" /><line stroke="#008000" stroke-dasharray="0 0" stroke-width="2" x1="1662" x2="1662.0" y1="145" y2="36.0" /><line stroke="#008000" stroke-dasharray="0 0" stroke-width="2" x1="390" x2="247.0" y1="251" y2="251.0" /><line stroke="#008000" stroke-dasharray="0 0" stroke-width="2" x1="403.0" x2="262" y1="653.0" y2="653" /><text fill="gray" text-anchor="middle" x="935" y="28">Площадка дегазаторов воды С 1/1 - С 1/5
			</text><text fill="gray" text-anchor="middle" x="1002" y="100">С 1/ 1
			</text><text fill="gray" text-anchor="middle" x="1003" y="248">С 1/ 2
			</text><text fill="gray" text-anchor="middle" x="1003" y="405">С 1/ 3
			</text><text fill="gray" text-anchor="middle" x="1009" y="556">С 1/ 4
			</text><text fill="gray" text-anchor="middle" x="1014" y="707">С 1/ 5
			</text><text fill="gray" text-anchor="middle" x="1745" y="221">   Цех № 1/1
			</text><text fill="gray" text-anchor="middle" x="57" y="613">ЦПС
			</text><text fill="gray" text-anchor="middle" x="433" y="273">Реагентное
			</text><text fill="gray" text-anchor="middle" x="50" y="350">   УПН Iл
			</text><text fill="gray" text-anchor="middle" x="53" y="491">   УПН IIл
			</text><text fill="gray" text-anchor="middle" x="281" y="706">На размыв 
			</text><text fill="gray" text-anchor="middle" x="290" y="649">Система     
			</text><text fill="gray" text-anchor="middle" x="1805" y="255">ФСНД
			</text><text fill="gray" text-anchor="middle" x="1810" y="394">    ЕД-1/1-4
			</text><text fill="gray" text-anchor="middle" x="1847" y="460">ЕШ3
			</text><text fill="gray" text-anchor="middle" x="2" y="661">Var
				</text><text fill="gray" text-anchor="middle" x="1804" y="206">%
					</text><text fill="gray" text-anchor="middle" x="1807" y="146">%
					</text><text fill="gray" text-anchor="middle" x="56" y="149">Куст №6
				</text><text fill="gray" text-anchor="middle" x="412" y="64"> С2
			</text><text fill="gray" text-anchor="middle" x="55" y="199">Куст №7
				</text><text fill="gray" text-anchor="middle" x="84" y="194">
				</text><text fill="gray" text-anchor="middle" x="1768" y="634">ТЕСТ
					</text><text fill="gray" text-anchor="middle" x="1768" y="633">СЪЕМ ЗВУКА
					</text><text fill="gray" text-anchor="middle" x="1772" y="767">Блокирован
					</text><text fill="gray" text-anchor="middle" x="1773" y="767">В работе
					</text><text fill="gray" text-anchor="middle" x="1773" y="674">Сброс
					</text><text fill="gray" text-anchor="middle" x="670" y="313">%
				</text><text fill="gray" text-anchor="middle" x="353" y="365">%
				</text><text fill="gray" text-anchor="middle" x="1745" y="235">None</text><text fill="gray" text-anchor="middle" x="433" y="287"> хозяйство</text><text fill="gray" text-anchor="middle" x="281" y="720">шлама</text><text fill="gray" text-anchor="middle" x="290" y="663">СТПВ и ПП(Ш)</text><text fill="gray" text-anchor="middle" x="1810" y="408">None</text><path d="M16 24.5L0.25 33.5933L0.25 15.4067L16 24.5Z M16 24.5L31.75 15.4067V33.5933L16 24.5Z M26.5 10.5C26.5 4.70101 21.799 0 16 0C10.201 0 5.5 4.70101 5.5 10.5L26.5 10.5Z M17 0.047V0H16C16.3373 0 16.6709 0.015903 17 0.047ZM17 10.5H16V24.5H17V10.5Z" fill="gray" stroke="black" transform="translate(294,305)" /><path d="M16 24.5L0.25 33.5933L0.25 15.4067L16 24.5Z M16 24.5L31.75 15.4067V33.5933L16 24.5Z M26.5 10.5C26.5 4.70101 21.799 0 16 0C10.201 0 5.5 4.70101 5.5 10.5L26.5 10.5Z M17 0.047V0H16C16.3373 0 16.6709 0.015903 17 0.047ZM17 10.5H16V24.5H17V10.5Z" fill="gray" stroke="black" transform="translate(308,569)" /><path d="M16 24.5L0.25 33.5933L0.25 15.4067L16 24.5Z M16 24.5L31.75 15.4067V33.5933L16 24.5Z M26.5 10.5C26.5 4.70101 21.799 0 16 0C10.201 0 5.5 4.70101 5.5 10.5L26.5 10.5Z M17 0.047V0H16C16.3373 0 16.6709 0.015903 17 0.047ZM17 10.5H16V24.5H17V10.5Z" fill="gray" stroke="black" transform="translate(308,447)" /><path d="M16 24.5L0.25 33.5933L0.25 15.4067L16 24.5Z M16 24.5L31.75 15.4067V33.5933L16 24.5Z M26.5 10.5C26.5 4.70101 21.799 0 16 0C10.201 0 5.5 4.70101 5.5 10.5L26.5 10.5Z M17 0.047V0H16C16.3373 0 16.6709 0.015903 17 0.047ZM17 10.5H16V24.5H17V10.5Z" fill="gray" stroke="black" transform="translate(397,668)" /><path d="M16 24.5L0.25 33.5933L0.25 15.4067L16 24.5Z M16 24.5L31.75 15.4067V33.5933L16 24.5Z M26.5 10.5C26.5 4.70101 21.799 0 16 0C10.201 0 5.5 4.70101 5.5 10.5L26.5 10.5Z M17 0.047V0H16C16.3373 0 16.6709 0.015903 17 0.047ZM17 10.5H16V24.5H17V10.5Z" fill="gray" stroke="black" transform="translate(550,149)" /><path d="M16 24.5L0.25 33.5933L0.25 15.4067L16 24.5Z M16 24.5L31.75 15.4067V33.5933L16 24.5Z M26.5 10.5C26.5 4.70101 21.799 0 16 0C10.201 0 5.5 4.70101 5.5 10.5L26.5 10.5Z M17 0.047V0H16C16.3373 0 16.6709 0.015903 17 0.047ZM17 10.5H16V24.5H17V10.5Z" fill="gray" stroke="black" transform="translate(753,176)" /><path d="M16 24.5L0.25 33.5933L0.25 15.4067L16 24.5Z M16 24.5L31.75 15.4067V33.5933L16 24.5Z M26.5 10.5C26.5 4.70101 21.799 0 16 0C10.201 0 5.5 4.70101 5.5 10.5L26.5 10.5Z M17 0.047V0H16C16.3373 0 16.6709 0.015903 17 0.047ZM17 10.5H16V24.5H17V10.5Z" fill="gray" stroke="black" transform="translate(612,252)" /><path d="M16 24.5L0.25 33.5933L0.25 15.4067L16 24.5Z M16 24.5L31.75 15.4067V33.5933L16 24.5Z M26.5 10.5C26.5 4.70101 21.799 0 16 0C10.201 0 5.5 4.70101 5.5 10.5L26.5 10.5Z M17 0.047V0H16C16.3373 0 16.6709 0.015903 17 0.047ZM17 10.5H16V24.5H17V10.5Z" fill="gray" stroke="black" transform="translate(550,298)" /><path d="M16 24.5L0.25 33.5933L0.25 15.4067L16 24.5Z M16 24.5L31.75 15.4067V33.5933L16 24.5Z M26.5 10.5C26.5 4.70101 21.799 0 16 0C10.201 0 5.5 4.70101 5.5 10.5L26.5 10.5Z M17 0.047V0H16C16.3373 0 16.6709 0.015903 17 0.047ZM17 10.5H16V24.5H17V10.5Z" fill="gray" stroke="black" transform="translate(753,327)" /><path d="M16 24.5L0.25 33.5933L0.25 15.4067L16 24.5Z M16 24.5L31.75 15.4067V33.5933L16 24.5Z M26.5 10.5C26.5 4.70101 21.799 0 16 0C10.201 0 5.5 4.70101 5.5 10.5L26.5 10.5Z M17 0.047V0H16C16.3373 0 16.6709 0.015903 17 0.047ZM17 10.5H16V24.5H17V10.5Z" fill="gray" stroke="black" transform="translate(612,414)" /><path d="M16 24.5L0.25 33.5933L0.25 15.4067L16 24.5Z M16 24.5L31.75 15.4067V33.5933L16 24.5Z M26.5 10.5C26.5 4.70101 21.799 0 16 0C10.201 0 5.5 4.70101 5.5 10.5L26.5 10.5Z M17 0.047V0H16C16.3373 0 16.6709 0.015903 17 0.047ZM17 10.5H16V24.5H17V10.5Z" fill="gray" stroke="black" transform="translate(550,455)" /><path d="M16 24.5L0.25 33.5933L0.25 15.4067L16 24.5Z M16 24.5L31.75 15.4067V33.5933L16 24.5Z M26.5 10.5C26.5 4.70101 21.799 0 16 0C10.201 0 5.5 4.70101 5.5 10.5L26.5 10.5Z M17 0.047V0H16C16.3373 0 16.6709 0.015903 17 0.047ZM17 10.5H16V24.5H17V10.5Z" fill="gray" stroke="black" transform="translate(753,480)" /><path d="M16 24.5L0.25 33.5933L0.25 15.4067L16 24.5Z M16 24.5L31.75 15.4067V33.5933L16 24.5Z M26.5 10.5C26.5 4.70101 21.799 0 16 0C10.201 0 5.5 4.70101 5.5 10.5L26.5 10.5Z M17 0.047V0H16C16.3373 0 16.6709 0.015903 17 0.047ZM17 10.5H16V24.5H17V10.5Z" fill="gray" stroke="black" transform="translate(612,562)" /><path d="M16 24.5L0.25 33.5933L0.25 15.4067L16 24.5Z M16 24.5L31.75 15.4067V33.5933L16 24.5Z M26.5 10.5C26.5 4.70101 21.799 0 16 0C10.201 0 5.5 4.70101 5.5 10.5L26.5 10.5Z M17 0.047V0H16C16.3373 0 16.6709 0.015903 17 0.047ZM17 10.5H16V24.5H17V10.5Z" fill="gray" stroke="black" transform="translate(550,606)" /><path d="M16 24.5L0.25 33.5933L0.25 15.4067L16 24.5Z M16 24.5L31.75 15.4067V33.5933L16 24.5Z M26.5 10.5C26.5 4.70101 21.799 0 16 0C10.201 0 5.5 4.70101 5.5 10.5L26.5 10.5Z M17 0.047V0H16C16.3373 0 16.6709 0.015903 17 0.047ZM17 10.5H16V24.5H17V10.5Z" fill="gray" stroke="black" transform="translate(753,637)" /><path d="M16 24.5L0.25 33.5933L0.25 15.4067L16 24.5Z M16 24.5L31.75 15.4067V33.5933L16 24.5Z M26.5 10.5C26.5 4.70101 21.799 0 16 0C10.201 0 5.5 4.70101 5.5 10.5L26.5 10.5Z M17 0.047V0H16C16.3373 0 16.6709 0.015903 17 0.047ZM17 10.5H16V24.5H17V10.5Z" fill="gray" stroke="black" transform="translate(753,789)" /><path d="M16 24.5L0.25 33.5933L0.25 15.4067L16 24.5Z M16 24.5L31.75 15.4067V33.5933L16 24.5Z M26.5 10.5C26.5 4.70101 21.799 0 16 0C10.201 0 5.5 4.70101 5.5 10.5L26.5 10.5Z M17 0.047V0H16C16.3373 0 16.6709 0.015903 17 0.047ZM17 10.5H16V24.5H17V10.5Z" fill="gray" stroke="black" transform="translate(612,713)" /><path d="M16 24.5L0.25 33.5933L0.25 15.4067L16 24.5Z M16 24.5L31.75 15.4067V33.5933L16 24.5Z M26.5 10.5C26.5 4.70101 21.799 0 16 0C10.201 0 5.5 4.70101 5.5 10.5L26.5 10.5Z M17 0.047V0H16C16.3373 0 16.6709 0.015903 17 0.047ZM17 10.5H16V24.5H17V10.5Z" fill="gray" stroke="black" transform="translate(550,761)" /><path d="M16 24.5L0.25 33.5933L0.25 15.4067L16 24.5Z M16 24.5L31.75 15.4067V33.5933L16 24.5Z M26.5 10.5C26.5 4.70101 21.799 0 16 0C10.201 0 5.5 4.70101 5.5 10.5L26.5 10.5Z M17 0.047V0H16C16.3373 0 16.6709 0.015903 17 0.047ZM17 10.5H16V24.5H17V10.5Z" fill="gray" stroke="black" transform="translate(1556,168)" /><path d="M16 24.5L0.25 33.5933L0.25 15.4067L16 24.5Z M16 24.5L31.75 15.4067V33.5933L16 24.5Z M26.5 10.5C26.5 4.70101 21.799 0 16 0C10.201 0 5.5 4.70101 5.5 10.5L26.5 10.5Z M17 0.047V0H16C16.3373 0 16.6709 0.015903 17 0.047ZM17 10.5H16V24.5H17V10.5Z" fill="gray" stroke="black" transform="translate(1452,105)" /><path d="M16 24.5L0.25 33.5933L0.25 15.4067L16 24.5Z M16 24.5L31.75 15.4067V33.5933L16 24.5Z M26.5 10.5C26.5 4.70101 21.799 0 16 0C10.201 0 5.5 4.70101 5.5 10.5L26.5 10.5Z M17 0.047V0H16C16.3373 0 16.6709 0.015903 17 0.047ZM17 10.5H16V24.5H17V10.5Z" fill="gray" stroke="black" transform="translate(1452,255)" /><path d="M16 24.5L0.25 33.5933L0.25 15.4067L16 24.5Z M16 24.5L31.75 15.4067V33.5933L16 24.5Z M26.5 10.5C26.5 4.70101 21.799 0 16 0C10.201 0 5.5 4.70101 5.5 10.5L26.5 10.5Z M17 0.047V0H16C16.3373 0 16.6709 0.015903 17 0.047ZM17 10.5H16V24.5H17V10.5Z" fill="gray" stroke="black" transform="translate(1556,321)" /><path d="M16 24.5L0.25 33.5933L0.25 15.4067L16 24.5Z M16 24.5L31.75 15.4067V33.5933L16 24.5Z M26.5 10.5C26.5 4.70101 21.799 0 16 0C10.201 0 5.5 4.70101 5.5 10.5L26.5 10.5Z M17 0.047V0H16C16.3373 0 16.6709 0.015903 17 0.047ZM17 10.5H16V24.5H17V10.5Z" fill="gray" stroke="black" transform="translate(1452,408)" /><path d="M16 24.5L0.25 33.5933L0.25 15.4067L16 24.5Z M16 24.5L31.75 15.4067V33.5933L16 24.5Z M26.5 10.5C26.5 4.70101 21.799 0 16 0C10.201 0 5.5 4.70101 5.5 10.5L26.5 10.5Z M17 0.047V0H16C16.3373 0 16.6709 0.015903 17 0.047ZM17 10.5H16V24.5H17V10.5Z" fill="gray" stroke="black" transform="translate(1555,471)" /><path d="M16 24.5L0.25 33.5933L0.25 15.4067L16 24.5Z M16 24.5L31.75 15.4067V33.5933L16 24.5Z M26.5 10.5C26.5 4.70101 21.799 0 16 0C10.201 0 5.5 4.70101 5.5 10.5L26.5 10.5Z M17 0.047V0H16C16.3373 0 16.6709 0.015903 17 0.047ZM17 10.5H16V24.5H17V10.5Z" fill="gray" stroke="black" transform="translate(1452,562)" /><path d="M16 24.5L0.25 33.5933L0.25 15.4067L16 24.5Z M16 24.5L31.75 15.4067V33.5933L16 24.5Z M26.5 10.5C26.5 4.70101 21.799 0 16 0C10.201 0 5.5 4.70101 5.5 10.5L26.5 10.5Z M17 0.047V0H16C16.3373 0 16.6709 0.015903 17 0.047ZM17 10.5H16V24.5H17V10.5Z" fill="gray" stroke="black" transform="translate(1556,627)" /><path d="M16 24.5L0.25 33.5933L0.25 15.4067L16 24.5Z M16 24.5L31.75 15.4067V33.5933L16 24.5Z M26.5 10.5C26.5 4.70101 21.799 0 16 0C10.201 0 5.5 4.70101 5.5 10.5L26.5 10.5Z M17 0.047V0H16C16.3373 0 16.6709 0.015903 17 0.047ZM17 10.5H16V24.5H17V10.5Z" fill="gray" stroke="black" transform="translate(1452,712)" /><path d="M16 24.5L0.25 33.5933L0.25 15.4067L16 24.5Z M16 24.5L31.75 15.4067V33.5933L16 24.5Z M26.5 10.5C26.5 4.70101 21.799 0 16 0C10.201 0 5.5 4.70101 5.5 10.5L26.5 10.5Z M17 0.047V0H16C16.3373 0 16.6709 0.015903 17 0.047ZM17 10.5H16V24.5H17V10.5Z" fill="gray" stroke="black" transform="translate(1532,777)" /><path d="M16 24.5L0.25 33.5933L0.25 15.4067L16 24.5Z M16 24.5L31.75 15.4067V33.5933L16 24.5Z M26.5 10.5C26.5 4.70101 21.799 0 16 0C10.201 0 5.5 4.70101 5.5 10.5L26.5 10.5Z M17 0.047V0H16C16.3373 0 16.6709 0.015903 17 0.047ZM17 10.5H16V24.5H17V10.5Z" fill="gray" stroke="black" transform="translate(1698,416)" /><path d="M16 24.5L0.25 33.5933L0.25 15.4067L16 24.5Z M16 24.5L31.75 15.4067V33.5933L16 24.5Z M26.5 10.5C26.5 4.70101 21.799 0 16 0C10.201 0 5.5 4.70101 5.5 10.5L26.5 10.5Z M17 0.047V0H16C16.3373 0 16.6709 0.015903 17 0.047ZM17 10.5H16V24.5H17V10.5Z" fill="gray" stroke="black" transform="translate(1698,352)" /><path d="M16 24.5L0.25 33.5933L0.25 15.4067L16 24.5Z M16 24.5L31.75 15.4067V33.5933L16 24.5Z M26.5 10.5C26.5 4.70101 21.799 0 16 0C10.201 0 5.5 4.70101 5.5 10.5L26.5 10.5Z M17 0.047V0H16C16.3373 0 16.6709 0.015903 17 0.047ZM17 10.5H16V24.5H17V10.5Z" fill="gray" stroke="black" transform="translate(111,104)" /><path d="M16 24.5L0.25 33.5933L0.25 15.4067L16 24.5Z M16 24.5L31.75 15.4067V33.5933L16 24.5Z M26.5 10.5C26.5 4.70101 21.799 0 16 0C10.201 0 5.5 4.70101 5.5 10.5L26.5 10.5Z M17 0.047V0H16C16.3373 0 16.6709 0.015903 17 0.047ZM17 10.5H16V24.5H17V10.5Z" fill="gray" stroke="black" transform="translate(111,154)" /><path d="M16 24.5L0.25 33.5933L0.25 15.4067L16 24.5Z M16 24.5L31.75 15.4067V33.5933L16 24.5Z M26.5 10.5C26.5 4.70101 21.799 0 16 0C10.201 0 5.5 4.70101 5.5 10.5L26.5 10.5Z M17 0.047V0H16C16.3373 0 16.6709 0.015903 17 0.047ZM17 10.5H16V24.5H17V10.5Z" fill="gray" stroke="black" transform="translate(613,103)" /><path d="M16 24.5L0.25 33.5933L0.25 15.4067L16 24.5Z M16 24.5L31.75 15.4067V33.5933L16 24.5Z M26.5 10.5C26.5 4.70101 21.799 0 16 0C10.201 0 5.5 4.70101 5.5 10.5L26.5 10.5Z M17 0.047V0H16C16.3373 0 16.6709 0.015903 17 0.047ZM17 10.5H16V24.5H17V10.5Z" fill="gray" stroke="black" transform="translate(212,56)" /><path d="M16 24.5L0.25 33.5933L0.25 15.4067L16 24.5Z M16 24.5L31.75 15.4067V33.5933L16 24.5Z M26.5 10.5C26.5 4.70101 21.799 0 16 0C10.201 0 5.5 4.70101 5.5 10.5L26.5 10.5Z M17 0.047V0H16C16.3373 0 16.6709 0.015903 17 0.047ZM17 10.5H16V24.5H17V10.5Z" fill="gray" stroke="black" transform="translate(299,316)" /></svg>