<?xml version="1.0" encoding="utf-8" ?>
<svg baseProfile="tiny" height="100%" version="1.2" width="100%" xmlns="http://www.w3.org/2000/svg" xmlns:ev="http://www.w3.org/2001/xml-events" xmlns:xlink="http://www.w3.org/1999/xlink"><defs /><rect fill="#9a9a9a" height="96" stroke="black" stroke-width="1" width="99" x="1729" y="710" /><rect fill="#c6c6c6" height="88" stroke="black" stroke-width="1" width="89" x="1733" y="713" /><rect fill="#95ef08" height="16" stroke="black" stroke-width="1" width="116" x="327" y="90" /><rect fill="#95ef08" height="16" stroke="black" stroke-width="1" width="116" x="326" y="113" /><rect fill="#e1e1e1" height="94" stroke="black" stroke-width="1" width="299" x="3" y="554" /><rect fill="#e1e1e1" height="94" stroke="black" stroke-width="1" width="299" x="3" y="455" /><rect fill="#e1e1e1" height="94" stroke="black" stroke-width="1" width="299" x="3" y="356" /><rect fill="#e1e1e1" height="94" stroke="black" stroke-width="1" width="299" x="3" y="257" /><rect fill="#e1e1e1" height="94" stroke="black" stroke-width="1" width="299" x="3" y="158" /><rect fill="#e1e1e1" height="94" stroke="black" stroke-width="1" width="299" x="3" y="59" /><rect fill="#ffffff" height="21" stroke="black" stroke-width="1" width="67" x="1795" y="143" /><rect fill="#95ef08" height="16" stroke="black" stroke-width="1" width="116" x="1442" y="96" /><rect fill="#95ef08" height="16" stroke="black" stroke-width="1" width="116" x="1442" y="119" /><rect fill="#95ef08" height="16" stroke="black" stroke-width="1" width="21" x="1764" y="174" /><rect fill="#95ef08" height="16" stroke="black" stroke-width="1" width="21" x="1801" y="174" /><rect fill="#95ef08" height="16" stroke="black" stroke-width="1" width="21" x="1839" y="174" /><rect fill="#95ef08" height="16" stroke="black" stroke-width="1" width="21" x="1764" y="197" /><rect fill="#95ef08" height="16" stroke="black" stroke-width="1" width="21" x="1801" y="197" /><rect fill="#95ef08" height="16" stroke="black" stroke-width="1" width="21" x="1839" y="197" /><rect fill="#3E5F8A" height="45" stroke="black" stroke-width="1" width="99" x="0" y="665" /><rect fill="#3E5F8A" height="27" stroke="black" stroke-width="1" width="93" x="1564" y="375" /><rect fill="#3E5F8A" height="27" stroke="black" stroke-width="1" width="93" x="1564" y="406" /><rect fill="#3E5F8A" height="27" stroke="black" stroke-width="1" width="93" x="1564" y="438" /><rect fill="#3E5F8A" height="27" stroke="black" stroke-width="1" width="93" x="1669" y="375" /><rect fill="#3E5F8A" height="27" stroke="black" stroke-width="1" width="93" x="1669" y="406" /><rect fill="#3E5F8A" height="27" stroke="black" stroke-width="1" width="93" x="1669" y="438" /><rect fill="#e1e1e1" height="94" stroke="black" stroke-width="1" width="299" x="1092" y="58" /><rect fill="#3E5F8A" height="36" stroke="black" stroke-width="1" width="201" x="1518" y="26" /><polygon fill="#9a9a9a" points="1766,780 1765,780 1764,780 1763,780 1762,780 1761,780 1760,780 1759,779 1759,779 1758,779 1757,779 1756,778 1755,778 1755,778 1754,778 1753,777 1752,777 1751,776 1750,775 1749,774 1748,772 1747,771 1746,770 1745,769 1744,767 1744,766 1743,765 1743,764 1742,762 1742,761 1742,760 1741,759 1741,758 1741,756 1742,755 1742,754 1742,753 1742,752 1743,751 1743,750 1743,749 1744,748 1744,747 1744,746 1744,745 1745,744 1745,743 1745,742 1746,741 1746,742 1747,743 1747,744 1748,745 1748,746 1749,747 1749,748 1750,749 1750,750 1751,750 1752,751 1752,752 1753,752 1753,753 1754,753 1755,753 1755,753 1756,753 1756,752 1757,752 1758,751 1758,750 1759,750 1759,749 1760,748 1761,747 1761,746 1762,745 1762,744 1763,743 1763,742 1764,741 1764,740 1764,739 1764,738 1764,737 1764,737 1764,736 1764,735 1764,734 1764,733 1765,732 1765,731 1765,730 1766,729 1766,728 1767,727 1768,726 1768,729 1768,731 1768,733 1769,735 1769,737 1769,739 1769,740 1770,741 1770,742 1771,743 1771,744 1771,744 1772,745 1772,745 1772,745 1773,744 1773,744 1774,743 1774,742 1775,740 1775,740 1776,739 1777,739 1777,740 1777,740 1777,741 1778,742 1778,743 1778,744 1778,745 1778,745 1779,746 1779,747 1779,748 1779,748 1780,749 1780,749 1780,749 1781,750 1782,749 1782,749 1783,748 1783,747 1784,747 1784,746 1784,745 1784,745 1784,744 1784,743 1784,742 1784,742 1784,741 1784,740 1784,739 1784,739 1784,738 1784,736 1784,735 1785,734 1786,733 1786,732 1787,731 1788,731 1789,730 1789,729 1790,729 1791,728 1792,727 1792,726 1792,725 1793,724 1793,723 1794,724 1796,726 1797,727 1798,728 1799,730 1800,731 1800,732 1801,734 1801,735 1801,737 1801,738 1801,739 1801,741 1800,742 1800,743 1800,744 1800,746 1800,747 1800,749 1800,750 1799,752 1799,753 1799,754 1799,755 1798,756 1798,757 1798,758 1798,759 1798,760 1799,761 1799,761 1800,762 1801,762 1802,762 1803,762 1804,761 1805,761 1806,760 1806,760 1807,759 1807,758 1808,757 1809,756 1809,755 1810,754 1811,753 1812,752 1813,751 1813,753 1814,754 1814,755 1814,756 1814,757 1814,757 1814,757 1814,758 1814,758 1814,758 1814,759 1814,759 1814,760 1813,760 1813,761 1813,762 1813,765 1812,767 1812,769 1811,771 1811,773 1810,774 1809,775 1808,776 1807,777 1806,778 1806,779 1805,779 1804,780 1803,780 1802,780 1802,780 1801,780 1800,780 1799,780 1798,780 1797,780 1796,780 1795,780 1794,780 1793,780 1792,779 1791,779 1790,779 1789,779 1788,779 1787,779 1786,779 1785,779 1783,779 1782,779 1780,779 1779,779 1778,779 1777,779 1775,779 1774,780 1773,780 1772,780 1771,780 1769,780 1768,780 1767,780 1766,780" /><polygon fill="#9a9a9a" points="1766,780 1765,780 1764,780 1763,779 1762,779 1761,779 1761,779 1760,779 1759,779 1759,778 1758,778 1757,778 1756,778 1756,777 1755,777 1754,777 1754,777 1753,776 1752,775 1751,774 1750,772 1749,771 1748,770 1747,769 1747,768 1746,767 1746,766 1745,765 1745,764 1744,763 1744,762 1744,761 1744,759 1744,759 1744,758 1744,757 1745,756 1745,755 1745,754 1745,753 1746,752 1746,751 1746,750 1746,749 1747,749 1747,748 1747,747 1747,746 1748,745 1748,746 1749,746 1749,747 1750,748 1750,749 1751,750 1751,751 1752,752 1752,752 1752,753 1753,754 1753,754 1754,755 1755,755 1755,755 1756,755 1756,755 1757,755 1757,755 1758,754 1758,754 1759,753 1759,752 1760,752 1760,751 1761,750 1761,749 1762,748 1762,747 1763,746 1763,746 1764,745 1764,744 1764,743 1764,743 1764,742 1764,741 1764,740 1764,739 1764,738 1764,738 1764,737 1765,736 1765,735 1765,734 1766,734 1767,733 1768,732 1768,734 1768,736 1768,738 1768,740 1769,741 1769,743 1770,744 1770,745 1771,746 1771,747 1772,747 1772,748 1773,748 1773,748 1773,748 1773,748 1774,747 1774,746 1775,745 1776,744 1776,744 1777,743 1777,743 1777,744 1778,744 1778,745 1778,746 1778,746 1779,747 1779,748 1779,749 1780,749 1780,750 1780,751 1781,751 1781,752 1782,752 1782,752 1783,752 1783,752 1784,752 1784,751 1785,750 1785,750 1785,749 1785,749 1785,748 1785,747 1785,747 1785,746 1785,745 1785,745 1785,744 1785,743 1785,743 1785,742 1785,741 1786,740 1786,739 1787,738 1787,737 1788,736 1789,736 1789,735 1790,734 1791,734 1791,733 1792,732 1792,732 1793,731 1793,730 1793,729 1795,730 1796,731 1797,732 1798,734 1799,735 1799,736 1800,737 1800,738 1800,740 1800,741 1800,742 1800,743 1800,744 1800,746 1799,747 1799,748 1799,749 1799,750 1799,752 1799,753 1799,754 1799,755 1799,756 1798,757 1798,758 1798,759 1798,760 1798,761 1798,761 1798,762 1799,763 1799,763 1800,763 1801,763 1802,763 1803,763 1804,762 1804,762 1805,761 1806,761 1806,760 1807,759 1807,758 1808,757 1809,756 1809,755 1810,754 1811,754 1811,755 1812,756 1812,757 1812,758 1812,759 1812,759 1812,759 1812,760 1812,760 1812,760 1812,760 1812,761 1812,761 1811,762 1811,763 1811,764 1811,766 1810,768 1810,770 1809,771 1809,773 1808,774 1807,775 1807,776 1806,777 1805,778 1804,778 1804,779 1803,779 1802,779 1802,779 1801,780 1800,780 1799,779 1798,779 1798,779 1797,779 1796,779 1795,779 1794,779 1793,779 1792,779 1792,779 1791,779 1790,779 1789,778 1788,778 1787,778 1786,778 1784,778 1783,778 1782,778 1780,778 1779,779 1777,779 1776,779 1775,779 1773,779 1772,779 1770,779 1769,779 1768,779 1767,780 1766,780" /><polygon fill="#9a9a9a" points="1753,776 1753,775 1752,774 1752,774 1752,773 1751,773 1751,772 1751,771 1750,771 1750,770 1750,769 1750,769 1750,768 1750,768 1750,767 1750,766 1750,766 1750,765 1750,764 1750,764 1749,763 1749,762 1749,761 1748,760 1748,759 1748,759 1748,758 1748,757 1748,757 1748,756 1748,756 1749,756 1750,756 1751,756 1752,757 1753,757 1754,758 1755,758 1756,758 1757,759 1758,759 1758,759 1759,758 1759,757 1760,756 1760,755 1760,754 1761,753 1761,753 1762,752 1763,751 1764,750 1765,749 1766,748 1766,748 1767,747 1768,746 1768,746 1769,747 1769,747 1769,747 1769,748 1769,749 1769,749 1770,750 1770,750 1770,751 1770,752 1771,752 1771,753 1771,754 1772,754 1773,755 1773,755 1773,755 1773,754 1773,753 1773,753 1774,752 1774,751 1774,750 1774,749 1774,748 1775,747 1775,747 1775,746 1776,746 1776,745 1777,745 1778,746 1778,747 1778,749 1778,750 1778,751 1777,753 1777,754 1776,755 1775,757 1775,758 1774,759 1774,760 1774,761 1774,762 1774,763 1775,763 1777,763 1778,763 1779,762 1779,761 1779,760 1779,759 1779,758 1779,756 1779,755 1778,754 1778,753 1778,752 1779,752 1779,752 1780,752 1782,753 1782,753 1782,753 1783,753 1783,753 1784,753 1785,753 1785,752 1786,750 1786,750 1786,749 1787,748 1787,748 1787,747 1787,747 1787,746 1787,745 1787,745 1788,744 1788,743 1788,742 1788,742 1789,741 1789,740 1789,739 1790,738 1790,738 1791,737 1792,737 1793,736 1794,735 1795,735 1795,735 1795,736 1795,736 1795,737 1796,738 1796,739 1796,739 1796,740 1797,740 1797,741 1797,741 1797,742 1798,743 1798,743 1798,744 1798,745 1798,746 1798,747 1798,747 1798,748 1798,749 1798,750 1797,751 1797,752 1796,753 1796,754 1796,756 1796,757 1796,758 1795,759 1796,760 1796,761 1796,762 1797,763 1798,763 1798,764 1799,764 1800,764 1801,765 1802,765 1803,765 1804,764 1805,764 1806,763 1807,762 1807,762 1808,761 1809,760 1810,759 1809,760 1809,761 1809,762 1809,762 1809,763 1809,764 1809,765 1809,765 1809,766 1809,767 1809,768 1809,769 1808,770 1808,771 1808,772 1807,773 1807,774 1806,775 1805,775 1804,776 1804,777 1803,777 1802,778 1801,779 1800,779 1798,779 1797,779 1796,779 1795,779 1794,778 1793,778 1792,778 1791,778 1790,778 1789,778 1788,778 1787,778 1786,778 1785,778 1784,778 1782,778 1781,778 1779,778 1778,778 1777,778 1775,778 1774,778 1773,778 1772,778 1771,778 1770,778 1769,779 1768,779 1767,779 1766,779 1765,779 1763,778 1762,778 1761,778 1759,778 1758,777 1756,777 1755,776 1753,776" /><polygon fill="#9a9a9a" points="1755,776 1754,775 1753,774 1753,773 1753,772 1753,772 1753,771 1752,770 1752,769 1752,768 1752,768 1752,767 1752,766 1751,765 1751,764 1750,763 1750,762 1750,761 1750,760 1749,759 1749,758 1750,758 1750,757 1750,757 1751,758 1752,758 1752,758 1753,759 1754,760 1755,760 1756,761 1756,761 1757,762 1757,762 1758,762 1759,763 1759,763 1760,763 1760,763 1761,763 1761,762 1761,762 1761,761 1761,761 1762,760 1762,759 1762,758 1762,757 1762,757 1762,756 1763,755 1763,755 1763,754 1764,754 1764,754 1764,753 1765,753 1765,754 1766,755 1766,756 1767,756 1767,757 1768,757 1770,757 1771,757 1772,757 1772,757 1772,757 1772,757 1773,758 1773,759 1773,759 1773,760 1772,761 1772,762 1772,762 1772,763 1772,764 1772,765 1772,765 1773,766 1773,766 1774,766 1775,766 1775,766 1776,766 1777,766 1777,766 1778,767 1779,766 1780,766 1780,766 1781,765 1781,765 1782,764 1782,764 1783,763 1782,762 1782,761 1781,760 1781,758 1780,757 1780,756 1781,756 1782,756 1783,756 1784,755 1785,754 1786,753 1787,751 1788,750 1789,749 1789,748 1790,747 1790,746 1791,745 1791,744 1792,743 1792,742 1793,742 1794,742 1794,743 1794,744 1794,745 1794,746 1794,748 1794,749 1794,751 1794,752 1793,754 1793,755 1793,757 1793,758 1793,759 1794,761 1794,762 1794,762 1794,763 1795,764 1795,764 1796,765 1796,766 1797,766 1798,766 1798,767 1799,766 1800,767 1801,767 1802,767 1803,767 1803,767 1804,766 1805,766 1805,766 1805,767 1806,768 1806,768 1806,769 1806,769 1806,770 1806,771 1806,771 1805,772 1805,773 1805,773 1804,774 1804,774 1803,775 1803,776 1802,776 1802,776 1801,776 1801,777 1800,777 1799,777 1799,778 1798,778 1797,778 1796,778 1795,778 1793,778 1792,778 1791,778 1789,778 1788,778 1787,778 1786,778 1784,777 1783,777 1782,777 1781,777 1779,777 1778,777 1777,777 1776,777 1775,778 1774,778 1773,778 1772,778 1771,778 1770,778 1769,778 1768,778 1767,778 1766,778 1765,778 1765,778 1765,778 1765,778 1763,778 1762,778 1761,778 1760,778 1758,777 1757,777 1756,777 1755,776" /><polygon fill="#9a9a9a" points="1756,772 1756,773 1756,773 1756,773 1757,774 1757,774 1757,774 1758,775 1758,776 1758,776 1758,776 1759,776 1759,776 1759,776 1760,776 1760,776 1761,776 1762,776 1764,777 1765,777 1766,777 1767,777 1768,777 1769,777 1770,777 1771,777 1772,777 1773,777 1774,777 1775,776 1775,776 1776,776 1777,776 1777,776 1778,776 1779,775 1780,775 1781,775 1782,775 1783,775 1785,776 1786,776 1787,776 1788,776 1789,776 1790,776 1791,776 1792,776 1792,776 1793,776 1794,776 1794,776 1795,776 1796,776 1796,776 1797,776 1797,776 1798,775 1798,774 1799,773 1800,773 1801,772 1801,771 1801,770 1801,770 1799,770 1799,770 1798,770 1797,770 1797,769 1796,769 1796,769 1795,769 1794,769 1793,768 1792,767 1792,766 1791,765 1791,763 1791,762 1792,760 1792,759 1792,757 1792,755 1792,754 1792,753 1792,752 1791,751 1791,750 1789,751 1789,752 1788,753 1787,754 1787,755 1786,756 1786,758 1786,759 1786,760 1785,761 1785,762 1785,763 1785,764 1784,764 1784,765 1784,765 1783,765 1782,766 1782,767 1781,767 1780,768 1780,768 1779,769 1778,769 1777,769 1776,769 1775,769 1774,768 1773,768 1772,768 1771,768 1770,767 1770,767 1770,767 1770,766 1769,765 1769,765 1769,764 1769,763 1769,762 1769,762 1769,761 1769,760 1769,760 1769,760 1768,760 1768,760 1767,760 1766,761 1766,761 1765,763 1764,764 1763,765 1762,766 1762,767 1761,767 1760,767 1759,767 1758,767 1758,767 1757,767 1757,766 1756,766 1756,766 1756,767 1756,768 1756,768 1755,769 1755,770 1755,771 1755,772 1756,772" /><polygon fill="#9a9a9a" points="1766,776 1766,776 1766,776 1767,776 1767,776 1767,776 1767,776 1768,776 1768,776 1769,776 1770,776 1772,775 1774,775 1775,774 1777,774 1778,773 1778,772 1777,772 1775,772 1774,772 1773,772 1772,771 1771,771 1770,770 1770,769 1769,769 1769,768 1768,767 1768,766 1767,766 1767,765 1766,765 1766,764 1765,765 1765,765 1765,767 1764,768 1763,769 1763,770 1762,771 1761,771 1761,772 1760,772 1760,772 1760,772 1759,772 1759,771 1758,771 1757,771 1757,772 1757,773 1758,773 1758,774 1759,774 1759,775 1760,775 1760,776 1761,776 1762,776 1762,776 1763,776 1764,776 1764,776 1765,776 1766,776" /><polygon fill="#9a9a9a" points="1786,775 1785,774 1784,774 1784,774 1783,774 1782,774 1782,774 1782,773 1782,772 1782,772 1783,772 1783,771 1784,770 1784,770 1785,768 1785,767 1786,766 1786,765 1787,764 1787,762 1788,761 1788,760 1789,759 1789,758 1789,758 1789,758 1789,758 1790,759 1790,760 1790,761 1790,762 1790,763 1789,764 1789,766 1790,767 1790,768 1790,769 1790,770 1790,771 1790,771 1791,771 1791,772 1792,772 1793,772 1793,772 1794,772 1795,772 1797,772 1798,771 1798,773 1797,773 1797,774 1796,774 1795,774 1795,774 1794,774 1794,775 1793,775 1792,775 1791,775 1790,775 1789,775 1788,775 1787,775 1786,775" /><polygon fill="#ff0000" points="1766,780 1765,780 1764,780 1763,780 1762,780 1761,780 1760,780 1759,779 1759,779 1758,779 1757,779 1756,778 1755,778 1755,778 1754,778 1753,777 1752,777 1751,776 1750,775 1749,774 1748,772 1747,771 1746,770 1745,769 1744,767 1744,766 1743,765 1743,764 1742,762 1742,761 1742,760 1741,759 1741,758 1741,756 1742,755 1742,754 1742,753 1742,752 1743,751 1743,750 1743,749 1744,748 1744,747 1744,746 1744,745 1745,744 1745,743 1745,742 1746,741 1746,742 1747,743 1747,744 1748,745 1748,746 1749,747 1749,748 1750,749 1750,750 1751,750 1752,751 1752,752 1753,752 1753,753 1754,753 1755,753 1755,753 1756,753 1756,752 1757,752 1758,751 1758,750 1759,750 1759,749 1760,748 1761,747 1761,746 1762,745 1762,744 1763,743 1763,742 1764,741 1764,740 1764,739 1764,738 1764,737 1764,737 1764,736 1764,735 1764,734 1764,733 1765,732 1765,731 1765,730 1766,729 1766,728 1767,727 1768,726 1768,729 1768,731 1768,733 1769,735 1769,737 1769,739 1769,740 1770,741 1770,742 1771,743 1771,744 1771,744 1772,745 1772,745 1772,745 1773,744 1773,744 1774,743 1774,742 1775,740 1775,740 1776,739 1777,739 1777,740 1777,740 1777,741 1778,742 1778,743 1778,744 1778,745 1778,745 1779,746 1779,747 1779,748 1779,748 1780,749 1780,749 1780,749 1781,750 1782,749 1782,749 1783,748 1783,747 1784,747 1784,746 1784,745 1784,745 1784,744 1784,743 1784,742 1784,742 1784,741 1784,740 1784,739 1784,739 1784,738 1784,736 1784,735 1785,734 1786,733 1786,732 1787,731 1788,731 1789,730 1789,729 1790,729 1791,728 1792,727 1792,726 1792,725 1793,724 1793,723 1794,724 1796,726 1797,727 1798,728 1799,730 1800,731 1800,732 1801,734 1801,735 1801,737 1801,738 1801,739 1801,741 1800,742 1800,743 1800,744 1800,746 1800,747 1800,749 1800,750 1799,752 1799,753 1799,754 1799,755 1798,756 1798,757 1798,758 1798,759 1798,760 1799,761 1799,761 1800,762 1801,762 1802,762 1803,762 1804,761 1805,761 1806,760 1806,760 1807,759 1807,758 1808,757 1809,756 1809,755 1810,754 1811,753 1812,752 1813,751 1813,753 1814,754 1814,755 1814,756 1814,757 1814,757 1814,757 1814,758 1814,758 1814,758 1814,759 1814,759 1814,760 1813,760 1813,761 1813,762 1813,765 1812,767 1812,769 1811,771 1811,773 1810,774 1809,775 1808,776 1807,777 1806,778 1806,779 1805,779 1804,780 1803,780 1802,780 1802,780 1801,780 1800,780 1799,780 1798,780 1797,780 1796,780 1795,780 1794,780 1793,780 1792,779 1791,779 1790,779 1789,779 1788,779 1787,779 1786,779 1785,779 1783,779 1782,779 1780,779 1779,779 1778,779 1777,779 1775,779 1774,780 1773,780 1772,780 1771,780 1769,780 1768,780 1767,780 1766,780" /><polygon fill="#cc3300" points="1766,780 1765,780 1764,780 1763,779 1762,779 1761,779 1761,779 1760,779 1759,779 1759,778 1758,778 1757,778 1756,778 1756,777 1755,777 1754,777 1754,777 1753,776 1752,775 1751,774 1750,772 1749,771 1748,770 1747,769 1747,768 1746,767 1746,766 1745,765 1745,764 1744,763 1744,762 1744,761 1744,759 1744,759 1744,758 1744,757 1745,756 1745,755 1745,754 1745,753 1746,752 1746,751 1746,750 1746,749 1747,749 1747,748 1747,747 1747,746 1748,745 1748,746 1749,746 1749,747 1750,748 1750,749 1751,750 1751,751 1752,752 1752,752 1752,753 1753,754 1753,754 1754,755 1755,755 1755,755 1756,755 1756,755 1757,755 1757,755 1758,754 1758,754 1759,753 1759,752 1760,752 1760,751 1761,750 1761,749 1762,748 1762,747 1763,746 1763,746 1764,745 1764,744 1764,743 1764,743 1764,742 1764,741 1764,740 1764,739 1764,738 1764,738 1764,737 1765,736 1765,735 1765,734 1766,734 1767,733 1768,732 1768,734 1768,736 1768,738 1768,740 1769,741 1769,743 1770,744 1770,745 1771,746 1771,747 1772,747 1772,748 1773,748 1773,748 1773,748 1773,748 1774,747 1774,746 1775,745 1776,744 1776,744 1777,743 1777,743 1777,744 1778,744 1778,745 1778,746 1778,746 1779,747 1779,748 1779,749 1780,749 1780,750 1780,751 1781,751 1781,752 1782,752 1782,752 1783,752 1783,752 1784,752 1784,751 1785,750 1785,750 1785,749 1785,749 1785,748 1785,747 1785,747 1785,746 1785,745 1785,745 1785,744 1785,743 1785,743 1785,742 1785,741 1786,740 1786,739 1787,738 1787,737 1788,736 1789,736 1789,735 1790,734 1791,734 1791,733 1792,732 1792,732 1793,731 1793,730 1793,729 1795,730 1796,731 1797,732 1798,734 1799,735 1799,736 1800,737 1800,738 1800,740 1800,741 1800,742 1800,743 1800,744 1800,746 1799,747 1799,748 1799,749 1799,750 1799,752 1799,753 1799,754 1799,755 1799,756 1798,757 1798,758 1798,759 1798,760 1798,761 1798,761 1798,762 1799,763 1799,763 1800,763 1801,763 1802,763 1803,763 1804,762 1804,762 1805,761 1806,761 1806,760 1807,759 1807,758 1808,757 1809,756 1809,755 1810,754 1811,754 1811,755 1812,756 1812,757 1812,758 1812,759 1812,759 1812,759 1812,760 1812,760 1812,760 1812,760 1812,761 1812,761 1811,762 1811,763 1811,764 1811,766 1810,768 1810,770 1809,771 1809,773 1808,774 1807,775 1807,776 1806,777 1805,778 1804,778 1804,779 1803,779 1802,779 1802,779 1801,780 1800,780 1799,779 1798,779 1798,779 1797,779 1796,779 1795,779 1794,779 1793,779 1792,779 1792,779 1791,779 1790,779 1789,778 1788,778 1787,778 1786,778 1784,778 1783,778 1782,778 1780,778 1779,779 1777,779 1776,779 1775,779 1773,779 1772,779 1770,779 1769,779 1768,779 1767,780 1766,780" /><polygon fill="#ff6600" points="1753,776 1753,775 1752,774 1752,774 1752,773 1751,773 1751,772 1751,771 1750,771 1750,770 1750,769 1750,769 1750,768 1750,768 1750,767 1750,766 1750,766 1750,765 1750,764 1750,764 1749,763 1749,762 1749,761 1748,760 1748,759 1748,759 1748,758 1748,757 1748,757 1748,756 1748,756 1749,756 1750,756 1751,756 1752,757 1753,757 1754,758 1755,758 1756,758 1757,759 1758,759 1758,759 1759,758 1759,757 1760,756 1760,755 1760,754 1761,753 1761,753 1762,752 1763,751 1764,750 1765,749 1766,748 1766,748 1767,747 1768,746 1768,746 1769,747 1769,747 1769,747 1769,748 1769,749 1769,749 1770,750 1770,750 1770,751 1770,752 1771,752 1771,753 1771,754 1772,754 1773,755 1773,755 1773,755 1773,754 1773,753 1773,753 1774,752 1774,751 1774,750 1774,749 1774,748 1775,747 1775,747 1775,746 1776,746 1776,745 1777,745 1778,746 1778,747 1778,749 1778,750 1778,751 1777,753 1777,754 1776,755 1775,757 1775,758 1774,759 1774,760 1774,761 1774,762 1774,763 1775,763 1777,763 1778,763 1779,762 1779,761 1779,760 1779,759 1779,758 1779,756 1779,755 1778,754 1778,753 1778,752 1779,752 1779,752 1780,752 1782,753 1782,753 1782,753 1783,753 1783,753 1784,753 1785,753 1785,752 1786,750 1786,750 1786,749 1787,748 1787,748 1787,747 1787,747 1787,746 1787,745 1787,745 1788,744 1788,743 1788,742 1788,742 1789,741 1789,740 1789,739 1790,738 1790,738 1791,737 1792,737 1793,736 1794,735 1795,735 1795,735 1795,736 1795,736 1795,737 1796,738 1796,739 1796,739 1796,740 1797,740 1797,741 1797,741 1797,742 1798,743 1798,743 1798,744 1798,745 1798,746 1798,747 1798,747 1798,748 1798,749 1798,750 1797,751 1797,752 1796,753 1796,754 1796,756 1796,757 1796,758 1795,759 1796,760 1796,761 1796,762 1797,763 1798,763 1798,764 1799,764 1800,764 1801,765 1802,765 1803,765 1804,764 1805,764 1806,763 1807,762 1807,762 1808,761 1809,760 1810,759 1809,760 1809,761 1809,762 1809,762 1809,763 1809,764 1809,765 1809,765 1809,766 1809,767 1809,768 1809,769 1808,770 1808,771 1808,772 1807,773 1807,774 1806,775 1805,775 1804,776 1804,777 1803,777 1802,778 1801,779 1800,779 1798,779 1797,779 1796,779 1795,779 1794,778 1793,778 1792,778 1791,778 1790,778 1789,778 1788,778 1787,778 1786,778 1785,778 1784,778 1782,778 1781,778 1779,778 1778,778 1777,778 1775,778 1774,778 1773,778 1772,778 1771,778 1770,778 1769,779 1768,779 1767,779 1766,779 1765,779 1763,778 1762,778 1761,778 1759,778 1758,777 1756,777 1755,776 1753,776" /><polygon fill="#ffcc00" points="1755,776 1754,775 1753,774 1753,773 1753,772 1753,772 1753,771 1752,770 1752,769 1752,768 1752,768 1752,767 1752,766 1751,765 1751,764 1750,763 1750,762 1750,761 1750,760 1749,759 1749,758 1750,758 1750,757 1750,757 1751,758 1752,758 1752,758 1753,759 1754,760 1755,760 1756,761 1756,761 1757,762 1757,762 1758,762 1759,763 1759,763 1760,763 1760,763 1761,763 1761,762 1761,762 1761,761 1761,761 1762,760 1762,759 1762,758 1762,757 1762,757 1762,756 1763,755 1763,755 1763,754 1764,754 1764,754 1764,753 1765,753 1765,754 1766,755 1766,756 1767,756 1767,757 1768,757 1770,757 1771,757 1772,757 1772,757 1772,757 1772,757 1773,758 1773,759 1773,759 1773,760 1772,761 1772,762 1772,762 1772,763 1772,764 1772,765 1772,765 1773,766 1773,766 1774,766 1775,766 1775,766 1776,766 1777,766 1777,766 1778,767 1779,766 1780,766 1780,766 1781,765 1781,765 1782,764 1782,764 1783,763 1782,762 1782,761 1781,760 1781,758 1780,757 1780,756 1781,756 1782,756 1783,756 1784,755 1785,754 1786,753 1787,751 1788,750 1789,749 1789,748 1790,747 1790,746 1791,745 1791,744 1792,743 1792,742 1793,742 1794,742 1794,743 1794,744 1794,745 1794,746 1794,748 1794,749 1794,751 1794,752 1793,754 1793,755 1793,757 1793,758 1793,759 1794,761 1794,762 1794,762 1794,763 1795,764 1795,764 1796,765 1796,766 1797,766 1798,766 1798,767 1799,766 1800,767 1801,767 1802,767 1803,767 1803,767 1804,766 1805,766 1805,766 1805,767 1806,768 1806,768 1806,769 1806,769 1806,770 1806,771 1806,771 1805,772 1805,773 1805,773 1804,774 1804,774 1803,775 1803,776 1802,776 1802,776 1801,776 1801,777 1800,777 1799,777 1799,778 1798,778 1797,778 1796,778 1795,778 1793,778 1792,778 1791,778 1789,778 1788,778 1787,778 1786,778 1784,777 1783,777 1782,777 1781,777 1779,777 1778,777 1777,777 1776,777 1775,778 1774,778 1773,778 1772,778 1771,778 1770,778 1769,778 1768,778 1767,778 1766,778 1765,778 1765,778 1765,778 1765,778 1763,778 1762,778 1761,778 1760,778 1758,777 1757,777 1756,777 1755,776" /><polygon fill="#ffff00" points="1756,772 1756,773 1756,773 1756,773 1757,774 1757,774 1757,774 1758,775 1758,776 1758,776 1758,776 1759,776 1759,776 1759,776 1760,776 1760,776 1761,776 1762,776 1764,777 1765,777 1766,777 1767,777 1768,777 1769,777 1770,777 1771,777 1772,777 1773,777 1774,777 1775,776 1775,776 1776,776 1777,776 1777,776 1778,776 1779,775 1780,775 1781,775 1782,775 1783,775 1785,776 1786,776 1787,776 1788,776 1789,776 1790,776 1791,776 1792,776 1792,776 1793,776 1794,776 1794,776 1795,776 1796,776 1796,776 1797,776 1797,776 1798,775 1798,774 1799,773 1800,773 1801,772 1801,771 1801,770 1801,770 1799,770 1799,770 1798,770 1797,770 1797,769 1796,769 1796,769 1795,769 1794,769 1793,768 1792,767 1792,766 1791,765 1791,763 1791,762 1792,760 1792,759 1792,757 1792,755 1792,754 1792,753 1792,752 1791,751 1791,750 1789,751 1789,752 1788,753 1787,754 1787,755 1786,756 1786,758 1786,759 1786,760 1785,761 1785,762 1785,763 1785,764 1784,764 1784,765 1784,765 1783,765 1782,766 1782,767 1781,767 1780,768 1780,768 1779,769 1778,769 1777,769 1776,769 1775,769 1774,768 1773,768 1772,768 1771,768 1770,767 1770,767 1770,767 1770,766 1769,765 1769,765 1769,764 1769,763 1769,762 1769,762 1769,761 1769,760 1769,760 1769,760 1768,760 1768,760 1767,760 1766,761 1766,761 1765,763 1764,764 1763,765 1762,766 1762,767 1761,767 1760,767 1759,767 1758,767 1758,767 1757,767 1757,766 1756,766 1756,766 1756,767 1756,768 1756,768 1755,769 1755,770 1755,771 1755,772 1756,772" /><polygon fill="#ffff66" points="1766,776 1766,776 1766,776 1767,776 1767,776 1767,776 1767,776 1768,776 1768,776 1769,776 1770,776 1772,775 1774,775 1775,774 1777,774 1778,773 1778,772 1777,772 1775,772 1774,772 1773,772 1772,771 1771,771 1770,770 1770,769 1769,769 1769,768 1768,767 1768,766 1767,766 1767,765 1766,765 1766,764 1765,765 1765,765 1765,767 1764,768 1763,769 1763,770 1762,771 1761,771 1761,772 1760,772 1760,772 1760,772 1759,772 1759,771 1758,771 1757,771 1757,772 1757,773 1758,773 1758,774 1759,774 1759,775 1760,775 1760,776 1761,776 1762,776 1762,776 1763,776 1764,776 1764,776 1765,776 1766,776" /><polygon fill="#ffff66" points="1786,775 1785,774 1784,774 1784,774 1783,774 1782,774 1782,774 1782,773 1782,772 1782,772 1783,772 1783,771 1784,770 1784,770 1785,768 1785,767 1786,766 1786,765 1787,764 1787,762 1788,761 1788,760 1789,759 1789,758 1789,758 1789,758 1789,758 1790,759 1790,760 1790,761 1790,762 1790,763 1789,764 1789,766 1790,767 1790,768 1790,769 1790,770 1790,771 1790,771 1791,771 1791,772 1792,772 1793,772 1793,772 1794,772 1795,772 1797,772 1798,771 1798,773 1797,773 1797,774 1796,774 1795,774 1795,774 1794,774 1794,775 1793,775 1792,775 1791,775 1790,775 1789,775 1788,775 1787,775 1786,775" /><polygon fill="#a4c4ff" points="1811,682 1840,692 1811,703 1734,703 1734,682 1734,682" /><polygon fill="#000000" points="485,675 479,666 483,667 483,652 487,652 487,667 491,666 485,675" /><polygon fill="#000000" points="485,650 491,659 487,657 487,672 483,672 483,657 479,659 485,650" /><polygon fill="#c0c0c0" points="633,636 635,637 637,638 637,638 638,639 640,639 643,640 645,640 647,641 649,641 651,641 653,640 655,640 657,639 659,639 660,638 661,638 663,637 665,636 666,635 668,633 668,633 669,632 669,631 670,631 670,631 671,629 671,628 672,626 672,625 672,623 671,622 671,620 670,619 670,619 669,618 669,617 668,617 668,616 666,615 665,614 664,613 663,613 661,612 659,611 657,610 655,610 653,610 651,609 649,609 647,609 645,610 644,610 643,610 640,610 638,611 637,612 635,613 634,613 633,614 632,615 630,616 629,617 628,619 628,620 628,620 627,622 627,623 627,625 627,626 627,628 628,629 628,630 628,631 629,632 630,633 632,635 633,636" /><polygon fill="#000000" points="631,694 625,686 629,687 629,672 633,672 633,687 637,686 631,694" /><polygon fill="#000000" points="631,669 637,678 633,677 633,692 629,692 629,677 625,678 631,669" /><polygon fill="#000000" points="916,694 910,686 914,687 914,672 918,672 918,687 922,686 916,694" /><polygon fill="#000000" points="916,669 922,678 918,677 918,692 914,692 914,677 910,678 916,669" /><polygon fill="#000000" points="565,624 559,616 563,617 563,602 567,602 567,617 571,616 565,624" /><polygon fill="#000000" points="565,599 571,608 567,607 567,622 563,622 563,607 559,608 565,599" /><polygon fill="#000000" points="1035,627 1029,618 1033,619 1033,604 1037,604 1037,619 1041,618 1035,627" /><polygon fill="#000000" points="1035,601 1041,610 1037,609 1037,624 1033,624 1033,609 1029,610 1035,601" /><polygon fill="#000000" points="948,588 942,579 946,580 946,565 950,565 950,580 954,579 948,588" /><polygon fill="#000000" points="948,563 954,572 950,570 950,585 946,585 946,570 942,572 948,563" /><polygon fill="#000000" points="1091,680 1085,671 1089,673 1089,658 1093,658 1093,673 1097,671 1091,680" /><polygon fill="#000000" points="1091,655 1097,664 1093,663 1093,678 1089,678 1089,663 1085,664 1091,655" /><polygon fill="#000000" points="565,543 559,534 563,536 563,521 567,521 567,536 571,534 565,543" /><polygon fill="#000000" points="565,518 571,527 567,526 567,541 563,541 563,526 559,527 565,518" /><polygon fill="#c0c0c0" points="633,552 635,554 637,554 637,555 638,555 640,556 643,556 645,557 647,557 649,557 651,557 653,557 655,556 657,556 659,555 660,555 661,554 663,554 665,552 666,551 668,550 668,549 669,549 669,548 670,548 670,547 671,546 671,544 672,543 672,541 672,540 671,538 671,537 670,535 670,535 669,535 669,534 668,533 668,533 666,531 665,530 664,530 663,529 661,528 659,528 657,527 655,527 653,526 651,526 649,526 647,526 645,526 644,526 643,527 640,527 638,528 637,528 635,529 634,530 633,530 632,531 630,533 629,534 628,535 628,536 628,537 627,538 627,540 627,541 627,543 627,544 628,546 628,546 628,547 629,549 630,550 632,551 633,552" /><polygon fill="#000000" points="565,460 559,451 563,452 563,437 567,437 567,452 571,451 565,460" /><polygon fill="#000000" points="565,435 571,443 567,442 567,457 563,457 563,442 559,443 565,435" /><polygon fill="#000000" points="565,376 559,367 563,369 563,354 567,354 567,369 571,367 565,376" /><polygon fill="#000000" points="565,351 571,360 567,359 567,374 563,374 563,359 559,360 565,351" /><polygon fill="#000000" points="565,293 559,284 563,285 563,270 567,270 567,285 571,284 565,293" /><polygon fill="#000000" points="565,268 571,276 567,275 567,290 563,290 563,275 559,276 565,268" /><polygon fill="#000000" points="565,209 559,201 563,202 563,187 567,187 567,202 571,201 565,209" /><polygon fill="#000000" points="565,184 571,193 567,192 567,207 563,207 563,192 559,193 565,184" /><polygon fill="#000000" points="948,505 942,496 946,497 946,482 950,482 950,497 954,496 948,505" /><polygon fill="#000000" points="948,479 954,488 950,487 950,502 946,502 946,487 942,488 948,479" /><polygon fill="#000000" points="948,421 942,412 946,414 946,399 950,399 950,414 954,412 948,421" /><polygon fill="#000000" points="948,396 954,405 950,403 950,418 946,418 946,403 942,405 948,396" /><polygon fill="#000000" points="948,338 942,329 946,330 946,315 950,315 950,330 954,329 948,338" /><polygon fill="#000000" points="948,313 954,322 950,320 950,335 946,335 946,320 942,322 948,313" /><polygon fill="#000000" points="948,256 942,248 946,249 946,234 950,234 950,249 954,248 948,256" /><polygon fill="#000000" points="948,231 954,240 950,239 950,254 946,254 946,239 942,240 948,231" /><polygon fill="#000000" points="947,171 941,162 945,163 945,148 949,148 949,163 953,162 947,171" /><polygon fill="#000000" points="947,146 953,154 949,153 949,168 945,168 945,153 941,154 947,146" /><polygon fill="#000000" points="1035,540 1029,532 1033,533 1033,518 1037,518 1037,533 1041,532 1035,540" /><polygon fill="#000000" points="1035,515 1041,524 1037,523 1037,538 1033,538 1033,523 1029,524 1035,515" /><polygon fill="#000000" points="1035,457 1029,448 1033,449 1033,434 1037,434 1037,449 1041,448 1035,457" /><polygon fill="#000000" points="1035,432 1041,441 1037,439 1037,454 1033,454 1033,439 1029,441 1035,432" /><polygon fill="#000000" points="1035,373 1029,365 1033,366 1033,351 1037,351 1037,366 1041,365 1035,373" /><polygon fill="#000000" points="1035,348 1041,357 1037,356 1037,371 1033,371 1033,356 1029,357 1035,348" /><polygon fill="#000000" points="1035,291 1029,282 1033,284 1033,269 1037,269 1037,284 1041,282 1035,291" /><polygon fill="#000000" points="1035,266 1041,275 1037,273 1037,288 1033,288 1033,273 1029,275 1035,266" /><polygon fill="#000000" points="1035,207 1029,198 1033,200 1033,185 1037,185 1037,200 1041,198 1035,207" /><polygon fill="#000000" points="1035,182 1041,191 1037,190 1037,205 1033,205 1033,190 1029,191 1035,182" /><polygon fill="#c0c0c0" points="633,469 635,470 637,471 637,471 638,472 640,473 643,473 645,473 647,474 649,474 651,474 653,473 655,473 657,473 659,472 660,471 661,471 663,470 665,469 666,468 668,466 668,466 669,465 669,464 670,464 670,464 671,462 671,461 672,459 672,458 672,456 671,455 671,453 670,452 670,452 669,451 669,451 668,450 668,449 666,448 665,447 664,446 663,446 661,445 659,444 657,444 655,443 653,443 651,443 649,442 647,443 645,443 644,443 643,443 640,444 638,444 637,445 635,446 634,446 633,447 632,448 630,449 629,451 628,452 628,453 628,453 627,455 627,456 627,458 627,459 627,461 628,462 628,463 628,464 629,465 630,466 632,468 633,469" /><polygon fill="#c0c0c0" points="633,386 635,387 637,388 637,388 638,388 640,389 643,390 645,390 647,390 649,390 651,390 653,390 655,390 657,389 659,388 660,388 661,388 663,387 665,386 666,384 668,383 668,382 669,382 669,381 670,381 670,380 671,379 671,377 672,376 672,374 672,373 671,371 671,370 670,369 670,368 669,368 669,367 668,366 668,366 666,364 665,363 664,363 663,362 661,361 659,361 657,360 655,360 653,359 651,359 649,359 647,359 645,359 644,359 643,360 640,360 638,361 637,361 635,362 634,363 633,363 632,364 630,366 629,367 628,369 628,369 628,370 627,371 627,373 627,374 627,376 627,377 628,379 628,380 628,380 629,382 630,383 632,384 633,386" /><polygon fill="#c0c0c0" points="633,302 635,303 637,304 637,305 638,305 640,306 643,306 645,307 647,307 649,307 651,307 653,307 655,306 657,306 659,305 660,305 661,304 663,303 665,302 666,301 668,300 668,299 669,298 669,297 670,297 670,297 671,295 671,294 672,292 672,291 672,289 671,288 671,287 670,285 670,285 669,284 669,284 668,283 668,282 666,281 665,280 664,279 663,279 661,278 659,277 657,277 655,276 653,276 651,276 649,276 647,276 645,276 644,276 643,276 640,277 638,277 637,278 635,279 634,279 633,280 632,281 630,282 629,284 628,285 628,286 628,287 627,288 627,289 627,291 627,292 627,294 628,295 628,296 628,297 629,298 630,300 632,301 633,302" /><polygon fill="#c0c0c0" points="633,219 635,220 637,221 637,221 638,221 640,222 643,223 645,223 647,223 649,223 651,223 653,223 655,223 657,222 659,221 660,221 661,221 663,220 665,219 666,217 668,216 668,215 669,215 669,214 670,214 670,213 671,212 671,210 672,209 672,207 672,206 671,205 671,203 670,202 670,201 669,201 669,200 668,200 668,199 666,198 665,196 664,196 663,195 661,195 659,194 657,193 655,193 653,192 651,192 649,192 647,192 645,192 644,193 643,193 640,193 638,194 637,195 635,195 634,196 633,196 632,198 630,199 629,200 628,202 628,202 628,203 627,205 627,206 627,207 627,209 627,210 628,212 628,213 628,213 629,215 630,216 632,217 633,219" /><polygon fill="#000000" points="856,149 850,140 854,142 854,127 858,127 858,142 862,140 856,149" /><polygon fill="#000000" points="856,124 862,133 858,132 858,147 854,147 854,132 850,133 856,124" /><polygon fill="#000000" points="565,105 559,96 563,97 563,82 567,82 567,97 571,96 565,105" /><polygon fill="#000000" points="565,80 571,89 567,87 567,102 563,102 563,87 559,89 565,80" /><polygon fill="#000000" points="1035,105 1029,96 1033,97 1033,82 1037,82 1037,97 1041,96 1035,105" /><polygon fill="#000000" points="1035,80 1041,89 1037,87 1037,102 1033,102 1033,87 1029,89 1035,80" /><polygon fill="#c0c0c0" points="895,114 896,115 898,116 899,117 900,117 902,118 904,118 906,119 908,119 911,119 913,119 915,119 917,118 919,118 921,117 922,117 923,116 925,115 927,114 928,113 930,112 930,111 931,110 931,110 932,109 932,109 933,108 933,106 933,105 933,103 933,102 933,100 933,99 932,97 932,97 931,97 931,96 930,95 930,95 928,93 927,92 926,92 925,91 923,90 921,89 919,89 917,88 915,88 913,88 911,88 908,88 906,88 905,88 904,88 902,89 900,89 898,90 896,91 896,92 895,92 893,93 892,95 891,96 890,97 890,98 890,99 889,100 889,102 889,103 889,105 889,106 890,108 890,108 890,109 891,110 892,112 893,113 895,114" /><polygon fill="#7f7f7f" points="1113,700 1113,685 1155,700 1155,685 1113,700" /><polygon fill="#7f7f7f" points="1113,699 1113,686 1155,699 1155,686 1113,699" /><polygon fill="#7f7f7f" points="1113,697 1113,687 1155,697 1155,687 1113,697" /><polygon fill="#7f7f7f" points="1113,696 1113,689 1155,696 1155,689 1113,696" /><polygon fill="#7f7f7f" points="1113,695 1113,690 1155,695 1155,690 1113,695" /><polygon fill="#7f7f7f" points="1113,693 1113,692 1155,693 1155,692 1113,693" /><polygon fill="#7f7f7f" points="1113,660 1113,646 1155,660 1155,646 1113,660" /><polygon fill="#7f7f7f" points="1113,659 1113,646 1155,659 1155,646 1113,659" /><polygon fill="#7f7f7f" points="1113,658 1113,648 1155,658 1155,648 1113,658" /><polygon fill="#7f7f7f" points="1113,656 1113,649 1155,656 1155,649 1113,656" /><polygon fill="#7f7f7f" points="1113,655 1113,650 1155,655 1155,650 1113,655" /><polygon fill="#7f7f7f" points="1113,654 1113,652 1155,654 1155,652 1113,654" /><polygon fill="#7f7f7f" points="1255,700 1255,685 1297,700 1297,685 1255,700" /><polygon fill="#7f7f7f" points="1255,699 1255,686 1297,699 1297,686 1255,699" /><polygon fill="#7f7f7f" points="1255,697 1255,687 1297,697 1297,687 1255,697" /><polygon fill="#7f7f7f" points="1255,696 1255,689 1297,696 1297,689 1255,696" /><polygon fill="#7f7f7f" points="1255,695 1255,690 1297,695 1297,690 1255,695" /><polygon fill="#7f7f7f" points="1255,693 1255,692 1297,693 1297,692 1255,693" /><polygon fill="#008000" points="1409,442 1433,442 1421,459" /><polygon fill="#008000" points="1572,614 1596,614 1584,631" /><polygon fill="#a4c4ff" points="1811,630 1840,640 1811,651 1734,651 1734,630 1734,630" /><polygon fill="#000000" points="1399,692 1393,684 1397,685 1397,670 1401,670 1401,685 1405,684 1399,692" /><polygon fill="#000000" points="1399,667 1405,676 1401,675 1401,690 1397,690 1397,675 1393,676 1399,667" /><polygon fill="#000000" points="1709,694 1703,686 1707,687 1707,672 1711,672 1711,687 1715,686 1709,694" /><polygon fill="#000000" points="1709,669 1715,678 1711,677 1711,692 1707,692 1707,677 1703,678 1709,669" /><polygon fill="#000000" points="404,34 398,25 402,27 402,12 406,12 406,27 410,25 404,34" /><polygon fill="#000000" points="404,9 410,18 406,16 406,31 402,31 402,16 398,18 404,9" /><polygon fill="#000000" points="393,692 388,684 392,685 392,670 395,670 395,685 399,684 393,692" /><polygon fill="#000000" points="394,667 399,676 395,675 395,690 391,690 391,675 388,676 394,667" /><polygon fill="#000000" points="1709,639 1703,630 1707,632 1707,617 1711,617 1711,632 1715,630 1709,639" /><polygon fill="#000000" points="1709,614 1715,623 1711,621 1711,636 1707,636 1707,621 1703,623 1709,614" /><polygon fill="#a4c4ff" points="1763,577 1735,588 1763,598 1839,598 1839,577 1839,577" /><polygon fill="#a4c4ff" points="1763,551 1735,562 1763,572 1839,572 1839,551 1839,551" /><line stroke="#006666" stroke-dasharray="0 0" stroke-width="2" x1="1547" x2="1547" y1="562" y2="693" /><line stroke="#006666" stroke-dasharray="0 0" stroke-width="2" x1="1738" x2="1547.0" y1="562" y2="563.0106" /><line stroke="#008000" stroke-dasharray="0 0" stroke-width="2" x1="1734" x2="1608.0" y1="639" y2="639.0" /><line stroke="#008000" stroke-dasharray="0 0" stroke-width="2" x1="1106" x2="1308" y1="651" y2="651" /><line stroke="#008000" stroke-dasharray="0 0" stroke-width="2" x1="1074" x2="1074" y1="693" y2="103" /><line stroke="#008000" stroke-dasharray="0 0" stroke-width="2" x1="63" x2="1783" y1="694" y2="694" /><line stroke="#008000" stroke-dasharray="0 0" stroke-width="2" x1="836" x2="836" y1="588" y2="552" /><line stroke="#008000" stroke-dasharray="0 0" stroke-width="2" x1="836" x2="949" y1="588" y2="588" /><line stroke="#008000" stroke-dasharray="0 0" stroke-width="2" x1="949" x2="949" y1="626" y2="588" /><line stroke="#008000" stroke-dasharray="0 0" stroke-width="2" x1="462" x2="1068" y1="625" y2="625" /><line stroke="#008000" stroke-dasharray="0 0" stroke-width="2" x1="462" x2="462" y1="693" y2="103" /><line stroke="#008000" stroke-dasharray="0 0" stroke-width="2" x1="462" x2="1068" y1="541" y2="541" /><line stroke="#008000" stroke-dasharray="0 0" stroke-width="2" x1="462" x2="1068" y1="458" y2="458" /><line stroke="#008000" stroke-dasharray="0 0" stroke-width="2" x1="462" x2="1068" y1="374" y2="374" /><line stroke="#008000" stroke-dasharray="0 0" stroke-width="2" x1="836" x2="836" y1="448" y2="385" /><line stroke="#008000" stroke-dasharray="0 0" stroke-width="2" x1="836" x2="836" y1="365" y2="301" /><line stroke="#008000" stroke-dasharray="0 0" stroke-width="2" x1="836" x2="836" y1="282" y2="218" /><line stroke="#008000" stroke-dasharray="0 0" stroke-width="2" x1="836" x2="836" y1="198" y2="103" /><line stroke="#008000" stroke-dasharray="0 0" stroke-width="2" x1="462" x2="1068" y1="291" y2="291" /><line stroke="#008000" stroke-dasharray="0 0" stroke-width="2" x1="462" x2="1074.0" y1="208" y2="208.0" /><line stroke="#008000" stroke-dasharray="0 0" stroke-width="2" x1="836" x2="949" y1="505" y2="505" /><line stroke="#008000" stroke-dasharray="0 0" stroke-width="2" x1="949" x2="949" y1="543" y2="505" /><line stroke="#008000" stroke-dasharray="0 0" stroke-width="2" x1="836" x2="949" y1="421" y2="421" /><line stroke="#008000" stroke-dasharray="0 0" stroke-width="2" x1="949" x2="949" y1="459" y2="421" /><line stroke="#008000" stroke-dasharray="0 0" stroke-width="2" x1="836" x2="949" y1="338" y2="338" /><line stroke="#008000" stroke-dasharray="0 0" stroke-width="2" x1="949" x2="949" y1="376" y2="338" /><line stroke="#008000" stroke-dasharray="0 0" stroke-width="2" x1="836" x2="949" y1="255" y2="255" /><line stroke="#008000" stroke-dasharray="0 0" stroke-width="2" x1="949" x2="949" y1="292" y2="255" /><line stroke="#008000" stroke-dasharray="0 0" stroke-width="2" x1="836" x2="949" y1="171" y2="171" /><line stroke="#008000" stroke-dasharray="0 0" stroke-width="2" x1="949" x2="949" y1="209" y2="171" /><line stroke="#008000" stroke-dasharray="0 0" stroke-width="2" x1="836" x2="836" y1="531" y2="468" /><line stroke="#008000" stroke-dasharray="0 0" stroke-width="2" x1="462" x2="1068" y1="103" y2="103" /><line stroke="#008000" stroke-dasharray="0 0" stroke-width="2" x1="1421" x2="1421" y1="40" y2="692" /><line stroke="#008000" stroke-dasharray="0 0" stroke-width="2" x1="1106" x2="1106" y1="651" y2="692" /><line stroke="#008000" stroke-dasharray="0 0" stroke-width="2" x1="1421" x2="313.0" y1="40" y2="40.0" /><line stroke="#008000" stroke-dasharray="0 0" stroke-width="2" x1="1308" x2="1308" y1="651" y2="692" /><line stroke="#008000" stroke-dasharray="0 0" stroke-width="2" x1="313" x2="313" y1="40" y2="692" /><line stroke="#008000" stroke-dasharray="0 0" stroke-width="2" x1="1608" x2="1608" y1="639" y2="692" /><line stroke="#008000" stroke-dasharray="0 0" stroke-width="2" x1="1584" x2="1584" y1="588" y2="692" /><line stroke="#008000" stroke-dasharray="0 0" stroke-width="2" x1="1738" x2="1584.0" y1="588" y2="588.0" /><text fill="gray" text-anchor="middle" x="1" y="746">Var
				</text><text fill="gray" text-anchor="middle" x="1778" y="798">Блокирован
					</text><text fill="gray" text-anchor="middle" x="1779" y="798">В работе
					</text><text fill="gray" text-anchor="middle" x="1779" y="726">Сброс
					</text><text fill="gray" text-anchor="middle" x="391" y="69">Контрольная
			</text><text fill="gray" text-anchor="middle" x="670" y="24"> Блок замера воды. УУВ-2
			</text><text fill="gray" text-anchor="middle" x="592" y="583">Связь
				</text><text fill="gray" text-anchor="middle" x="630" y="583">Дост
				</text><text fill="gray" text-anchor="middle" x="592" y="500">Связь
				</text><text fill="gray" text-anchor="middle" x="630" y="500">Дост
				</text><text fill="gray" text-anchor="middle" x="592" y="416">Связь
				</text><text fill="gray" text-anchor="middle" x="630" y="416">Дост
				</text><text fill="gray" text-anchor="middle" x="592" y="333">Связь
				</text><text fill="gray" text-anchor="middle" x="630" y="333">Дост
				</text><text fill="gray" text-anchor="middle" x="592" y="249">Связь
				</text><text fill="gray" text-anchor="middle" x="630" y="249">Дост
				</text><text fill="gray" text-anchor="middle" x="592" y="166">Связь
				</text><text fill="gray" text-anchor="middle" x="630" y="166">Дост
				</text><text fill="gray" text-anchor="middle" x="667" y="67">Связь
				</text><text fill="gray" text-anchor="middle" x="705" y="67">Дост
				</text><text fill="gray" text-anchor="middle" x="417" y="622">Линия 1
			</text><text fill="gray" text-anchor="middle" x="417" y="538">Линия 2
			</text><text fill="gray" text-anchor="middle" x="417" y="455">Линия 3
			</text><text fill="gray" text-anchor="middle" x="417" y="371">Линия 4
			</text><text fill="gray" text-anchor="middle" x="417" y="288">Линия 5
			</text><text fill="gray" text-anchor="middle" x="417" y="205">Линия 6
			</text><text fill="gray" text-anchor="middle" x="376" y="84">линия
			</text><text fill="gray" text-anchor="middle" x="1737" y="647"> Р8 , Р9
			</text><text fill="gray" text-anchor="middle" x="1771" y="699">Р4 - Р7
			</text><text fill="gray" text-anchor="middle" x="1796" y="593">ЕШ4
			</text><text fill="gray" text-anchor="middle" x="1796" y="568">УУВ1
			</text><text fill="gray" text-anchor="middle" x="385" y="103">В учете
				</text><text fill="gray" text-anchor="middle" x="384" y="126">Не в учете
				</text><text fill="gray" text-anchor="middle" x="18" y="569">Линия 1. Расход воды, м3
			</text><text fill="gray" text-anchor="middle" x="10" y="581">За 2 часа
			</text><text fill="gray" text-anchor="middle" x="10" y="597">За предыдущие 2 часа
			</text><text fill="gray" text-anchor="middle" x="10" y="613">За текущие сутки
			</text><text fill="gray" text-anchor="middle" x="10" y="629">За предыдущие сутки
			</text><text fill="gray" text-anchor="middle" x="10" y="645">Накопительный
			</text><text fill="gray" text-anchor="middle" x="18" y="470">Линия 2. Расход воды, м3
			</text><text fill="gray" text-anchor="middle" x="10" y="482">За 2 часа
			</text><text fill="gray" text-anchor="middle" x="10" y="498">За предыдущие 2 часа
			</text><text fill="gray" text-anchor="middle" x="10" y="514">За текущие сутки
			</text><text fill="gray" text-anchor="middle" x="10" y="530">За предыдущие сутки
			</text><text fill="gray" text-anchor="middle" x="10" y="545">Накопительный
			</text><text fill="gray" text-anchor="middle" x="18" y="371">Линия 3. Расход воды, м3
			</text><text fill="gray" text-anchor="middle" x="10" y="383">За 2 часа
			</text><text fill="gray" text-anchor="middle" x="10" y="399">За предыдущие 2 часа
			</text><text fill="gray" text-anchor="middle" x="10" y="415">За текущие сутки
			</text><text fill="gray" text-anchor="middle" x="10" y="430">За предыдущие сутки
			</text><text fill="gray" text-anchor="middle" x="10" y="446">Накопительный
			</text><text fill="gray" text-anchor="middle" x="25" y="272">Линия 4. Расход воды, м3
			</text><text fill="gray" text-anchor="middle" x="10" y="284">За 2 часа
			</text><text fill="gray" text-anchor="middle" x="10" y="300">За предыдущие 2 часа
			</text><text fill="gray" text-anchor="middle" x="10" y="316">За текущие сутки
			</text><text fill="gray" text-anchor="middle" x="10" y="331">За предыдущие сутки
			</text><text fill="gray" text-anchor="middle" x="10" y="347">Накопительный
			</text><text fill="gray" text-anchor="middle" x="18" y="173">Линия 5. Расход воды, м3
			</text><text fill="gray" text-anchor="middle" x="10" y="185">За 2 часа
			</text><text fill="gray" text-anchor="middle" x="10" y="201">За предыдущие 2 часа
			</text><text fill="gray" text-anchor="middle" x="10" y="216">За текущие сутки
			</text><text fill="gray" text-anchor="middle" x="10" y="232">За предыдущие сутки
			</text><text fill="gray" text-anchor="middle" x="10" y="248">Накопительный
			</text><text fill="gray" text-anchor="middle" x="18" y="74">Линия 6. Расход воды, м3
			</text><text fill="gray" text-anchor="middle" x="10" y="86">За 2 часа
			</text><text fill="gray" text-anchor="middle" x="10" y="101">За предыдущие 2 часа
			</text><text fill="gray" text-anchor="middle" x="10" y="117">За текущие сутки
			</text><text fill="gray" text-anchor="middle" x="10" y="133">За предыдущие сутки
			</text><text fill="gray" text-anchor="middle" x="10" y="149">Накопительный
			</text><text fill="gray" text-anchor="middle" x="1500" y="109">Старт
				</text><text fill="gray" text-anchor="middle" x="1532" y="158">Время замера, мин
			</text><text fill="gray" text-anchor="middle" x="1528" y="320">Допустимая погр.
			</text><text fill="gray" text-anchor="middle" x="1571" y="278">Объем контрольной линии
			</text><text fill="gray" text-anchor="middle" x="1547" y="299">Объем рабочей линии
			</text><text fill="gray" text-anchor="middle" x="1570" y="340">Погрешность
			</text><text fill="gray" text-anchor="middle" x="1655" y="132">Идет замер
			</text><text fill="gray" text-anchor="middle" x="1501" y="132">Стоп
				</text><text fill="gray" text-anchor="middle" x="1773" y="187">1
				</text><text fill="gray" text-anchor="middle" x="1443" y="184">Линия на КМХ
			</text><text fill="gray" text-anchor="middle" x="1810" y="187">2
				</text><text fill="gray" text-anchor="middle" x="1848" y="187">3
				</text><text fill="gray" text-anchor="middle" x="1773" y="210">4
				</text><text fill="gray" text-anchor="middle" x="1810" y="210">5
				</text><text fill="gray" text-anchor="middle" x="1848" y="210">6
				</text><text fill="gray" text-anchor="middle" x="1443" y="236">Прцесс КМХ,%
			</text><text fill="gray" text-anchor="middle" x="1443" y="257">Результат КМХ
			</text><text fill="gray" text-anchor="middle" x="1822" y="258">Пройден
			</text><text fill="gray" text-anchor="middle" x="1809" y="258">Не пройден
			</text><text fill="gray" text-anchor="middle" x="47" y="692"> Цех 1/2
			</text><text fill="gray" text-anchor="middle" x="1671" y="367">Протокол КМХ
			</text><text fill="gray" text-anchor="middle" x="1607" y="393">Линия 1
			</text><text fill="gray" text-anchor="middle" x="1607" y="424">Линия 2
			</text><text fill="gray" text-anchor="middle" x="1607" y="455">Линия 3
			</text><text fill="gray" text-anchor="middle" x="1712" y="393">Линия 4
			</text><text fill="gray" text-anchor="middle" x="1712" y="424">Линия 5
			</text><text fill="gray" text-anchor="middle" x="1712" y="455">Линия 6
			</text><text fill="gray" text-anchor="middle" x="1107" y="73">КРЛ. Расход воды, м3
			</text><text fill="gray" text-anchor="middle" x="1100" y="85">За 2 часа
			</text><text fill="gray" text-anchor="middle" x="1100" y="100">За предыдущие 2 часа
			</text><text fill="gray" text-anchor="middle" x="1100" y="116">За текущие сутки
			</text><text fill="gray" text-anchor="middle" x="1100" y="132">За предыдущие сутки
			</text><text fill="gray" text-anchor="middle" x="1100" y="148">Накопительный
			</text><text fill="gray" text-anchor="middle" x="1619" y="48">КМХ
				</text><path d="M16 24.5L0.25 33.5933L0.25 15.4067L16 24.5Z M16 24.5L31.75 15.4067V33.5933L16 24.5Z M26.5 10.5C26.5 4.70101 21.799 0 16 0C10.201 0 5.5 4.70101 5.5 10.5L26.5 10.5Z M17 0.047V0H16C16.3373 0 16.6709 0.015903 17 0.047ZM17 10.5H16V24.5H17V10.5Z" fill="gray" stroke="black" transform="translate(552,669)" /><path d="M16 24.5L0.25 33.5933L0.25 15.4067L16 24.5Z M16 24.5L31.75 15.4067V33.5933L16 24.5Z M26.5 10.5C26.5 4.70101 21.799 0 16 0C10.201 0 5.5 4.70101 5.5 10.5L26.5 10.5Z M17 0.047V0H16C16.3373 0 16.6709 0.015903 17 0.047ZM17 10.5H16V24.5H17V10.5Z" fill="gray" stroke="black" transform="translate(836,669)" /><path d="M16 24.5L0.25 33.5933L0.25 15.4067L16 24.5Z M16 24.5L31.75 15.4067V33.5933L16 24.5Z M26.5 10.5C26.5 4.70101 21.799 0 16 0C10.201 0 5.5 4.70101 5.5 10.5L26.5 10.5Z M17 0.047V0H16C16.3373 0 16.6709 0.015903 17 0.047ZM17 10.5H16V24.5H17V10.5Z" fill="gray" stroke="black" transform="translate(485,600)" /><path d="M16 24.5L0.25 33.5933L0.25 15.4067L16 24.5Z M16 24.5L31.75 15.4067V33.5933L16 24.5Z M26.5 10.5C26.5 4.70101 21.799 0 16 0C10.201 0 5.5 4.70101 5.5 10.5L26.5 10.5Z M17 0.047V0H16C16.3373 0 16.6709 0.015903 17 0.047ZM17 10.5H16V24.5H17V10.5Z" fill="gray" stroke="black" transform="translate(956,600)" /><path d="M16 24.5L0.25 33.5933L0.25 15.4067L16 24.5Z M16 24.5L31.75 15.4067V33.5933L16 24.5Z M26.5 10.5C26.5 4.70101 21.799 0 16 0C10.201 0 5.5 4.70101 5.5 10.5L26.5 10.5Z M17 0.047V0H16C16.3373 0 16.6709 0.015903 17 0.047ZM17 10.5H16V24.5H17V10.5Z" fill="gray" stroke="black" transform="translate(868,563)" /><path d="M16 24.5L0.25 33.5933L0.25 15.4067L16 24.5Z M16 24.5L31.75 15.4067V33.5933L16 24.5Z M26.5 10.5C26.5 4.70101 21.799 0 16 0C10.201 0 5.5 4.70101 5.5 10.5L26.5 10.5Z M17 0.047V0H16C16.3373 0 16.6709 0.015903 17 0.047ZM17 10.5H16V24.5H17V10.5Z" fill="gray" stroke="black" transform="translate(485,516)" /><path d="M16 24.5L0.25 33.5933L0.25 15.4067L16 24.5Z M16 24.5L31.75 15.4067V33.5933L16 24.5Z M26.5 10.5C26.5 4.70101 21.799 0 16 0C10.201 0 5.5 4.70101 5.5 10.5L26.5 10.5Z M17 0.047V0H16C16.3373 0 16.6709 0.015903 17 0.047ZM17 10.5H16V24.5H17V10.5Z" fill="gray" stroke="black" transform="translate(485,433)" /><path d="M16 24.5L0.25 33.5933L0.25 15.4067L16 24.5Z M16 24.5L31.75 15.4067V33.5933L16 24.5Z M26.5 10.5C26.5 4.70101 21.799 0 16 0C10.201 0 5.5 4.70101 5.5 10.5L26.5 10.5Z M17 0.047V0H16C16.3373 0 16.6709 0.015903 17 0.047ZM17 10.5H16V24.5H17V10.5Z" fill="gray" stroke="black" transform="translate(485,349)" /><path d="M16 24.5L0.25 33.5933L0.25 15.4067L16 24.5Z M16 24.5L31.75 15.4067V33.5933L16 24.5Z M26.5 10.5C26.5 4.70101 21.799 0 16 0C10.201 0 5.5 4.70101 5.5 10.5L26.5 10.5Z M17 0.047V0H16C16.3373 0 16.6709 0.015903 17 0.047ZM17 10.5H16V24.5H17V10.5Z" fill="gray" stroke="black" transform="translate(485,266)" /><path d="M16 24.5L0.25 33.5933L0.25 15.4067L16 24.5Z M16 24.5L31.75 15.4067V33.5933L16 24.5Z M26.5 10.5C26.5 4.70101 21.799 0 16 0C10.201 0 5.5 4.70101 5.5 10.5L26.5 10.5Z M17 0.047V0H16C16.3373 0 16.6709 0.015903 17 0.047ZM17 10.5H16V24.5H17V10.5Z" fill="gray" stroke="black" transform="translate(485,183)" /><path d="M16 24.5L0.25 33.5933L0.25 15.4067L16 24.5Z M16 24.5L31.75 15.4067V33.5933L16 24.5Z M26.5 10.5C26.5 4.70101 21.799 0 16 0C10.201 0 5.5 4.70101 5.5 10.5L26.5 10.5Z M17 0.047V0H16C16.3373 0 16.6709 0.015903 17 0.047ZM17 10.5H16V24.5H17V10.5Z" fill="gray" stroke="black" transform="translate(868,480)" /><path d="M16 24.5L0.25 33.5933L0.25 15.4067L16 24.5Z M16 24.5L31.75 15.4067V33.5933L16 24.5Z M26.5 10.5C26.5 4.70101 21.799 0 16 0C10.201 0 5.5 4.70101 5.5 10.5L26.5 10.5Z M17 0.047V0H16C16.3373 0 16.6709 0.015903 17 0.047ZM17 10.5H16V24.5H17V10.5Z" fill="gray" stroke="black" transform="translate(868,396)" /><path d="M16 24.5L0.25 33.5933L0.25 15.4067L16 24.5Z M16 24.5L31.75 15.4067V33.5933L16 24.5Z M26.5 10.5C26.5 4.70101 21.799 0 16 0C10.201 0 5.5 4.70101 5.5 10.5L26.5 10.5Z M17 0.047V0H16C16.3373 0 16.6709 0.015903 17 0.047ZM17 10.5H16V24.5H17V10.5Z" fill="gray" stroke="black" transform="translate(868,313)" /><path d="M16 24.5L0.25 33.5933L0.25 15.4067L16 24.5Z M16 24.5L31.75 15.4067V33.5933L16 24.5Z M26.5 10.5C26.5 4.70101 21.799 0 16 0C10.201 0 5.5 4.70101 5.5 10.5L26.5 10.5Z M17 0.047V0H16C16.3373 0 16.6709 0.015903 17 0.047ZM17 10.5H16V24.5H17V10.5Z" fill="gray" stroke="black" transform="translate(868,230)" /><path d="M16 24.5L0.25 33.5933L0.25 15.4067L16 24.5Z M16 24.5L31.75 15.4067V33.5933L16 24.5Z M26.5 10.5C26.5 4.70101 21.799 0 16 0C10.201 0 5.5 4.70101 5.5 10.5L26.5 10.5Z M17 0.047V0H16C16.3373 0 16.6709 0.015903 17 0.047ZM17 10.5H16V24.5H17V10.5Z" fill="gray" stroke="black" transform="translate(868,146)" /><path d="M16 24.5L0.25 33.5933L0.25 15.4067L16 24.5Z M16 24.5L31.75 15.4067V33.5933L16 24.5Z M26.5 10.5C26.5 4.70101 21.799 0 16 0C10.201 0 5.5 4.70101 5.5 10.5L26.5 10.5Z M17 0.047V0H16C16.3373 0 16.6709 0.015903 17 0.047ZM17 10.5H16V24.5H17V10.5Z" fill="gray" stroke="black" transform="translate(956,516)" /><path d="M16 24.5L0.25 33.5933L0.25 15.4067L16 24.5Z M16 24.5L31.75 15.4067V33.5933L16 24.5Z M26.5 10.5C26.5 4.70101 21.799 0 16 0C10.201 0 5.5 4.70101 5.5 10.5L26.5 10.5Z M17 0.047V0H16C16.3373 0 16.6709 0.015903 17 0.047ZM17 10.5H16V24.5H17V10.5Z" fill="gray" stroke="black" transform="translate(956,433)" /><path d="M16 24.5L0.25 33.5933L0.25 15.4067L16 24.5Z M16 24.5L31.75 15.4067V33.5933L16 24.5Z M26.5 10.5C26.5 4.70101 21.799 0 16 0C10.201 0 5.5 4.70101 5.5 10.5L26.5 10.5Z M17 0.047V0H16C16.3373 0 16.6709 0.015903 17 0.047ZM17 10.5H16V24.5H17V10.5Z" fill="gray" stroke="black" transform="translate(956,349)" /><path d="M16 24.5L0.25 33.5933L0.25 15.4067L16 24.5Z M16 24.5L31.75 15.4067V33.5933L16 24.5Z M26.5 10.5C26.5 4.70101 21.799 0 16 0C10.201 0 5.5 4.70101 5.5 10.5L26.5 10.5Z M17 0.047V0H16C16.3373 0 16.6709 0.015903 17 0.047ZM17 10.5H16V24.5H17V10.5Z" fill="gray" stroke="black" transform="translate(956,266)" /><path d="M16 24.5L0.25 33.5933L0.25 15.4067L16 24.5Z M16 24.5L31.75 15.4067V33.5933L16 24.5Z M26.5 10.5C26.5 4.70101 21.799 0 16 0C10.201 0 5.5 4.70101 5.5 10.5L26.5 10.5Z M17 0.047V0H16C16.3373 0 16.6709 0.015903 17 0.047ZM17 10.5H16V24.5H17V10.5Z" fill="gray" stroke="black" transform="translate(956,183)" /><path d="M16 24.5L0.25 33.5933L0.25 15.4067L16 24.5Z M16 24.5L31.75 15.4067V33.5933L16 24.5Z M26.5 10.5C26.5 4.70101 21.799 0 16 0C10.201 0 5.5 4.70101 5.5 10.5L26.5 10.5Z M17 0.047V0H16C16.3373 0 16.6709 0.015903 17 0.047ZM17 10.5H16V24.5H17V10.5Z" fill="gray" stroke="black" transform="translate(485,78)" /><path d="M16 24.5L0.25 33.5933L0.25 15.4067L16 24.5Z M16 24.5L31.75 15.4067V33.5933L16 24.5Z M26.5 10.5C26.5 4.70101 21.799 0 16 0C10.201 0 5.5 4.70101 5.5 10.5L26.5 10.5Z M17 0.047V0H16C16.3373 0 16.6709 0.015903 17 0.047ZM17 10.5H16V24.5H17V10.5Z" fill="gray" stroke="black" transform="translate(956,78)" /><path d="M16 24.5L0.25 33.5933L0.25 15.4067L16 24.5Z M16 24.5L31.75 15.4067V33.5933L16 24.5Z M26.5 10.5C26.5 4.70101 21.799 0 16 0C10.201 0 5.5 4.70101 5.5 10.5L26.5 10.5Z M17 0.047V0H16C16.3373 0 16.6709 0.015903 17 0.047ZM17 10.5H16V24.5H17V10.5Z" fill="gray" stroke="black" transform="translate(1319,669)" /><path d="M16 24.5L0.25 33.5933L0.25 15.4067L16 24.5Z M16 24.5L31.75 15.4067V33.5933L16 24.5Z M26.5 10.5C26.5 4.70101 21.799 0 16 0C10.201 0 5.5 4.70101 5.5 10.5L26.5 10.5Z M17 0.047V0H16C16.3373 0 16.6709 0.015903 17 0.047ZM17 10.5H16V24.5H17V10.5Z" fill="gray" stroke="black" transform="translate(1629,669)" /><path d="M16 24.5L0.25 33.5933L0.25 15.4067L16 24.5Z M16 24.5L31.75 15.4067V33.5933L16 24.5Z M26.5 10.5C26.5 4.70101 21.799 0 16 0C10.201 0 5.5 4.70101 5.5 10.5L26.5 10.5Z M17 0.047V0H16C16.3373 0 16.6709 0.015903 17 0.047ZM17 10.5H16V24.5H17V10.5Z" fill="gray" stroke="black" transform="translate(324,-4)" /><path d="M16 24.5L0.25 33.5933L0.25 15.4067L16 24.5Z M16 24.5L31.75 15.4067V33.5933L16 24.5Z M26.5 10.5C26.5 4.70101 21.799 0 16 0C10.201 0 5.5 4.70101 5.5 10.5L26.5 10.5Z M17 0.047V0H16C16.3373 0 16.6709 0.015903 17 0.047ZM17 10.5H16V24.5H17V10.5Z" fill="gray" stroke="black" transform="translate(314,669)" /><path d="M16 24.5L0.25 33.5933L0.25 15.4067L16 24.5Z M16 24.5L31.75 15.4067V33.5933L16 24.5Z M26.5 10.5C26.5 4.70101 21.799 0 16 0C10.201 0 5.5 4.70101 5.5 10.5L26.5 10.5Z M17 0.047V0H16C16.3373 0 16.6709 0.015903 17 0.047ZM17 10.5H16V24.5H17V10.5Z" fill="gray" stroke="black" transform="translate(1629,600)" /></svg>